<svg id="svg" version="1.1" xmlns="http://www.w3.org/2000/svg" xmlns:xlink="http://www.w3.org/1999/xlink" width="400" height="400" viewBox="0, 0, 400,400"><g id="svgg"><path id="path0" d="M0.000 200.000 L 0.000 400.000 200.000 400.000 L 400.000 400.000 400.000 200.000 L 400.000 0.000 200.000 0.000 L 0.000 0.000 0.000 200.000 M124.028 80.208 C 126.121 80.873,130.008 82.058,132.667 82.842 C 137.719 84.333,145.682 86.716,155.833 89.776 C 159.133 90.771,167.833 93.613,175.167 96.092 C 182.500 98.571,189.400 100.863,190.500 101.185 C 191.600 101.507,192.314 101.834,192.088 101.911 C 191.861 101.989,189.761 101.524,187.421 100.877 C 185.081 100.230,181.142 99.178,178.667 98.539 C 165.346 95.097,158.102 93.132,151.500 91.168 C 147.467 89.968,141.842 88.310,139.000 87.484 C 136.158 86.658,132.708 85.617,131.333 85.172 C 121.457 81.976,118.124 81.257,117.248 82.133 C 116.693 82.688,114.975 87.537,112.806 94.667 C 106.406 115.710,101.424 132.304,98.194 143.333 C 97.201 146.725,95.998 150.690,95.521 152.144 C 95.045 153.598,94.770 154.900,94.911 155.037 C 96.213 156.306,168.277 191.871,168.670 191.439 C 169.289 190.759,174.105 176.843,179.492 160.167 C 183.800 146.830,185.009 143.214,187.681 135.667 C 188.817 132.458,191.021 126.083,192.580 121.500 C 194.139 116.917,195.541 113.029,195.695 112.862 C 195.850 112.694,195.836 113.069,195.663 113.695 C 195.491 114.321,193.710 120.833,191.706 128.167 C 186.485 147.269,185.307 151.091,176.917 176.167 C 171.934 191.060,170.520 194.457,169.242 194.605 C 168.366 194.707,168.333 194.782,168.333 196.702 C 168.333 202.112,168.470 202.045,146.000 207.668 C 143.892 208.196,140.142 209.152,137.667 209.794 C 132.533 211.123,126.308 212.725,114.833 215.670 C 110.433 216.799,104.508 218.321,101.667 219.051 C 90.105 222.021,89.479 222.110,87.124 221.128 C 85.982 220.652,80.324 217.155,79.000 216.107 C 78.725 215.889,76.250 214.193,73.500 212.338 C 66.533 207.638,60.321 203.401,59.333 202.674 C 58.620 202.149,51.002 196.890,43.371 191.654 C 32.457 184.165,26.589 179.916,25.274 178.550 C 24.337 177.576,22.025 172.745,21.783 171.255 C 21.551 169.824,21.429 169.872,28.667 168.531 C 33.023 167.723,37.481 166.854,42.667 165.800 C 44.042 165.521,47.192 164.930,49.667 164.488 C 52.142 164.045,54.842 163.517,55.667 163.314 C 56.492 163.110,59.492 162.510,62.333 161.980 C 65.175 161.450,68.700 160.784,70.167 160.501 C 71.633 160.218,75.608 159.456,79.000 158.809 C 89.451 156.815,91.597 156.293,91.780 155.703 C 91.871 155.408,92.553 153.067,93.295 150.500 C 94.595 145.998,96.829 138.489,100.829 125.167 C 101.875 121.683,103.446 116.433,104.319 113.500 C 105.193 110.567,106.444 106.442,107.100 104.333 C 107.755 102.225,108.817 98.775,109.459 96.667 C 115.417 77.094,115.154 77.390,124.028 80.208 M115.003 101.333 C 115.631 101.333,116.333 102.443,116.333 103.433 L 116.333 104.485 117.358 103.243 C 119.038 101.204,120.229 101.707,119.649 104.210 C 119.225 106.034,119.256 106.173,119.943 105.552 C 121.189 104.424,121.769 104.821,121.590 106.683 L 121.428 108.365 122.348 108.163 C 123.028 108.014,123.386 108.126,123.718 108.593 C 123.965 108.941,124.595 109.332,125.119 109.461 C 125.642 109.591,126.139 109.961,126.224 110.284 C 126.308 110.606,126.830 111.041,127.383 111.250 C 128.285 111.591,128.378 111.756,128.278 112.845 C 128.165 114.078,128.998 114.858,131.083 115.474 C 131.762 115.674,131.902 117.482,131.269 117.873 C 131.033 118.019,131.473 118.264,132.352 118.476 C 133.781 118.821,133.830 118.874,133.746 120.000 C 133.510 123.139,133.641 123.808,134.669 124.691 C 135.511 125.414,135.667 125.790,135.667 127.096 C 135.667 127.948,135.917 129.168,136.222 129.809 C 136.733 130.881,136.736 131.082,136.249 132.320 C 135.665 133.807,136.159 134.140,137.712 133.309 C 138.080 133.112,139.212 132.735,140.228 132.470 C 141.244 132.205,142.445 131.699,142.895 131.344 C 143.509 130.862,144.191 130.711,145.607 130.746 C 147.186 130.784,147.982 130.565,150.407 129.422 C 153.510 127.960,153.390 128.090,156.630 122.718 C 157.818 120.749,160.224 119.825,159.804 121.500 C 159.502 122.703,160.142 122.539,161.209 121.141 C 161.768 120.408,162.345 118.963,162.708 117.391 C 163.032 115.984,163.467 114.233,163.676 113.500 C 163.884 112.767,164.322 110.872,164.650 109.290 C 165.353 105.891,165.467 105.667,166.484 105.667 C 167.805 105.667,168.069 108.242,167.184 112.476 C 166.708 114.747,166.741 115.333,167.343 115.333 C 167.978 115.333,169.321 111.678,170.125 107.764 C 171.209 102.491,171.740 101.540,172.933 102.733 C 173.632 103.432,173.380 108.764,172.479 112.333 C 172.154 113.619,173.382 111.789,175.030 108.530 C 176.888 104.857,177.589 103.942,178.453 104.065 C 179.813 104.259,179.549 105.917,177.541 109.798 C 175.469 113.803,175.483 114.005,177.667 111.667 C 179.393 109.818,179.801 109.672,180.352 110.702 C 180.670 111.295,180.562 111.636,179.662 112.889 C 178.571 114.409,178.571 115.434,179.662 114.088 C 180.343 113.247,181.648 112.667,182.855 112.667 C 184.018 112.667,183.908 113.738,182.636 114.808 L 181.605 115.675 182.803 116.175 C 184.185 116.753,184.169 116.706,183.456 118.085 C 183.080 118.813,183.028 119.176,183.289 119.263 C 184.020 119.507,183.652 120.291,182.250 121.471 C 180.909 122.601,180.873 122.676,181.583 122.871 C 182.418 123.101,182.512 123.355,181.964 123.902 C 181.694 124.172,181.790 124.376,182.319 124.659 C 182.868 124.953,183.003 125.262,182.876 125.940 C 182.785 126.431,182.617 127.536,182.504 128.394 C 182.320 129.794,182.196 129.977,181.293 130.175 C 180.327 130.388,180.310 130.421,180.863 131.033 C 181.838 132.110,178.106 137.972,176.424 138.005 C 175.524 138.023,175.206 138.640,175.773 139.266 C 177.347 141.005,172.406 146.808,168.771 147.490 C 168.163 147.604,167.667 147.825,167.667 147.982 C 167.667 148.720,165.728 148.924,163.588 148.412 C 161.493 147.910,161.363 147.917,160.073 148.590 C 159.336 148.974,158.649 149.204,158.546 149.101 C 158.443 148.999,157.678 149.086,156.847 149.295 C 155.606 149.608,155.113 149.584,154.103 149.161 C 152.998 148.700,152.842 148.699,152.586 149.157 C 152.113 150.002,151.298 149.740,149.989 148.322 L 148.748 146.977 148.057 148.374 C 147.237 150.030,147.398 150.479,149.375 152.067 C 150.128 152.672,151.214 153.600,151.789 154.131 C 152.363 154.661,153.958 155.924,155.333 156.938 C 159.867 160.282,160.987 161.350,161.885 163.184 C 162.800 165.051,162.755 166.000,161.753 166.000 C 161.407 166.000,160.883 166.499,160.519 167.175 C 159.753 168.597,158.802 168.889,156.597 168.380 C 155.691 168.171,154.529 168.000,154.015 168.000 C 153.502 168.000,152.893 167.773,152.663 167.496 C 152.362 167.132,152.127 167.090,151.821 167.344 C 151.588 167.537,151.024 167.602,150.568 167.487 C 150.106 167.371,149.641 167.439,149.517 167.640 C 149.150 168.234,148.681 168.057,147.659 166.938 C 146.740 165.932,146.657 165.906,146.068 166.438 C 145.203 167.222,144.920 167.159,143.333 165.833 C 142.565 165.192,141.684 164.667,141.376 164.667 C 140.513 164.667,139.333 163.702,139.333 162.996 C 139.333 162.392,138.873 162.222,136.333 161.890 C 136.058 161.854,135.458 161.131,135.000 160.284 C 133.944 158.330,133.592 158.214,133.125 159.667 C 132.650 161.144,131.835 161.275,128.674 160.380 L 126.333 159.718 126.136 160.502 C 125.893 161.471,125.247 161.744,124.167 161.333 C 123.217 160.972,122.466 161.174,122.203 161.859 C 122.073 162.197,121.467 162.328,120.094 162.314 C 118.472 162.297,118.265 162.231,118.790 161.897 C 121.158 160.387,121.150 159.900,118.750 159.539 C 117.403 159.336,117.333 159.366,117.333 160.163 C 117.333 161.145,117.274 161.159,115.983 160.491 C 114.385 159.665,115.602 156.644,117.350 157.101 C 117.707 157.194,118.000 157.119,118.000 156.932 C 118.000 156.725,118.486 156.677,119.250 156.807 C 123.364 157.510,125.000 157.451,125.000 156.601 C 125.000 156.127,125.619 155.069,126.500 154.036 C 128.555 151.629,127.929 150.491,125.299 151.851 C 124.391 152.320,123.666 152.386,121.263 152.215 C 118.530 152.021,118.333 152.050,118.333 152.643 C 118.333 154.871,114.776 155.778,113.138 153.968 C 112.431 153.187,112.700 152.816,113.616 153.306 C 115.181 154.144,116.920 152.454,115.725 151.258 C 115.252 150.786,113.667 151.234,113.667 151.840 C 113.667 152.521,113.216 152.457,112.510 151.678 C 112.173 151.306,111.991 150.737,112.089 150.364 C 112.216 149.876,112.034 149.624,111.380 149.387 C 110.896 149.212,110.237 148.962,109.917 148.832 C 109.450 148.643,109.333 148.769,109.333 149.464 C 109.333 150.584,108.560 150.596,108.054 149.484 C 107.382 148.011,107.565 147.379,108.750 147.068 C 109.939 146.755,110.371 146.832,114.975 148.178 L 118.116 149.096 118.725 148.345 C 119.059 147.931,119.333 147.411,119.333 147.188 C 119.333 146.476,120.785 145.446,122.400 145.011 C 125.683 144.127,125.616 142.080,122.232 139.833 C 120.165 138.460,118.855 138.647,117.074 140.568 L 116.244 141.464 115.456 140.547 C 114.500 139.436,114.476 138.620,115.339 136.718 C 115.738 135.837,115.916 134.949,115.792 134.454 C 115.403 132.903,118.749 130.682,121.500 130.665 C 123.593 130.652,123.877 130.333,123.332 128.610 C 123.081 127.816,122.867 125.967,122.855 124.500 C 122.825 120.810,121.722 118.551,118.893 116.385 C 114.498 113.021,113.338 111.453,114.822 110.884 C 115.229 110.728,115.174 110.399,114.489 108.902 C 113.126 105.925,112.927 100.645,114.197 101.132 C 114.485 101.243,114.848 101.333,115.003 101.333 M247.365 132.026 C 254.122 133.749,254.383 143.130,247.938 152.608 C 240.927 162.919,230.445 171.723,208.000 186.152 C 202.681 189.572,196.949 193.754,197.240 194.002 C 197.383 194.124,198.250 194.490,199.167 194.817 C 209.692 198.569,218.952 208.202,226.694 223.455 C 229.963 229.894,231.915 232.924,233.399 233.863 C 234.005 234.245,234.912 234.811,235.417 235.120 C 237.932 236.662,235.322 238.873,232.630 237.481 C 229.633 235.931,228.151 233.909,223.574 225.126 C 217.373 213.227,211.987 206.445,205.167 201.950 C 200.960 199.178,195.111 196.610,194.839 197.416 C 194.761 197.645,194.450 198.733,194.147 199.833 C 188.315 221.015,181.865 238.452,179.542 239.316 C 177.377 240.120,177.436 238.982,179.883 232.752 C 184.166 221.844,192.151 196.483,191.766 195.010 C 191.659 194.602,191.814 194.057,192.138 193.698 C 192.632 193.152,193.571 190.110,196.160 180.667 C 196.587 179.108,198.359 172.658,200.097 166.333 C 201.835 160.008,203.367 154.316,203.503 153.685 L 203.748 152.536 201.968 154.018 C 198.815 156.643,192.865 162.819,188.384 168.119 C 179.963 178.080,181.206 173.247,189.775 162.712 C 204.557 144.538,234.297 128.692,247.365 132.026 M237.167 135.305 C 229.102 137.375,218.761 142.182,210.422 147.736 C 208.134 149.259,206.962 150.253,206.861 150.754 C 205.600 157.058,202.135 170.845,197.918 186.340 L 197.145 189.181 203.229 185.174 C 206.575 182.970,211.958 179.442,215.192 177.333 C 233.671 165.283,245.403 153.715,248.891 144.105 C 251.914 135.777,247.687 132.604,237.167 135.305 M352.400 154.708 C 359.091 156.128,363.223 162.185,360.853 167.099 C 359.837 169.206,359.198 168.654,359.000 165.497 C 358.452 156.734,347.572 154.513,338.553 161.323 C 330.730 167.229,332.243 171.646,345.500 181.607 C 368.575 198.945,372.937 204.140,373.572 215.039 C 375.042 240.272,334.508 258.364,324.370 237.000 C 319.000 225.685,335.926 210.252,347.125 216.251 L 348.167 216.809 346.167 217.084 C 336.003 218.483,333.681 219.527,329.899 224.398 C 325.195 230.455,325.896 236.223,331.833 240.316 C 344.962 249.366,370.379 233.597,370.328 216.434 C 370.299 206.733,364.734 199.962,344.667 185.207 C 333.484 176.985,330.853 173.831,330.870 168.670 C 330.898 160.486,342.912 152.695,352.400 154.708 M91.000 158.064 C 88.567 158.686,87.725 158.079,99.333 164.073 C 102.358 165.635,107.833 168.453,111.500 170.334 C 115.167 172.215,119.967 174.689,122.167 175.832 C 124.367 176.974,129.467 179.598,133.500 181.663 C 137.533 183.728,142.183 186.132,143.833 187.006 C 145.483 187.880,149.363 189.895,152.454 191.485 L 158.075 194.375 160.537 193.771 C 161.891 193.439,162.994 193.092,162.988 193.000 C 162.982 192.908,157.995 190.374,151.905 187.367 C 143.613 183.274,99.391 161.362,93.000 158.181 C 92.424 157.894,91.806 157.858,91.000 158.064 M255.215 158.937 C 255.104 159.635,254.043 163.573,252.859 167.687 C 251.675 171.801,249.937 178.167,248.998 181.833 C 248.059 185.500,247.211 188.775,247.114 189.112 C 246.950 189.677,246.996 189.686,247.719 189.224 C 249.001 188.405,256.705 186.082,264.000 184.315 C 267.758 183.404,271.320 182.413,271.915 182.111 C 273.162 181.480,272.859 182.370,275.864 170.500 C 278.118 161.591,278.334 161.000,279.333 161.000 C 281.310 161.000,281.034 162.736,275.158 187.333 C 271.290 203.530,269.070 215.789,267.892 227.471 C 267.395 232.399,267.133 233.000,265.477 233.000 C 263.962 233.000,263.871 232.413,264.480 226.581 C 265.700 214.913,267.835 202.940,271.138 189.250 C 271.569 187.463,271.869 186.000,271.804 186.000 C 271.380 186.000,260.686 188.655,254.968 190.180 C 251.192 191.186,247.758 191.970,247.337 191.922 C 246.424 191.816,246.488 191.567,242.150 212.000 C 238.817 227.702,238.292 229.154,236.484 227.653 C 235.759 227.052,235.834 226.485,238.014 216.096 C 242.353 195.413,246.217 179.599,248.829 171.833 C 251.878 162.763,255.903 154.636,255.215 158.937 M294.999 161.163 C 295.438 162.318,294.672 166.542,292.363 175.700 L 290.464 183.234 291.482 182.643 C 293.092 181.709,311.739 176.667,313.585 176.667 C 314.137 176.667,314.388 176.372,314.649 175.417 C 318.590 160.977,318.737 160.594,319.901 161.758 C 320.933 162.790,320.282 165.850,312.999 194.167 C 309.651 207.185,307.448 218.530,306.495 227.662 C 305.920 233.170,305.487 234.089,303.757 233.469 L 302.833 233.137 302.912 229.985 C 303.067 223.797,305.114 211.765,308.028 199.913 C 309.326 194.634,312.876 181.379,313.258 180.383 C 313.404 180.002,313.298 179.944,312.808 180.140 C 312.455 180.280,308.042 181.438,303.000 182.713 C 297.958 183.988,292.847 185.412,291.641 185.879 L 289.448 186.727 288.864 189.114 C 285.330 203.557,283.585 211.748,282.318 219.833 C 281.373 225.860,280.397 227.267,278.825 224.867 C 277.252 222.467,284.721 189.771,293.167 162.083 C 293.752 160.165,294.480 159.800,294.999 161.163 M83.890 253.054 C 87.666 255.555,87.361 261.776,83.360 263.892 C 82.066 264.576,81.435 264.667,77.957 264.667 L 74.019 264.667 73.926 269.250 L 73.833 273.833 72.917 273.939 L 72.000 274.044 72.000 263.244 C 72.000 257.304,72.110 252.334,72.245 252.200 C 72.985 251.460,82.542 252.160,83.890 253.054 M273.945 253.150 C 274.142 254.880,272.414 255.609,271.484 254.189 C 270.696 252.986,271.339 251.925,272.772 252.064 C 273.671 252.151,273.850 252.317,273.945 253.150 M74.000 258.333 L 74.000 263.000 77.417 262.999 C 82.513 262.999,84.500 261.690,84.500 258.333 C 84.500 254.977,82.513 253.668,77.417 253.667 L 74.000 253.667 74.000 258.333 M105.169 259.003 C 105.737 259.923,104.971 260.651,103.502 260.587 C 101.991 260.521,101.036 261.076,100.219 262.496 C 99.994 262.888,99.764 265.382,99.667 268.500 L 99.500 273.833 98.583 273.939 L 97.667 274.044 97.667 266.724 C 97.667 260.341,97.734 259.379,98.197 259.201 C 98.967 258.906,99.333 259.250,99.335 260.270 L 99.337 261.167 100.085 260.286 C 101.352 258.794,104.542 257.989,105.169 259.003 M123.363 259.038 C 131.529 260.789,129.983 274.333,121.618 274.333 C 112.183 274.333,111.818 259.503,121.234 258.701 C 121.454 258.682,122.412 258.834,123.363 259.038 M171.835 259.003 C 172.404 259.923,171.637 260.651,170.169 260.587 C 168.657 260.521,167.703 261.076,166.886 262.496 C 166.660 262.888,166.431 265.382,166.333 268.500 L 166.167 273.833 165.250 273.939 L 164.333 274.044 164.333 266.724 C 164.333 260.341,164.401 259.379,164.863 259.201 C 165.633 258.906,166.000 259.250,166.002 260.270 L 166.003 261.167 166.752 260.286 C 168.019 258.794,171.208 257.989,171.835 259.003 M190.667 259.667 C 191.366 260.023,192.015 260.507,192.110 260.741 C 192.204 260.975,192.293 260.848,192.307 260.457 C 192.340 259.578,193.156 258.860,193.829 259.119 C 194.258 259.284,194.333 260.408,194.333 266.656 L 194.333 274.000 193.500 274.000 C 192.790 274.000,192.667 273.847,192.667 272.965 L 192.667 271.931 191.507 272.949 C 188.499 275.590,183.449 274.516,181.678 270.857 C 178.202 263.676,184.110 256.321,190.667 259.667 M215.190 259.546 C 215.636 259.838,216.005 260.172,216.011 260.288 C 216.070 261.471,217.007 261.709,217.817 260.747 C 220.181 257.937,224.760 258.249,226.330 261.327 C 226.924 262.490,227.000 263.289,227.000 268.320 L 227.000 274.000 226.167 274.000 C 225.597 274.000,225.332 273.815,225.329 273.417 C 225.241 262.521,225.003 261.308,222.841 260.711 C 221.421 260.319,220.410 260.539,219.386 261.463 C 217.991 262.721,217.838 263.362,217.667 268.667 L 217.500 273.833 216.667 273.833 L 215.833 273.833 215.667 268.333 C 215.465 261.679,215.045 260.640,212.527 260.568 C 209.349 260.478,208.548 262.026,208.333 268.667 L 208.167 273.833 207.244 273.939 L 206.320 274.046 206.410 266.606 C 206.499 259.211,206.504 259.166,207.238 259.062 C 207.798 258.982,208.029 259.167,208.195 259.827 C 208.392 260.614,208.466 260.650,208.967 260.197 C 210.649 258.674,213.417 258.385,215.190 259.546 M247.223 259.312 C 247.987 259.659,248.795 260.294,249.018 260.722 C 249.241 261.150,249.472 261.556,249.531 261.625 C 249.591 261.694,250.020 261.298,250.485 260.745 C 252.848 257.937,257.427 258.250,258.997 261.327 C 259.590 262.490,259.667 263.289,259.667 268.320 L 259.667 274.000 258.833 274.000 C 258.146 274.000,258.000 273.839,258.001 273.083 C 258.011 263.163,257.627 261.297,255.454 260.697 C 251.939 259.726,250.552 261.885,250.333 268.667 L 250.167 273.833 249.333 273.833 L 248.500 273.833 248.333 268.333 C 248.134 261.741,247.101 259.676,244.435 260.534 C 241.577 261.453,241.204 262.335,241.000 268.667 L 240.833 273.833 239.910 273.939 L 238.987 274.046 239.077 266.606 C 239.166 259.211,239.171 259.166,239.905 259.062 C 240.460 258.983,240.696 259.166,240.855 259.803 L 241.068 260.649 242.117 259.858 C 243.862 258.544,245.212 258.399,247.223 259.312 M294.367 259.046 C 297.361 260.049,298.081 261.620,298.268 267.563 C 298.443 273.152,298.302 274.000,297.195 274.000 L 296.403 274.000 296.273 268.750 C 296.101 261.791,295.505 260.611,292.167 260.611 C 288.763 260.611,287.887 262.211,287.667 268.833 L 287.500 273.833 286.583 273.939 L 285.667 274.044 285.667 266.724 C 285.667 260.272,285.731 259.380,286.209 259.197 C 286.890 258.935,287.667 259.555,287.667 260.358 C 287.667 260.903,287.758 260.883,288.517 260.180 C 289.917 258.882,292.426 258.396,294.367 259.046 M147.167 259.368 C 147.900 259.568,148.987 260.100,149.583 260.550 L 150.667 261.367 150.667 260.517 C 150.667 259.832,150.829 259.667,151.500 259.667 L 152.333 259.667 152.333 268.083 C 152.332 277.547,152.256 277.916,149.898 279.800 C 146.648 282.396,140.036 280.747,139.123 277.113 C 138.590 274.988,140.217 274.929,141.268 277.035 C 142.728 279.959,147.930 280.105,149.658 277.270 C 150.302 276.213,150.716 271.233,150.078 272.208 C 149.070 273.750,145.113 274.529,142.772 273.646 C 137.887 271.805,137.240 263.146,141.765 260.181 C 143.406 259.105,145.211 258.834,147.167 259.368 M317.500 259.368 C 318.233 259.568,319.321 260.100,319.917 260.550 L 321.000 261.367 321.000 260.517 C 321.000 259.832,321.162 259.667,321.833 259.667 L 322.667 259.667 322.667 268.061 C 322.667 275.871,322.619 276.556,321.976 277.882 C 319.764 282.452,310.656 281.892,309.457 277.113 C 308.983 275.224,310.952 274.861,311.517 276.733 C 313.036 281.760,320.662 279.502,320.665 274.025 L 320.667 271.884 319.917 272.567 C 314.110 277.856,306.371 269.997,310.001 262.498 C 311.278 259.859,314.451 258.535,317.500 259.368 M273.590 266.750 L 273.500 274.167 272.667 274.167 L 271.833 274.167 271.744 266.750 L 271.654 259.333 272.667 259.333 L 273.679 259.333 273.590 266.750 M119.833 260.834 C 114.422 262.749,115.433 272.122,121.101 272.592 C 127.635 273.134,129.230 262.312,122.853 260.706 C 121.113 260.268,121.477 260.253,119.833 260.834 M186.214 260.677 C 182.390 261.820,181.371 268.912,184.616 271.799 C 186.235 273.238,189.941 272.812,191.255 271.035 C 194.731 266.333,191.246 259.173,186.214 260.677 M144.833 260.904 C 138.531 262.165,139.499 272.512,145.910 272.415 C 148.776 272.372,150.500 270.212,150.500 266.667 C 150.500 262.788,148.020 260.266,144.833 260.904 M314.833 260.989 C 308.817 262.362,309.926 272.410,316.093 272.410 C 319.082 272.410,320.785 270.347,320.815 266.691 C 320.849 262.616,318.310 260.196,314.833 260.989 M169.503 283.622 C 171.920 284.720,174.463 288.670,173.423 289.710 C 172.821 290.313,171.729 289.708,171.495 288.644 C 170.775 285.364,166.616 283.721,163.088 285.322 C 157.650 287.791,157.708 300.691,163.169 303.334 C 166.566 304.979,170.329 303.524,171.495 300.115 C 171.969 298.729,173.163 298.170,173.542 299.156 C 174.188 300.838,171.485 304.549,169.092 305.266 C 161.799 307.452,156.405 301.895,157.089 292.899 C 157.668 285.269,163.513 280.901,169.503 283.622 M187.255 294.393 C 187.340 305.040,187.327 305.290,186.674 305.498 C 185.371 305.911,185.333 305.595,185.333 294.292 L 185.333 283.289 186.250 283.395 L 187.167 283.500 187.255 294.393 M225.667 288.000 C 225.760 290.517,225.953 292.314,226.106 292.079 C 227.723 289.579,233.379 289.830,235.579 292.499 C 241.116 299.216,233.197 309.944,226.723 304.496 L 225.748 303.676 225.544 304.695 C 225.380 305.518,225.195 305.693,224.587 305.607 L 223.833 305.500 223.745 294.394 L 223.658 283.288 224.579 283.394 L 225.500 283.500 225.667 288.000 M200.806 290.536 C 201.256 290.708,201.334 291.506,201.335 295.952 C 201.336 302.686,202.008 304.003,205.438 303.999 C 208.630 303.995,209.758 301.839,209.940 295.392 C 210.082 290.387,210.451 289.343,211.548 290.843 C 212.018 291.485,212.235 303.665,211.798 304.806 C 211.388 305.875,210.001 305.448,209.990 304.250 C 209.981 303.350,209.922 303.266,209.639 303.752 C 207.941 306.668,201.775 306.179,200.092 302.996 C 199.191 301.292,198.905 290.895,199.750 290.554 C 199.979 290.462,200.192 290.374,200.223 290.360 C 200.254 290.345,200.516 290.424,200.806 290.536 M227.379 293.210 C 223.602 296.990,225.679 304.111,230.559 304.111 C 234.122 304.111,236.437 299.522,235.028 295.252 C 233.939 291.951,229.753 290.834,227.379 293.210 " stroke="none" fill="#fbfbfb" fill-rule="evenodd"></path><path id="path1" d="M116.472 79.807 C 114.956 80.467,113.750 83.534,109.642 97.167 C 108.868 99.733,107.418 104.533,106.418 107.833 C 105.418 111.133,103.884 116.233,103.010 119.167 C 102.135 122.100,100.402 127.875,99.157 132.000 C 96.295 141.488,93.537 150.747,92.577 154.094 C 92.007 156.083,91.678 156.721,91.167 156.828 C 90.800 156.905,87.650 157.511,84.167 158.176 C 73.083 160.290,67.608 161.354,63.500 162.195 C 61.300 162.644,57.925 163.298,56.000 163.646 C 54.075 163.994,49.763 164.816,46.417 165.473 C 37.701 167.183,28.619 168.943,25.333 169.558 C 21.775 170.224,21.856 170.129,22.654 172.715 C 24.198 177.711,24.743 178.215,40.477 189.191 C 47.282 193.937,51.257 196.694,54.333 198.798 C 56.075 199.989,59.675 202.463,62.333 204.294 C 80.536 216.837,86.553 220.727,88.706 221.345 C 89.886 221.683,89.685 221.728,106.833 217.332 C 134.162 210.328,143.186 208.027,153.888 205.334 C 159.601 203.897,164.551 202.571,164.888 202.388 C 167.135 201.165,168.550 198.174,168.149 195.498 C 167.932 194.055,167.944 194.033,168.851 194.099 C 170.463 194.217,173.077 187.391,181.653 160.667 C 183.154 155.992,184.814 150.892,185.342 149.333 C 185.871 147.775,186.912 144.195,187.656 141.378 C 188.400 138.561,189.075 136.149,189.155 136.018 C 189.402 135.620,192.350 124.239,192.236 124.125 C 192.137 124.025,191.012 127.203,185.379 143.500 C 184.112 147.167,182.064 153.317,180.828 157.167 C 175.831 172.736,170.405 188.717,169.306 191.104 C 168.952 191.872,168.720 192.007,168.021 191.854 C 166.354 191.491,94.291 155.257,94.444 154.859 C 94.527 154.644,94.924 153.275,95.328 151.817 C 96.132 148.915,100.064 135.653,101.846 129.833 C 102.464 127.817,103.659 123.842,104.503 121.000 C 105.346 118.158,106.874 113.058,107.899 109.667 C 108.924 106.275,110.324 101.625,111.010 99.333 C 113.882 89.735,116.379 82.395,116.947 81.881 C 117.865 81.051,119.571 81.213,123.897 82.544 C 126.062 83.210,130.758 84.618,134.333 85.673 C 137.908 86.728,143.908 88.516,147.667 89.647 C 155.419 91.980,166.929 95.155,173.833 96.865 C 176.400 97.501,178.800 98.099,179.167 98.193 C 182.926 99.163,167.773 93.886,158.000 90.823 C 154.238 89.644,148.609 87.958,137.667 84.732 C 134.642 83.840,130.967 82.720,129.500 82.244 C 121.194 79.545,118.312 79.006,116.472 79.807 M238.333 132.312 C 220.561 136.068,199.522 149.909,187.742 165.593 C 181.179 174.332,181.439 176.116,188.117 168.167 C 193.276 162.025,203.355 151.911,203.836 152.392 C 204.184 152.739,193.211 192.419,192.478 193.466 C 192.215 193.841,192.000 194.608,192.000 195.169 C 192.000 197.505,184.491 221.250,180.355 231.990 C 177.522 239.348,177.481 239.703,179.517 239.192 C 181.451 238.707,186.818 224.494,192.680 204.333 C 195.144 195.858,194.580 196.809,196.728 197.510 C 207.555 201.044,215.675 209.428,224.162 225.833 C 228.788 234.775,231.277 237.667,234.350 237.667 C 236.904 237.667,236.904 236.217,234.349 234.644 C 231.857 233.112,230.733 231.579,227.465 225.260 C 218.261 207.464,209.101 197.920,198.083 194.648 C 197.304 194.417,196.670 194.139,196.673 194.031 C 196.689 193.588,202.668 189.398,210.947 184.027 C 233.419 169.447,244.808 159.089,250.010 148.500 C 255.992 136.324,251.145 129.605,238.333 132.312 M246.000 134.362 C 254.637 136.351,248.753 150.617,233.969 163.530 C 226.860 169.739,220.932 174.018,208.390 181.992 C 204.846 184.245,200.833 186.887,199.473 187.863 C 198.113 188.839,197.000 189.506,197.000 189.345 C 197.000 189.185,197.888 185.779,198.973 181.776 C 202.266 169.627,204.690 160.095,205.823 154.835 L 206.899 149.837 210.033 147.734 C 222.819 139.155,239.647 132.898,246.000 134.362 M343.825 155.437 C 333.746 158.780,328.633 166.598,332.132 173.315 C 333.566 176.069,336.252 178.654,342.667 183.456 C 357.991 194.928,364.709 200.862,367.247 205.168 C 374.645 217.719,368.406 232.592,352.500 240.326 C 334.783 248.941,318.822 235.943,331.045 222.854 C 334.479 219.177,337.950 217.700,344.417 217.163 C 347.541 216.904,347.971 216.632,346.250 216.002 C 334.186 211.592,319.289 226.235,324.670 237.215 C 335.138 258.575,376.436 238.798,373.342 213.907 C 372.029 203.334,367.605 198.308,344.268 180.873 C 332.485 172.070,331.024 167.977,337.536 162.025 C 346.016 154.275,360.293 156.678,359.228 165.676 C 358.885 168.573,360.051 169.040,360.952 166.367 C 363.515 158.756,353.360 152.275,343.825 155.437 M115.145 168.772 C 127.440 174.880,143.388 182.792,150.584 186.354 C 157.780 189.916,163.618 192.979,163.557 193.161 C 163.497 193.342,162.235 193.764,160.753 194.097 L 158.058 194.704 145.946 188.473 C 139.284 185.047,132.033 181.311,129.833 180.171 C 127.633 179.032,122.533 176.408,118.500 174.340 C 114.467 172.273,109.817 169.868,108.167 168.996 C 106.517 168.125,101.417 165.499,96.833 163.161 C 86.821 158.054,87.475 158.530,89.733 157.995 C 92.230 157.404,92.446 157.496,115.145 168.772 M254.746 158.417 C 250.558 163.611,244.275 186.000,237.144 221.140 C 235.798 227.775,235.894 226.846,236.494 227.447 C 237.924 228.876,238.617 227.651,239.981 221.282 C 240.545 218.652,242.137 211.250,243.519 204.833 C 244.900 198.417,246.115 192.766,246.219 192.277 C 246.385 191.487,246.526 191.406,247.476 191.561 C 248.168 191.673,250.538 191.196,254.189 190.209 C 262.565 187.945,272.000 185.721,272.000 186.009 C 272.000 186.149,271.259 189.466,270.353 193.381 C 267.061 207.618,263.537 230.396,264.372 232.044 C 265.424 234.119,267.197 232.730,267.492 229.599 C 268.829 215.403,271.171 202.893,277.119 178.167 C 280.382 164.601,280.862 161.607,279.833 161.213 C 278.969 160.881,278.352 161.360,278.023 162.618 C 277.848 163.286,276.707 167.805,275.486 172.658 C 272.828 183.234,274.131 181.922,263.667 184.556 C 255.626 186.579,248.574 188.730,247.742 189.413 C 246.537 190.402,247.591 185.605,251.899 170.500 C 254.314 162.032,255.372 158.000,255.178 158.000 C 255.125 158.000,254.930 158.188,254.746 158.417 M293.209 162.395 C 292.939 163.370,291.141 169.792,289.211 176.667 C 281.298 204.859,277.446 223.399,279.148 225.100 C 280.600 226.553,281.278 225.471,282.040 220.488 C 283.425 211.426,288.100 189.980,289.312 187.127 C 289.727 186.152,292.933 185.057,301.833 182.852 C 305.867 181.853,310.135 180.733,311.319 180.364 C 313.935 179.549,313.805 178.984,312.272 184.500 C 306.863 203.976,304.064 217.411,303.038 228.833 C 302.706 232.523,302.910 233.333,304.171 233.333 C 305.468 233.333,305.905 232.186,306.329 227.667 C 307.098 219.462,309.435 207.395,312.783 194.333 C 313.606 191.125,315.262 184.675,316.465 180.000 C 320.103 165.859,320.761 161.667,319.343 161.667 C 318.614 161.667,318.480 162.046,315.894 171.469 C 314.451 176.729,314.432 176.771,313.470 176.824 C 311.902 176.908,295.485 181.262,292.797 182.305 C 291.442 182.831,290.333 183.192,290.333 183.107 C 290.333 183.022,291.070 180.076,291.971 176.560 C 294.996 164.748,295.544 160.973,294.266 160.731 C 293.833 160.649,293.581 161.045,293.209 162.395 M81.056 162.695 C 83.124 163.739,83.429 163.762,86.333 163.097 C 87.909 162.736,86.734 163.376,84.951 163.849 C 83.321 164.282,78.333 162.741,78.333 161.804 C 78.333 161.468,79.164 161.740,81.056 162.695 M74.490 164.098 C 75.984 164.974,76.337 165.048,78.074 164.852 C 80.502 164.577,80.566 164.835,78.192 165.328 C 76.248 165.732,74.390 165.110,72.330 163.368 C 71.217 162.426,72.213 162.762,74.490 164.098 M68.305 165.455 C 69.939 166.311,70.262 166.370,71.721 166.081 C 73.220 165.785,74.053 166.086,72.750 166.453 C 70.498 167.087,70.082 167.033,67.877 165.821 C 64.227 163.814,64.586 163.506,68.305 165.455 M90.990 166.638 C 93.428 166.115,93.857 166.465,91.499 167.054 L 89.500 167.553 87.083 166.370 C 85.754 165.719,84.667 165.068,84.667 164.923 C 84.667 164.777,85.712 165.185,86.989 165.828 C 89.199 166.941,89.394 166.980,90.990 166.638 M61.536 166.841 C 63.333 167.923,63.645 168.003,65.493 167.852 L 67.500 167.687 65.678 168.157 L 63.856 168.627 61.597 167.397 C 60.354 166.720,59.337 166.054,59.336 165.917 C 59.332 165.534,59.445 165.582,61.536 166.841 M83.116 168.333 C 83.578 168.333,84.366 168.178,84.866 167.988 C 85.396 167.786,85.899 167.765,86.071 167.938 C 86.244 168.111,85.580 168.393,84.477 168.614 C 82.579 168.995,78.000 167.333,78.000 166.263 C 78.000 166.087,78.962 166.481,80.137 167.138 C 81.313 167.795,82.653 168.333,83.116 168.333 M74.246 168.758 C 75.735 169.539,76.274 169.649,77.912 169.510 L 79.833 169.346 78.500 169.814 C 76.552 170.498,76.239 170.452,73.846 169.137 C 70.259 167.165,70.598 166.845,74.246 168.758 M93.599 169.141 C 95.417 170.106,95.864 170.217,96.933 169.969 C 97.611 169.812,98.542 169.697,99.000 169.714 C 99.458 169.731,98.891 169.966,97.740 170.237 L 95.647 170.729 93.323 169.639 C 92.046 169.039,91.000 168.425,91.000 168.274 C 91.000 167.834,91.376 167.960,93.599 169.141 M67.301 170.200 C 69.228 171.349,69.407 171.391,71.408 171.163 C 73.886 170.881,73.855 171.188,71.358 171.662 C 69.646 171.987,65.936 170.579,65.150 169.306 C 64.835 168.797,65.197 168.947,67.301 170.200 M86.588 170.537 C 88.792 171.769,89.258 171.820,92.000 171.121 C 92.609 170.967,92.740 171.011,92.486 171.285 C 91.189 172.689,85.334 171.555,84.172 169.675 C 83.813 169.095,84.354 169.287,86.588 170.537 M80.040 172.020 C 81.827 172.922,82.279 173.017,83.947 172.836 C 86.107 172.602,85.705 173.115,83.434 173.489 C 82.182 173.695,77.667 171.855,77.667 171.138 C 77.667 170.871,78.037 171.009,80.040 172.020 M99.804 172.375 C 101.762 173.435,102.613 173.499,105.333 172.793 C 105.902 172.645,106.061 172.685,105.833 172.919 C 104.500 174.292,97.333 173.092,97.333 171.496 C 97.333 171.151,97.951 171.371,99.804 172.375 M73.353 173.710 C 74.945 174.690,75.185 174.741,77.274 174.544 C 79.753 174.310,79.480 174.776,76.922 175.145 C 75.504 175.349,71.000 173.570,71.000 172.805 C 71.000 172.447,71.801 172.756,73.353 173.710 M92.894 173.879 C 95.040 175.080,95.081 175.088,96.890 174.683 C 98.497 174.324,99.865 174.412,98.631 174.795 C 95.532 175.758,92.235 175.056,90.598 173.084 C 90.030 172.400,90.603 172.598,92.894 173.879 M86.054 175.361 C 87.878 176.281,88.302 176.368,90.128 176.193 C 92.340 175.981,91.866 176.408,89.434 176.817 C 88.182 177.028,83.667 175.192,83.667 174.471 C 83.667 174.204,84.037 174.343,86.054 175.361 M105.875 175.535 L 108.024 176.738 110.194 176.328 C 113.096 175.781,113.293 176.123,110.444 176.762 L 108.187 177.268 105.952 176.142 C 104.722 175.523,103.621 174.863,103.505 174.675 C 103.154 174.107,103.626 174.278,105.875 175.535 M79.249 177.170 C 81.137 178.294,81.280 178.326,82.985 178.003 C 85.171 177.588,85.645 177.585,85.003 177.991 C 83.242 179.104,76.667 177.642,76.667 176.138 C 76.667 175.784,77.443 176.094,79.249 177.170 M99.048 177.215 C 101.198 178.345,101.451 178.404,102.636 178.049 C 104.002 177.639,105.578 177.533,105.238 177.874 C 105.124 177.987,104.164 178.282,103.104 178.528 L 101.178 178.976 99.006 177.791 C 97.811 177.139,96.691 176.469,96.517 176.303 C 95.888 175.702,96.780 176.023,99.048 177.215 M92.045 178.689 C 93.887 179.619,94.272 179.695,96.286 179.519 C 98.819 179.297,98.127 179.829,95.420 180.184 C 94.002 180.370,93.625 180.266,91.873 179.208 C 88.742 177.317,88.826 177.064,92.045 178.689 M112.331 178.832 L 114.645 179.997 116.656 179.528 C 117.762 179.270,118.667 179.183,118.667 179.335 C 118.667 179.610,115.815 180.334,114.734 180.333 C 114.007 180.333,110.152 178.516,109.854 178.033 C 109.505 177.469,109.835 177.575,112.331 178.832 M84.971 180.509 C 86.940 181.663,87.015 181.679,89.052 181.351 C 91.071 181.026,92.206 181.120,90.623 181.481 C 86.918 182.327,87.087 182.337,85.090 181.134 C 84.054 180.510,83.085 180.000,82.936 180.000 C 82.788 180.000,82.667 179.850,82.667 179.667 C 82.667 179.181,82.768 179.219,84.971 180.509 M105.329 180.521 L 107.588 181.708 109.530 181.201 C 111.442 180.702,112.264 180.758,111.345 181.326 C 109.458 182.492,103.898 181.389,102.812 179.632 C 102.494 179.118,102.998 179.296,105.329 180.521 M98.258 182.106 C 99.988 182.959,100.728 183.158,101.500 182.978 C 102.050 182.850,102.950 182.744,103.500 182.741 C 104.851 182.735,102.335 183.602,100.887 183.641 C 100.083 183.663,95.667 181.545,95.667 181.138 C 95.667 180.872,96.036 181.009,98.258 182.106 M118.791 182.155 L 120.857 183.311 122.678 182.826 C 124.783 182.266,125.447 182.214,125.190 182.628 C 124.478 183.781,120.766 183.725,118.382 182.524 C 117.072 181.865,116.000 181.252,116.000 181.162 C 116.000 180.771,116.867 181.079,118.791 182.155 M74.772 183.027 C 80.325 186.474,85.469 189.907,85.580 190.241 C 85.752 190.755,85.214 190.888,78.419 192.008 C 74.980 192.576,71.853 193.116,71.470 193.209 C 70.986 193.327,69.815 192.729,67.637 191.252 C 62.657 187.875,60.030 185.985,59.800 185.612 C 59.467 185.073,60.388 185.643,65.500 189.141 C 70.771 192.747,70.502 192.678,75.920 191.819 C 79.260 191.289,84.432 190.310,84.587 190.178 C 84.635 190.137,83.066 189.068,81.101 187.802 C 79.135 186.536,76.321 184.713,74.848 183.750 C 72.684 182.337,71.976 182.034,71.168 182.176 C 67.942 182.742,61.017 183.517,61.247 183.286 C 61.397 183.136,63.690 182.697,66.343 182.310 C 68.996 181.923,71.229 181.545,71.306 181.470 C 71.618 181.163,72.166 181.409,74.772 183.027 M90.712 183.859 C 92.761 185.017,92.881 185.043,94.911 184.751 C 97.644 184.358,97.616 184.771,94.875 185.276 L 92.750 185.668 90.804 184.496 C 87.417 182.457,87.345 181.956,90.712 183.859 M111.555 183.827 L 113.665 184.987 115.695 184.467 C 117.746 183.941,118.791 184.049,117.266 184.629 C 114.481 185.688,113.052 185.444,109.564 183.318 C 107.727 182.198,109.342 182.610,111.555 183.827 M127.489 186.329 C 127.862 186.327,128.954 186.116,129.917 185.860 C 130.879 185.603,131.667 185.527,131.667 185.690 C 131.667 185.989,131.476 186.049,128.590 186.664 C 126.922 187.019,122.948 185.547,122.513 184.412 C 122.414 184.155,123.309 184.474,124.575 185.146 C 125.805 185.799,127.116 186.332,127.489 186.329 M104.185 185.473 C 106.022 186.483,106.406 186.579,107.546 186.315 C 109.802 185.791,111.135 185.973,109.167 186.536 C 106.617 187.265,106.000 187.185,103.750 185.837 C 102.604 185.151,101.667 184.531,101.667 184.461 C 101.667 184.170,102.217 184.392,104.185 185.473 M117.828 187.151 L 119.887 188.303 121.694 187.822 C 123.811 187.259,124.604 187.200,124.150 187.641 C 122.500 189.245,118.897 188.747,115.509 186.446 C 114.143 185.519,115.821 186.029,117.828 187.151 M96.714 187.361 C 98.335 188.317,98.621 188.376,100.812 188.212 L 103.167 188.035 101.010 188.563 L 98.852 189.090 96.736 187.961 C 95.572 187.341,94.546 186.721,94.457 186.583 C 94.113 186.055,95.040 186.374,96.714 187.361 M131.210 188.537 L 133.363 189.740 135.500 189.204 C 137.987 188.579,138.000 188.577,138.000 188.954 C 138.000 189.111,136.987 189.461,135.750 189.731 L 133.500 190.221 131.083 189.037 C 129.754 188.386,128.667 187.737,128.667 187.594 C 128.667 187.168,128.954 187.275,131.210 188.537 M110.233 188.833 C 112.176 189.901,112.472 189.972,113.760 189.674 C 115.356 189.306,116.879 189.232,116.574 189.538 C 116.461 189.650,115.430 189.938,114.281 190.178 L 112.193 190.613 109.930 189.269 C 108.685 188.529,107.667 187.866,107.667 187.795 C 107.667 187.503,108.219 187.726,110.233 188.833 M127.833 191.122 C 128.750 190.879,129.800 190.681,130.167 190.683 C 131.313 190.690,130.052 191.228,127.800 191.693 L 125.766 192.113 123.564 190.882 C 120.442 189.136,120.434 188.710,123.551 190.263 C 126.141 191.552,126.183 191.561,127.833 191.122 M102.623 190.784 C 104.462 191.767,104.882 191.869,106.107 191.632 C 108.028 191.260,109.432 191.268,108.500 191.646 C 106.265 192.551,104.504 192.414,102.221 191.160 C 101.000 190.488,100.000 189.878,100.000 189.803 C 100.000 189.487,100.650 189.730,102.623 190.784 M137.591 191.847 L 139.738 193.027 141.504 192.513 C 143.531 191.924,145.142 191.815,144.341 192.322 C 142.064 193.761,136.369 192.945,135.171 191.007 C 134.815 190.431,135.359 190.620,137.591 191.847 M116.174 192.158 L 118.245 193.317 120.623 192.864 C 123.706 192.276,123.718 192.765,120.637 193.461 L 118.274 193.995 115.971 192.626 C 114.703 191.873,113.667 191.199,113.667 191.129 C 113.667 190.836,114.207 191.058,116.174 192.158 M134.406 194.320 C 137.472 193.741,137.615 194.111,134.611 194.847 L 132.191 195.440 129.762 194.140 C 126.616 192.455,126.596 191.954,129.738 193.536 L 132.142 194.747 134.406 194.320 M108.360 194.182 C 110.349 195.306,110.529 195.347,112.075 195.015 C 113.776 194.650,115.223 194.555,114.953 194.825 C 114.866 194.912,113.781 195.196,112.544 195.455 L 110.293 195.927 108.409 194.792 C 105.085 192.791,105.046 192.309,108.360 194.182 M144.040 195.163 L 146.088 196.257 148.406 195.601 C 149.680 195.240,150.798 195.020,150.890 195.112 C 151.174 195.396,149.926 195.882,147.772 196.325 L 145.710 196.748 143.537 195.533 C 139.822 193.455,140.253 193.139,144.040 195.163 M122.842 195.856 C 124.223 196.665,124.395 196.688,126.285 196.316 C 129.204 195.742,129.581 196.137,126.737 196.790 L 124.307 197.347 121.987 195.992 C 120.711 195.247,119.667 194.573,119.667 194.494 C 119.667 194.253,121.307 194.956,122.842 195.856 M137.177 197.489 C 138.012 197.978,138.705 198.177,139.010 198.014 C 139.279 197.870,140.100 197.650,140.833 197.525 C 141.567 197.400,142.448 197.215,142.792 197.113 C 143.161 197.004,143.333 197.065,143.211 197.261 C 143.098 197.444,141.958 197.850,140.676 198.164 L 138.347 198.735 136.090 197.504 C 134.849 196.826,133.683 196.122,133.500 195.939 C 133.038 195.476,135.545 196.533,137.177 197.489 M114.497 197.769 C 116.140 198.732,116.190 198.739,118.436 198.338 C 122.204 197.665,121.804 198.231,117.976 198.988 C 116.137 199.352,113.550 198.362,111.846 196.642 C 111.314 196.106,112.576 196.642,114.497 197.769 M128.553 199.072 C 130.223 200.002,130.337 200.019,132.457 199.650 C 135.583 199.105,135.870 199.418,132.889 200.121 L 130.367 200.716 128.017 199.343 C 124.579 197.335,125.028 197.108,128.553 199.072 M120.057 201.033 C 121.880 202.108,122.361 202.140,126.130 201.438 C 126.798 201.314,127.048 201.359,126.833 201.566 C 126.650 201.742,125.499 202.076,124.276 202.307 L 122.052 202.729 119.860 201.502 C 118.653 200.828,117.667 200.214,117.667 200.138 C 117.667 199.791,118.441 200.081,120.057 201.033 " stroke="none" fill="#251519" fill-rule="evenodd"></path><path id="path2" d="M113.747 104.135 C 113.875 106.184,114.159 107.455,114.805 108.866 C 115.573 110.542,115.621 110.832,115.178 111.081 C 113.877 111.809,114.686 112.873,118.918 116.000 C 121.940 118.233,123.333 121.119,123.261 125.000 C 123.239 126.192,123.421 127.879,123.666 128.750 C 124.210 130.679,124.208 130.681,121.683 130.910 C 118.433 131.204,116.197 132.701,116.070 134.668 C 116.017 135.492,115.754 136.639,115.487 137.217 C 114.839 138.616,114.873 139.436,115.618 140.357 L 116.237 141.120 116.868 140.367 C 118.455 138.475,120.396 138.218,122.440 139.628 C 126.030 142.104,126.066 144.034,122.547 145.327 C 120.549 146.060,120.174 146.335,119.584 147.500 C 118.547 149.546,118.276 149.559,112.947 147.805 C 110.128 146.878,108.271 147.005,108.053 148.140 C 107.882 149.028,108.624 149.649,109.020 148.948 C 109.557 147.996,112.536 149.307,112.397 150.436 C 112.261 151.540,112.883 151.876,113.698 151.139 C 114.213 150.672,114.548 150.613,115.260 150.863 C 116.875 151.428,116.499 154.000,114.802 154.000 C 114.326 154.000,114.050 154.145,114.167 154.333 C 114.911 155.537,118.000 154.138,118.000 152.597 L 118.000 151.604 119.641 151.830 C 122.289 152.194,124.188 152.092,125.280 151.528 C 128.283 149.975,129.141 151.891,126.541 154.342 C 126.031 154.823,125.576 155.702,125.451 156.451 L 125.237 157.736 122.715 157.500 C 121.327 157.370,119.854 157.135,119.441 156.978 C 118.992 156.807,118.611 156.821,118.492 157.013 C 118.383 157.189,117.939 157.333,117.505 157.333 C 116.088 157.333,114.686 159.753,115.917 160.075 C 116.882 160.327,117.161 160.198,117.051 159.551 C 116.965 159.038,117.104 158.968,117.890 159.129 C 118.409 159.235,119.354 159.407,119.990 159.512 C 121.560 159.770,121.592 159.860,120.506 160.994 C 119.245 162.310,120.170 162.826,121.727 161.675 C 122.535 161.077,123.002 160.968,124.041 161.135 C 125.205 161.321,125.384 161.254,125.725 160.505 C 126.171 159.526,126.356 159.504,128.530 160.163 C 131.412 161.037,132.255 160.876,132.872 159.333 C 133.581 157.561,133.983 157.651,135.124 159.834 C 135.864 161.251,136.257 161.667,136.852 161.667 C 138.160 161.667,139.331 162.283,139.658 163.144 C 139.873 163.709,140.375 164.075,141.266 164.315 C 141.978 164.507,142.845 164.978,143.193 165.363 C 144.282 166.566,144.860 166.716,145.965 166.082 L 146.979 165.500 147.980 166.667 C 148.772 167.590,149.045 167.737,149.290 167.369 C 149.477 167.087,149.890 166.981,150.338 167.098 C 150.744 167.204,151.351 167.120,151.686 166.910 C 152.165 166.612,152.426 166.642,152.898 167.053 C 153.229 167.341,154.175 167.672,155.000 167.787 C 155.825 167.903,156.998 168.084,157.606 168.189 C 158.946 168.421,160.237 167.682,160.392 166.595 C 160.456 166.152,160.776 165.791,161.167 165.721 C 162.349 165.510,162.402 165.114,161.491 163.315 C 160.490 161.340,160.567 161.415,155.500 157.497 C 147.340 151.189,146.696 150.476,147.472 148.619 C 148.462 146.248,148.905 146.243,150.550 148.583 C 151.173 149.470,151.575 149.520,152.364 148.805 C 152.897 148.323,153.052 148.327,154.148 148.847 C 155.189 149.341,155.546 149.360,156.850 148.995 C 157.676 148.764,158.448 148.671,158.566 148.788 C 158.683 148.905,159.016 148.797,159.306 148.546 C 160.173 147.798,161.843 147.662,163.827 148.179 C 165.644 148.652,165.743 148.642,167.263 147.833 C 168.124 147.375,169.028 147.000,169.271 147.000 C 171.319 147.000,176.567 140.984,175.712 139.616 C 175.066 138.581,175.282 138.093,176.776 137.218 C 179.002 135.913,181.402 132.082,180.475 131.313 C 179.804 130.756,179.885 130.000,180.615 130.000 C 181.526 130.000,182.326 128.934,182.254 127.816 C 182.219 127.276,182.298 126.431,182.429 125.939 C 182.624 125.210,182.540 125.005,181.972 124.825 C 181.434 124.654,181.322 124.422,181.478 123.802 C 181.625 123.219,181.541 123.000,181.173 123.000 C 180.350 123.000,180.595 122.062,181.583 121.429 C 183.102 120.456,183.295 120.183,182.927 119.524 C 182.699 119.118,182.711 118.668,182.963 118.115 C 183.485 116.970,183.453 116.882,182.333 116.387 C 181.783 116.143,181.333 115.764,181.333 115.544 C 181.333 115.324,181.783 114.878,182.333 114.553 C 183.391 113.929,183.683 113.000,182.823 113.000 C 182.206 113.000,180.419 113.794,179.498 114.477 C 178.220 115.425,177.886 114.569,178.990 113.179 C 181.011 110.636,180.096 109.672,177.884 112.014 C 175.113 114.951,174.599 114.171,176.796 110.363 C 178.566 107.294,179.285 105.152,178.731 104.597 C 178.120 103.986,177.195 105.080,175.612 108.286 C 172.782 114.015,171.068 115.604,172.174 111.473 C 172.465 110.388,172.790 108.147,172.896 106.494 C 173.214 101.540,171.459 101.557,170.779 106.516 C 170.666 107.342,170.445 108.098,170.287 108.195 C 170.129 108.293,169.999 108.851,169.998 109.436 C 169.994 111.788,168.225 115.667,167.157 115.667 C 166.454 115.667,166.319 114.195,166.839 112.198 C 167.347 110.250,167.490 107.463,167.131 106.527 C 166.623 105.205,165.333 106.442,165.333 108.252 C 165.333 108.781,165.125 109.879,164.871 110.691 C 164.415 112.147,163.897 114.096,162.837 118.333 C 162.490 119.719,161.943 120.890,161.319 121.583 C 160.116 122.918,159.226 123.042,159.530 121.833 C 160.138 119.411,157.883 121.309,155.569 125.167 C 153.312 128.932,149.479 131.178,145.505 131.066 C 144.659 131.043,143.689 131.313,142.838 131.810 C 142.102 132.239,140.640 132.767,139.589 132.984 C 138.538 133.201,137.592 133.518,137.486 133.689 C 137.275 134.031,135.893 134.115,135.582 133.804 C 135.475 133.697,135.627 132.962,135.920 132.170 C 136.413 130.841,136.411 130.668,135.893 129.878 C 135.568 129.382,135.333 128.362,135.333 127.444 C 135.333 126.140,135.159 125.685,134.329 124.829 C 133.175 123.638,132.768 120.889,133.663 120.335 C 134.455 119.846,133.130 118.667,131.790 118.667 C 130.740 118.667,130.700 118.623,131.008 117.812 C 131.594 116.271,131.392 115.866,129.659 115.105 C 128.068 114.406,128.000 114.322,128.000 113.044 C 128.000 112.032,127.849 111.664,127.372 111.512 C 127.027 111.403,126.281 110.871,125.715 110.330 C 125.150 109.789,124.477 109.427,124.220 109.525 C 123.934 109.636,123.681 109.425,123.564 108.978 C 123.398 108.343,123.223 108.280,122.173 108.477 L 120.972 108.702 121.196 107.018 C 121.447 105.120,120.850 104.686,119.910 106.083 C 119.165 107.193,118.954 106.669,119.335 104.657 C 119.889 101.736,118.534 101.443,117.204 104.197 C 116.523 105.607,116.077 105.269,116.023 103.302 C 115.997 102.318,115.073 101.333,114.177 101.333 C 113.628 101.333,113.589 101.588,113.747 104.135 M271.686 252.476 C 270.794 253.551,272.092 255.196,273.250 254.458 C 273.709 254.166,273.920 252.763,273.551 252.458 C 273.086 252.074,272.012 252.084,271.686 252.476 M72.750 252.554 C 72.253 252.755,72.135 273.171,72.629 273.477 C 73.324 273.906,73.596 272.595,73.581 268.884 C 73.562 264.128,73.346 264.345,78.097 264.338 C 83.010 264.331,84.821 263.430,85.817 260.497 C 87.032 256.920,85.426 253.649,81.968 252.658 C 80.820 252.328,73.513 252.246,72.750 252.554 M82.296 253.981 C 85.875 255.807,85.761 260.929,82.100 262.791 C 80.747 263.479,74.191 263.578,73.780 262.917 C 73.503 262.470,73.333 254.445,73.586 253.750 C 73.856 253.010,80.750 253.192,82.296 253.981 M102.833 258.992 C 101.344 259.328,100.404 259.918,100.167 260.666 C 99.856 261.647,99.346 261.479,99.114 260.320 C 99.003 259.763,98.744 259.363,98.539 259.431 C 97.902 259.644,98.028 273.500,98.667 273.500 C 99.082 273.500,99.197 272.625,99.344 268.333 C 99.468 264.723,99.669 262.889,100.011 262.244 C 100.561 261.208,102.969 259.881,103.753 260.182 C 104.452 260.450,104.854 259.702,104.289 259.185 C 104.002 258.921,103.463 258.850,102.833 258.992 M120.167 259.210 C 115.607 260.308,112.998 266.395,115.469 270.167 C 115.761 270.612,116.000 271.125,116.000 271.306 C 116.000 273.247,122.241 274.905,124.528 273.572 C 125.738 272.866,127.000 271.750,127.000 271.385 C 127.000 271.192,127.198 270.913,127.440 270.767 C 128.142 270.341,128.857 265.850,128.387 264.818 C 128.174 264.351,127.998 263.713,127.995 263.401 C 127.989 262.836,126.892 261.485,125.324 260.113 C 124.490 259.383,121.570 258.872,120.167 259.210 M168.167 259.379 C 167.800 259.576,167.163 260.134,166.752 260.619 L 166.003 261.500 166.002 260.573 C 166.000 259.582,165.109 258.950,164.684 259.638 C 164.395 260.106,164.254 272.217,164.527 273.083 C 164.629 273.404,165.001 273.667,165.356 273.667 C 165.962 273.667,166.000 273.387,166.007 268.917 C 166.017 262.439,166.731 260.813,169.737 260.420 C 171.134 260.238,171.788 259.799,171.458 259.266 C 171.220 258.880,168.948 258.959,168.167 259.379 M185.500 259.245 C 180.310 260.549,179.389 270.381,184.180 273.342 C 186.496 274.773,190.117 274.277,191.985 272.273 L 192.667 271.541 192.667 272.584 C 192.667 273.810,193.271 274.326,193.823 273.571 C 194.600 272.508,194.302 259.500,193.500 259.500 C 193.021 259.500,192.804 259.757,192.728 260.417 C 192.601 261.519,192.515 261.534,191.569 260.627 C 190.115 259.233,187.720 258.687,185.500 259.245 M210.667 259.374 C 210.208 259.556,209.421 260.099,208.917 260.581 L 208.000 261.458 208.000 260.373 C 208.000 259.437,207.896 259.302,207.250 259.393 C 205.829 259.595,206.067 274.000,207.492 274.000 C 207.924 274.000,208.000 273.277,208.000 269.176 C 208.000 262.749,209.134 260.333,212.151 260.333 C 215.101 260.333,215.739 261.695,215.979 268.500 C 216.135 272.935,216.251 273.833,216.667 273.833 C 217.080 273.833,217.199 272.992,217.352 269.000 C 217.619 262.005,218.821 259.953,222.371 260.429 C 224.892 260.768,225.333 261.968,225.333 268.496 C 225.333 273.715,225.516 274.483,226.552 273.624 C 227.327 272.980,227.059 262.997,226.224 261.420 C 224.675 258.491,220.340 258.219,217.984 260.903 C 216.887 262.152,216.872 262.150,215.962 260.555 C 215.234 259.279,212.461 258.660,210.667 259.374 M243.333 259.374 C 242.875 259.556,242.088 260.099,241.583 260.581 L 240.667 261.458 240.667 260.373 C 240.667 259.437,240.563 259.302,239.917 259.393 L 239.167 259.500 239.253 266.475 C 239.344 273.839,239.347 273.861,240.152 273.552 C 240.579 273.388,240.667 272.622,240.667 269.055 C 240.667 262.857,241.905 260.333,244.945 260.333 C 247.790 260.333,248.440 261.762,248.660 268.496 C 248.814 273.227,248.899 273.838,249.417 273.937 C 249.948 274.039,250.000 273.662,250.000 269.696 C 250.000 265.601,250.474 262.333,251.069 262.333 C 251.214 262.333,251.333 262.141,251.333 261.905 C 251.333 260.582,255.237 259.843,256.500 260.928 C 257.776 262.023,258.000 263.151,258.000 268.496 C 258.000 272.008,258.121 273.702,258.384 273.865 C 260.409 275.116,260.095 262.576,258.046 260.383 C 256.431 258.654,250.667 258.918,250.667 260.720 C 250.667 260.900,250.428 261.286,250.136 261.578 C 249.571 262.143,249.512 262.103,248.629 260.555 C 247.900 259.279,245.128 258.660,243.333 259.374 M290.443 259.283 C 290.045 259.402,289.259 259.912,288.696 260.417 C 287.414 261.564,287.333 261.559,287.333 260.333 C 287.333 259.323,286.034 258.765,285.975 259.750 C 285.808 262.508,286.061 273.528,286.296 273.763 C 287.089 274.556,287.333 273.479,287.333 269.188 C 287.333 262.769,288.678 260.333,292.221 260.333 C 295.426 260.333,296.345 262.111,296.433 268.486 C 296.499 273.213,296.763 274.392,297.638 273.851 C 298.209 273.498,298.117 263.694,297.529 262.291 C 296.421 259.646,293.447 258.383,290.443 259.283 M142.833 259.967 C 136.466 262.924,138.426 274.000,145.316 274.000 C 146.617 274.000,148.933 273.067,149.810 272.190 L 150.500 271.500 150.599 273.570 C 150.783 277.430,149.134 279.333,145.604 279.333 C 143.023 279.333,141.683 278.649,140.990 276.977 C 140.232 275.147,138.910 275.850,139.620 277.706 C 140.420 279.798,142.694 280.784,146.287 280.595 L 149.123 280.446 150.524 278.899 L 151.925 277.352 151.983 273.593 C 152.014 271.525,152.094 267.813,152.159 265.343 C 152.271 261.114,152.060 259.667,151.331 259.667 C 151.159 259.667,150.895 260.147,150.743 260.733 C 150.467 261.796,150.464 261.797,149.785 261.150 C 147.841 259.295,145.236 258.851,142.833 259.967 M272.000 266.642 C 272.000 273.801,272.018 274.000,272.673 274.000 C 273.649 274.000,273.560 259.584,272.583 259.397 C 272.042 259.293,272.000 259.814,272.000 266.642 M313.667 259.704 C 312.304 260.108,310.000 262.209,310.000 263.048 C 310.000 263.367,309.850 263.720,309.667 263.833 C 309.019 264.234,309.279 268.762,310.040 270.338 C 311.927 274.243,317.213 275.168,320.256 272.125 C 320.955 271.426,321.343 271.891,321.173 273.224 C 320.779 276.300,320.592 277.175,320.307 277.278 C 320.138 277.339,320.000 277.569,320.000 277.789 C 320.000 278.603,317.930 279.441,315.846 279.471 C 313.485 279.505,311.995 278.617,311.281 276.750 C 310.849 275.622,310.112 275.321,309.796 276.143 C 308.351 279.909,317.623 282.392,320.746 279.076 C 322.858 276.834,323.786 260.000,321.798 260.000 C 321.542 260.000,321.333 260.291,321.333 260.647 C 321.333 261.636,320.781 261.762,320.020 260.945 C 319.642 260.539,319.333 260.334,319.333 260.489 C 319.333 260.643,319.035 260.500,318.670 260.170 C 317.876 259.451,315.323 259.213,313.667 259.704 M124.403 261.066 C 125.679 261.679,127.078 264.568,127.073 266.581 C 127.070 268.211,126.159 271.000,125.630 271.000 C 125.467 271.000,125.333 271.190,125.333 271.421 C 125.333 272.234,122.670 273.077,120.829 272.847 C 116.119 272.259,114.307 265.427,117.906 261.827 C 119.456 260.277,122.114 259.965,124.403 261.066 M189.434 260.642 C 194.050 262.396,193.811 271.134,189.105 272.687 C 185.440 273.897,182.569 271.246,182.569 266.655 C 182.569 261.908,185.655 259.205,189.434 260.642 M148.083 261.153 C 151.548 262.601,151.520 270.744,148.045 272.196 C 143.357 274.155,139.782 270.658,140.648 264.957 C 141.178 261.462,144.615 259.704,148.083 261.153 M317.833 261.000 C 317.947 261.183,318.266 261.333,318.543 261.333 C 319.930 261.333,321.608 265.383,321.142 267.605 C 321.001 268.281,320.872 268.908,320.857 269.000 C 320.722 269.790,319.502 271.742,319.058 271.878 C 318.751 271.972,318.240 272.188,317.921 272.358 C 313.345 274.801,308.615 267.735,311.606 262.924 C 312.773 261.048,317.047 259.727,317.833 261.000 M163.995 283.347 C 156.412 284.590,154.769 299.753,161.724 304.306 C 164.173 305.909,169.102 305.698,171.201 303.899 C 172.130 303.103,173.477 300.188,173.222 299.525 C 172.873 298.615,172.439 298.944,171.527 300.807 C 169.744 304.452,164.627 305.313,161.417 302.507 C 161.004 302.147,160.667 301.660,160.667 301.426 C 160.667 301.192,160.534 301.000,160.372 301.000 C 159.100 301.000,158.357 291.858,159.451 289.665 C 159.753 289.060,160.000 288.394,160.000 288.185 C 160.000 287.976,160.676 287.142,161.503 286.330 C 164.447 283.441,169.540 284.096,171.207 287.577 C 172.419 290.107,173.691 290.387,173.168 288.008 C 172.472 284.839,168.185 282.661,163.995 283.347 M185.733 283.733 C 185.088 284.379,185.167 304.957,185.816 305.206 C 187.076 305.690,187.169 304.927,187.107 294.628 C 187.040 283.399,186.931 282.536,185.733 283.733 M224.000 294.309 C 224.000 305.111,224.013 305.333,224.667 305.333 C 225.213 305.333,225.333 305.111,225.333 304.104 L 225.333 302.874 226.052 303.645 C 227.825 305.549,230.971 306.067,233.627 304.894 C 238.374 302.796,238.191 293.542,233.352 291.002 C 231.553 290.057,227.540 290.712,226.352 292.145 C 225.502 293.169,225.351 292.608,225.259 288.087 C 225.177 284.034,225.100 283.495,224.583 283.396 C 224.037 283.292,224.000 283.989,224.000 294.309 M199.567 290.877 C 198.966 291.479,199.323 300.685,200.009 302.272 C 201.470 305.652,206.709 306.641,209.024 303.973 C 209.715 303.175,209.997 303.237,210.139 304.219 C 210.187 304.557,210.548 304.881,210.939 304.939 C 211.839 305.072,212.044 291.728,211.153 290.989 C 210.205 290.202,210.000 291.031,210.000 295.644 C 210.000 300.425,209.497 302.286,207.832 303.668 C 207.223 304.173,203.233 304.200,203.067 303.700 C 202.999 303.498,202.747 303.333,202.505 303.333 C 201.674 303.333,201.238 301.158,201.036 296.004 C 200.835 290.887,200.551 289.894,199.567 290.877 M232.179 292.109 C 237.082 294.005,236.797 302.471,231.771 304.207 C 228.390 305.374,225.333 302.437,225.333 298.022 C 225.333 293.378,228.465 290.673,232.179 292.109 " stroke="none" fill="#b6993f" fill-rule="evenodd"></path><path id="path3" d="M71.833 181.908 C 72.200 181.998,72.725 182.243,73.000 182.453 C 73.435 182.784,73.440 182.757,73.043 182.250 C 72.791 181.929,72.266 181.684,71.876 181.705 C 71.202 181.742,71.200 181.752,71.833 181.908 M79.361 186.434 C 79.438 186.490,79.950 186.799,80.500 187.121 L 81.500 187.706 80.713 187.020 C 80.280 186.642,79.768 186.333,79.574 186.333 C 79.381 186.333,79.285 186.379,79.361 186.434 M81.667 187.826 C 81.667 187.897,82.117 188.275,82.667 188.667 C 83.217 189.058,83.666 189.256,83.665 189.106 C 83.663 188.956,83.213 188.578,82.665 188.266 C 82.116 187.953,81.667 187.755,81.667 187.826 M63.361 188.104 C 65.075 189.387,67.000 190.685,67.000 190.557 C 67.000 190.324,63.803 188.000,63.483 188.000 C 63.340 188.000,63.285 188.047,63.361 188.104 M273.473 267.333 C 273.473 270.908,273.522 272.371,273.582 270.583 C 273.642 268.796,273.642 265.871,273.582 264.083 C 273.522 262.296,273.473 263.758,273.473 267.333 M215.800 268.833 C 215.800 271.583,215.852 272.664,215.915 271.235 C 215.977 269.806,215.977 267.556,215.914 266.235 C 215.851 264.914,215.800 266.083,215.800 268.833 M99.464 269.000 C 99.464 271.475,99.516 272.487,99.581 271.250 C 99.645 270.012,99.645 267.987,99.581 266.750 C 99.516 265.512,99.464 266.525,99.464 269.000 M217.463 269.167 C 217.463 271.550,217.517 272.481,217.581 271.236 C 217.645 269.991,217.645 268.041,217.580 266.903 C 217.515 265.765,217.462 266.783,217.463 269.167 M250.128 269.000 C 250.128 271.292,250.182 272.229,250.247 271.083 C 250.312 269.938,250.312 268.063,250.247 266.917 C 250.182 265.771,250.128 266.708,250.128 269.000 M248.453 269.333 C 248.453 271.075,248.510 271.787,248.578 270.917 C 248.647 270.046,248.647 268.621,248.578 267.750 C 248.510 266.879,248.453 267.592,248.453 269.333 M187.147 294.833 C 187.147 299.967,187.193 302.020,187.249 299.396 C 187.306 296.773,187.306 292.573,187.249 290.063 C 187.193 287.553,187.146 289.700,187.147 294.833 " stroke="none" fill="#9e9795" fill-rule="evenodd"></path><path id="path4" d="M182.000 98.992 C 182.000 99.137,182.370 99.326,182.823 99.413 C 183.276 99.500,183.578 99.460,183.495 99.325 C 183.274 98.967,182.000 98.683,182.000 98.992 M78.799 162.167 C 79.147 162.430,79.575 162.556,79.751 162.448 C 80.137 162.209,79.379 161.675,78.667 161.682 C 78.282 161.687,78.313 161.798,78.799 162.167 M71.948 163.104 C 72.521 163.794,75.667 165.421,75.667 165.028 C 75.667 164.713,73.800 163.574,72.204 162.914 C 71.700 162.706,71.649 162.744,71.948 163.104 M81.667 163.351 C 81.667 163.678,82.763 164.333,83.311 164.333 C 84.022 164.333,83.642 163.803,82.667 163.435 C 82.117 163.228,81.667 163.190,81.667 163.351 M78.333 165.000 C 78.333 165.391,78.590 165.391,79.500 165.000 C 80.091 164.746,80.062 164.711,79.250 164.690 C 78.746 164.677,78.333 164.817,78.333 165.000 M76.000 165.262 C 76.000 165.406,76.300 165.524,76.667 165.524 C 77.033 165.524,77.333 165.406,77.333 165.262 C 77.333 165.118,77.033 165.000,76.667 165.000 C 76.300 165.000,76.000 165.118,76.000 165.262 M68.000 165.600 C 68.000 166.676,70.417 167.110,72.750 166.453 C 74.046 166.088,73.226 165.770,71.783 166.078 C 70.543 166.343,70.009 166.302,69.116 165.876 C 68.502 165.584,68.000 165.459,68.000 165.600 M59.333 165.937 C 59.333 166.116,59.571 166.353,59.861 166.465 C 60.186 166.589,60.338 166.515,60.257 166.271 C 60.091 165.773,59.333 165.498,59.333 165.937 M78.000 166.255 C 78.000 166.608,79.998 167.785,80.005 167.436 C 80.008 167.288,80.156 167.392,80.333 167.667 C 80.542 167.989,80.658 168.021,80.662 167.757 C 80.664 167.531,80.067 167.041,79.333 166.667 C 78.600 166.293,78.000 166.107,78.000 166.255 M90.000 167.000 C 90.000 167.183,90.225 167.333,90.500 167.333 C 90.775 167.333,91.000 167.183,91.000 167.000 C 91.000 166.817,90.775 166.667,90.500 166.667 C 90.225 166.667,90.000 166.817,90.000 167.000 M63.002 168.048 C 62.998 168.427,63.804 168.583,64.917 168.418 C 66.520 168.181,66.231 167.744,64.502 167.792 C 63.678 167.815,63.003 167.930,63.002 168.048 M84.917 167.896 C 84.596 167.980,84.333 168.204,84.333 168.393 C 84.333 168.583,84.571 168.647,84.861 168.536 C 85.151 168.424,85.609 168.333,85.880 168.333 C 86.151 168.333,86.280 168.183,86.167 168.000 C 85.952 167.653,85.875 167.646,84.917 167.896 M91.000 168.333 C 91.000 168.640,91.472 168.803,92.083 168.706 C 92.221 168.684,92.333 168.826,92.333 169.020 C 92.333 169.214,92.504 169.267,92.712 169.139 C 92.956 168.988,92.808 168.749,92.295 168.464 C 91.328 167.928,91.000 167.895,91.000 168.333 M82.333 168.667 C 82.333 168.850,82.558 169.000,82.833 169.000 C 83.108 169.000,83.333 168.850,83.333 168.667 C 83.333 168.483,83.108 168.333,82.833 168.333 C 82.558 168.333,82.333 168.483,82.333 168.667 M74.000 168.920 C 74.000 170.019,76.501 170.516,78.500 169.814 L 79.833 169.346 77.908 169.510 C 76.556 169.626,75.687 169.522,74.991 169.162 C 74.446 168.880,74.000 168.771,74.000 168.920 M65.631 169.686 C 66.069 170.051,66.508 170.270,66.606 170.172 C 66.819 169.959,65.644 169.021,65.167 169.022 C 64.983 169.022,65.192 169.321,65.631 169.686 M84.170 169.671 C 84.493 170.195,87.000 171.388,87.000 171.019 C 87.000 170.594,85.819 169.958,85.544 170.234 C 85.428 170.350,85.333 170.261,85.333 170.036 C 85.333 169.811,85.183 169.720,85.000 169.833 C 84.817 169.947,84.667 169.880,84.667 169.686 C 84.667 169.492,84.508 169.333,84.314 169.333 C 84.120 169.333,84.055 169.485,84.170 169.671 M68.667 171.344 C 68.667 171.604,69.489 172.000,70.027 172.000 C 70.702 172.000,70.279 171.401,69.500 171.252 C 69.042 171.164,68.667 171.206,68.667 171.344 M91.083 171.235 C 90.671 171.315,90.333 171.536,90.333 171.726 C 90.333 172.120,91.982 171.801,92.483 171.310 C 92.813 170.987,92.466 170.969,91.083 171.235 M97.809 171.840 C 98.494 172.359,98.877 172.276,98.514 171.689 C 98.393 171.493,98.040 171.338,97.730 171.344 C 97.235 171.353,97.245 171.414,97.809 171.840 M80.000 172.316 C 80.000 173.044,82.004 173.707,83.518 173.480 C 84.333 173.358,85.000 173.115,85.000 172.942 C 85.000 172.758,84.392 172.717,83.544 172.844 C 82.503 173.000,81.790 172.909,81.044 172.523 C 80.470 172.226,80.000 172.133,80.000 172.316 M71.150 172.973 C 71.276 173.177,71.506 173.266,71.661 173.170 C 71.816 173.074,72.020 173.151,72.113 173.340 C 72.207 173.529,72.245 173.492,72.197 173.258 C 72.150 173.025,71.844 172.781,71.516 172.718 C 71.146 172.646,71.008 172.743,71.150 172.973 M90.483 172.973 C 90.778 173.450,93.603 174.953,93.812 174.744 C 94.061 174.495,91.583 173.012,91.256 173.215 C 91.115 173.302,91.000 173.214,91.000 173.020 C 91.000 172.826,90.841 172.667,90.647 172.667 C 90.453 172.667,90.379 172.805,90.483 172.973 M77.500 174.667 C 77.237 175.092,78.341 175.092,79.000 174.667 C 79.391 174.414,79.305 174.342,78.603 174.338 C 78.110 174.336,77.613 174.483,77.500 174.667 M97.000 174.667 C 96.083 174.960,96.374 175.110,97.667 175.008 C 98.668 174.929,99.447 174.317,98.483 174.367 C 98.126 174.385,97.458 174.520,97.000 174.667 M103.664 174.830 C 103.890 175.103,104.209 175.244,104.371 175.143 C 104.534 175.043,104.667 175.128,104.667 175.333 C 104.667 175.538,104.804 175.621,104.972 175.518 C 105.139 175.414,105.352 175.518,105.445 175.748 C 105.574 176.067,105.620 176.069,105.640 175.759 C 105.655 175.534,105.224 175.122,104.683 174.842 C 103.443 174.201,103.139 174.197,103.664 174.830 M75.000 175.000 C 75.000 175.183,75.375 175.333,75.833 175.333 C 76.292 175.333,76.667 175.183,76.667 175.000 C 76.667 174.817,76.292 174.667,75.833 174.667 C 75.375 174.667,75.000 174.817,75.000 175.000 M86.005 175.575 C 85.995 176.370,87.937 177.050,89.533 176.811 C 91.394 176.532,91.159 176.207,89.072 176.173 C 87.292 176.144,86.608 175.981,86.255 175.500 C 86.102 175.292,86.008 175.320,86.005 175.575 M77.142 176.507 C 77.827 177.025,78.210 176.943,77.847 176.356 C 77.726 176.160,77.374 176.005,77.064 176.011 C 76.569 176.020,76.578 176.080,77.142 176.507 M96.517 176.289 C 97.204 176.916,100.000 178.380,100.005 178.115 C 100.008 177.960,100.156 178.058,100.333 178.333 C 100.544 178.659,100.658 178.690,100.662 178.421 C 100.664 178.195,99.771 177.557,98.676 177.005 C 96.684 175.999,95.922 175.747,96.517 176.289 M84.000 178.000 C 84.000 178.418,84.354 178.418,85.000 178.000 C 85.404 177.739,85.356 177.676,84.750 177.672 C 84.337 177.669,84.000 177.817,84.000 178.000 M102.855 177.966 C 102.343 178.167,102.305 178.276,102.669 178.502 C 102.948 178.674,103.176 178.639,103.252 178.411 C 103.320 178.206,103.583 178.117,103.835 178.213 C 104.087 178.310,104.564 178.231,104.896 178.038 C 105.639 177.606,103.929 177.546,102.855 177.966 M109.835 178.002 C 110.169 178.544,111.946 179.356,112.133 179.054 C 112.228 178.901,111.781 178.527,111.141 178.222 C 109.794 177.579,109.548 177.538,109.835 178.002 M80.667 178.417 C 80.667 178.554,81.217 178.667,81.889 178.667 C 82.561 178.667,82.999 178.554,82.861 178.417 C 82.724 178.279,82.174 178.167,81.639 178.167 C 81.104 178.167,80.667 178.279,80.667 178.417 M92.005 178.878 C 91.997 179.514,93.438 180.239,94.583 180.176 C 97.134 180.036,97.432 179.987,97.194 179.750 C 97.057 179.612,96.169 179.497,95.222 179.493 C 93.315 179.486,92.621 179.331,92.255 178.833 C 92.099 178.620,92.008 178.637,92.005 178.878 M82.667 179.603 C 82.667 179.782,82.904 180.020,83.195 180.131 C 83.519 180.256,83.672 180.181,83.590 179.938 C 83.424 179.439,82.667 179.165,82.667 179.603 M103.000 179.833 C 103.482 180.414,104.000 180.490,104.000 179.980 C 104.000 179.786,103.850 179.720,103.667 179.833 C 103.483 179.947,103.333 179.880,103.333 179.686 C 103.333 179.492,103.165 179.333,102.959 179.333 C 102.701 179.333,102.713 179.488,103.000 179.833 M104.433 180.333 C 104.516 180.608,104.752 180.796,104.958 180.750 C 105.165 180.704,105.333 180.826,105.333 181.020 C 105.333 181.214,105.483 181.280,105.667 181.167 C 105.850 181.053,106.000 181.128,106.000 181.333 C 106.000 181.538,106.169 181.601,106.376 181.474 C 106.775 181.227,106.276 180.817,105.323 180.608 C 105.054 180.548,104.709 180.350,104.558 180.167 C 104.395 179.969,104.344 180.037,104.433 180.333 M109.724 181.118 C 108.931 181.330,108.388 181.610,108.518 181.740 C 108.648 181.870,109.015 181.837,109.333 181.667 C 109.652 181.496,109.996 181.440,110.098 181.542 C 110.367 181.812,111.667 181.344,111.667 180.978 C 111.667 180.611,111.601 180.616,109.724 181.118 M116.466 181.500 C 116.814 181.763,117.226 181.900,117.382 181.803 C 117.539 181.706,117.667 181.761,117.667 181.925 C 117.667 182.088,117.912 182.222,118.211 182.222 C 118.689 182.222,118.683 182.170,118.162 181.788 C 117.835 181.550,117.441 181.434,117.284 181.530 C 117.128 181.627,117.000 181.547,117.000 181.353 C 117.000 181.159,116.737 181.005,116.417 181.011 C 115.883 181.020,115.887 181.062,116.466 181.500 M87.167 181.630 C 86.617 181.750,86.317 181.939,86.500 182.051 C 86.964 182.333,89.000 181.990,89.000 181.629 C 89.000 181.304,88.664 181.304,87.167 181.630 M98.005 182.255 C 97.995 183.068,100.133 183.772,101.835 183.517 C 102.715 183.385,103.285 183.154,103.124 182.996 C 102.964 182.839,102.308 182.827,101.667 182.968 C 100.883 183.141,100.199 183.077,99.583 182.771 C 99.079 182.521,98.664 182.433,98.662 182.575 C 98.659 182.717,98.511 182.608,98.333 182.333 C 98.112 181.992,98.009 181.967,98.005 182.255 M124.267 182.733 C 124.578 183.044,124.756 183.044,125.067 182.733 C 125.378 182.422,125.289 182.333,124.667 182.333 C 124.044 182.333,123.956 182.422,124.267 182.733 M62.167 182.904 C 60.855 183.220,61.058 183.500,62.514 183.384 C 63.330 183.319,63.915 183.131,63.813 182.967 C 63.618 182.652,63.270 182.639,62.167 182.904 M110.026 183.243 C 110.012 183.469,110.600 183.959,111.333 184.333 C 112.067 184.707,112.667 184.866,112.667 184.685 C 112.667 184.261,111.486 183.625,111.210 183.901 C 111.095 184.016,111.000 183.927,111.000 183.703 C 111.000 183.478,110.863 183.379,110.695 183.482 C 110.527 183.586,110.314 183.482,110.221 183.252 C 110.092 182.930,110.047 182.928,110.026 183.243 M115.743 184.390 C 114.960 184.565,114.397 184.833,114.491 184.986 C 114.692 185.311,117.354 184.773,117.817 184.314 C 118.200 183.934,117.698 183.952,115.743 184.390 M122.543 184.491 C 122.783 185.116,123.595 185.386,123.874 184.934 C 124.013 184.710,123.951 184.657,123.718 184.802 C 123.507 184.932,123.333 184.897,123.333 184.722 C 123.333 184.547,123.116 184.321,122.850 184.219 C 122.537 184.099,122.429 184.194,122.543 184.491 M91.566 184.545 C 91.266 184.845,92.355 185.643,93.083 185.656 C 93.404 185.662,93.667 185.517,93.667 185.333 C 93.667 185.150,93.397 185.000,93.067 185.000 C 92.737 185.000,92.314 184.847,92.128 184.661 C 91.941 184.475,91.689 184.422,91.566 184.545 M103.360 185.238 C 103.345 185.461,103.633 185.804,104.000 186.000 C 104.367 186.196,104.671 186.239,104.677 186.095 C 104.682 185.951,104.840 186.096,105.027 186.417 C 105.401 187.060,106.000 187.202,106.000 186.647 C 106.000 186.453,105.866 186.377,105.702 186.478 C 105.537 186.580,105.314 186.429,105.204 186.144 C 105.094 185.858,104.854 185.718,104.669 185.832 C 104.484 185.946,104.333 185.872,104.333 185.667 C 104.333 185.462,104.196 185.379,104.028 185.482 C 103.861 185.586,103.648 185.482,103.555 185.252 C 103.428 184.939,103.379 184.935,103.360 185.238 M59.778 185.577 C 60.153 186.184,62.110 187.496,61.957 187.039 C 61.883 186.815,61.308 186.307,60.679 185.909 C 60.050 185.511,59.645 185.361,59.778 185.577 M130.670 185.631 C 130.155 185.774,129.986 185.952,130.223 186.099 C 130.676 186.379,131.667 186.058,131.667 185.631 C 131.667 185.467,131.629 185.348,131.583 185.367 C 131.537 185.385,131.127 185.504,130.670 185.631 M107.527 186.289 C 106.993 186.405,106.499 186.668,106.431 186.873 C 106.340 187.146,106.714 187.154,107.820 186.901 C 108.652 186.710,109.333 186.430,109.333 186.277 C 109.333 185.972,108.983 185.974,107.527 186.289 M94.484 186.640 C 94.610 186.844,94.840 186.932,94.995 186.837 C 95.150 186.741,95.353 186.817,95.447 187.006 C 95.540 187.195,95.578 187.159,95.531 186.925 C 95.483 186.691,95.177 186.448,94.850 186.385 C 94.479 186.313,94.341 186.409,94.484 186.640 M116.802 187.051 C 116.654 187.290,116.710 187.346,116.948 187.198 C 117.160 187.068,117.333 187.145,117.333 187.369 C 117.333 187.594,117.431 187.680,117.550 187.561 C 117.670 187.441,117.947 187.589,118.166 187.889 C 118.483 188.322,118.620 188.345,118.834 187.999 C 119.012 187.711,118.973 187.644,118.718 187.802 C 118.507 187.932,118.333 187.886,118.333 187.698 C 118.333 187.132,117.079 186.602,116.802 187.051 M123.000 187.667 C 123.000 187.850,123.216 188.000,123.480 188.000 C 123.745 188.000,124.053 187.850,124.167 187.667 C 124.280 187.483,124.064 187.333,123.686 187.333 C 123.309 187.333,123.000 187.483,123.000 187.667 M128.667 187.667 C 128.667 187.973,129.139 188.136,129.750 188.039 C 129.887 188.018,130.000 188.150,130.000 188.333 C 130.000 188.517,130.262 188.662,130.583 188.656 C 131.117 188.646,131.113 188.605,130.534 188.167 C 130.186 187.903,129.774 187.767,129.618 187.864 C 129.461 187.960,129.333 187.880,129.333 187.686 C 129.333 187.492,129.183 187.333,129.000 187.333 C 128.817 187.333,128.667 187.483,128.667 187.667 M97.238 187.884 C 96.991 188.284,98.359 189.000,99.369 189.000 C 99.738 189.000,99.947 188.850,99.833 188.667 C 99.720 188.483,99.199 188.333,98.675 188.333 C 98.151 188.333,97.662 188.153,97.589 187.933 C 97.499 187.665,97.384 187.649,97.238 187.884 M110.466 189.389 C 110.321 189.623,110.378 189.678,110.615 189.532 C 110.827 189.401,111.000 189.448,111.000 189.635 C 111.000 190.389,112.190 190.603,114.171 190.205 C 115.390 189.960,115.956 189.723,115.624 189.595 C 115.326 189.480,114.445 189.529,113.666 189.704 C 112.554 189.954,112.084 189.913,111.476 189.515 C 110.915 189.147,110.637 189.112,110.466 189.389 M123.146 190.650 C 123.684 191.005,124.247 191.220,124.396 191.128 C 124.545 191.036,124.667 191.128,124.667 191.333 C 124.667 191.538,124.817 191.613,125.000 191.500 C 125.183 191.387,125.333 191.462,125.333 191.667 C 125.333 191.872,125.506 191.933,125.717 191.802 C 125.952 191.657,125.530 191.267,124.634 190.798 C 122.845 189.862,121.792 189.757,123.146 190.650 M127.671 191.131 C 126.848 191.350,126.336 191.629,126.531 191.750 C 126.878 191.964,130.217 191.228,130.590 190.854 C 130.896 190.549,129.280 190.702,127.671 191.131 M135.618 191.343 C 136.050 191.702,136.537 191.913,136.701 191.812 C 136.866 191.710,137.000 191.795,137.000 192.000 C 137.000 192.205,137.150 192.280,137.333 192.167 C 137.517 192.053,137.667 192.128,137.667 192.333 C 137.667 192.538,137.837 192.601,138.045 192.472 C 138.289 192.321,138.142 192.088,137.633 191.815 C 137.198 191.582,136.727 191.463,136.588 191.549 C 136.448 191.635,136.333 191.538,136.333 191.333 C 136.333 191.128,136.183 191.053,136.000 191.167 C 135.817 191.280,135.667 191.214,135.667 191.020 C 135.667 190.826,135.479 190.672,135.250 190.678 C 135.021 190.684,135.186 190.983,135.618 191.343 M103.472 191.713 C 103.321 191.956,103.375 192.014,103.615 191.865 C 103.827 191.734,104.000 191.786,104.000 191.980 C 104.000 192.433,105.892 192.444,106.171 191.993 C 106.299 191.786,106.008 191.681,105.431 191.725 C 104.909 191.765,104.308 191.690,104.097 191.560 C 103.886 191.429,103.604 191.498,103.472 191.713 M142.250 192.258 C 141.929 192.326,141.667 192.533,141.667 192.718 C 141.667 193.059,143.422 192.812,144.276 192.351 C 144.740 192.100,143.303 192.034,142.250 192.258 M70.204 192.606 C 70.111 192.757,70.477 192.814,71.018 192.735 C 71.558 192.656,72.000 192.533,72.000 192.462 C 72.000 192.208,70.369 192.339,70.204 192.606 M116.361 192.761 C 116.438 192.813,116.749 193.045,117.054 193.277 C 117.482 193.604,117.663 193.608,117.855 193.298 C 118.012 193.044,117.962 192.984,117.718 193.135 C 117.507 193.266,117.333 193.214,117.333 193.020 C 117.333 192.826,117.083 192.667,116.778 192.667 C 116.472 192.667,116.285 192.709,116.361 192.761 M119.719 192.998 C 119.106 193.143,118.431 193.448,118.219 193.676 C 117.916 194.002,118.012 194.045,118.667 193.879 C 119.125 193.762,120.075 193.570,120.777 193.453 C 121.650 193.307,121.914 193.150,121.610 192.958 C 121.366 192.803,121.092 192.690,121.000 192.706 C 120.908 192.722,120.332 192.853,119.719 192.998 M129.338 193.572 C 129.332 194.051,130.486 194.736,130.790 194.433 C 130.905 194.317,131.000 194.406,131.000 194.631 C 131.000 194.855,131.150 194.947,131.333 194.833 C 131.517 194.720,131.667 194.766,131.667 194.936 C 131.667 195.350,133.813 195.134,135.667 194.534 C 137.337 193.994,136.453 193.979,133.467 194.498 C 132.479 194.670,131.810 194.585,131.050 194.193 C 130.473 193.894,129.998 193.766,129.995 193.908 C 129.992 194.050,129.844 193.942,129.667 193.667 C 129.464 193.353,129.342 193.317,129.338 193.572 M108.733 194.608 C 108.797 194.851,108.996 195.061,109.175 195.075 C 109.354 195.089,109.650 195.289,109.833 195.518 C 110.213 195.994,112.333 195.782,112.333 195.269 C 112.333 195.084,111.903 195.042,111.320 195.170 C 110.700 195.306,110.117 195.235,109.820 194.989 C 109.552 194.767,109.331 194.716,109.328 194.876 C 109.325 195.036,109.164 194.942,108.970 194.667 C 108.735 194.336,108.655 194.316,108.733 194.608 M143.000 194.999 C 143.000 195.542,144.262 196.051,144.531 195.616 C 144.679 195.377,144.624 195.321,144.385 195.468 C 144.173 195.599,144.000 195.563,144.000 195.389 C 144.000 195.214,143.775 194.985,143.500 194.879 C 143.225 194.774,143.000 194.828,143.000 194.999 M148.887 195.442 C 148.183 195.657,147.703 195.928,147.820 196.044 C 148.105 196.326,150.321 195.812,150.774 195.359 C 151.241 194.892,150.593 194.921,148.887 195.442 M123.100 196.333 C 123.182 196.608,123.419 196.796,123.625 196.750 C 123.831 196.704,124.000 196.792,124.000 196.944 C 124.000 197.097,124.225 197.222,124.500 197.222 C 124.775 197.222,125.000 197.097,125.000 196.944 C 125.000 196.703,124.497 196.600,123.787 196.695 C 123.670 196.711,123.434 196.523,123.262 196.278 C 123.014 195.925,122.980 195.937,123.100 196.333 M126.250 196.239 C 125.746 196.315,125.333 196.536,125.333 196.730 C 125.333 196.948,125.733 197.003,126.375 196.875 C 126.948 196.760,127.557 196.667,127.728 196.667 C 127.899 196.667,127.947 196.517,127.833 196.333 C 127.720 196.150,127.524 196.022,127.397 196.050 C 127.270 196.077,126.754 196.162,126.250 196.239 M136.135 197.384 C 135.987 197.623,136.043 197.679,136.282 197.532 C 136.493 197.401,136.667 197.462,136.667 197.667 C 136.667 197.872,136.804 197.955,136.972 197.851 C 137.139 197.747,137.352 197.851,137.445 198.081 C 137.572 198.395,137.621 198.398,137.640 198.095 C 137.680 197.491,136.433 196.902,136.135 197.384 M140.066 197.685 C 139.461 197.816,138.874 198.015,138.761 198.128 C 138.307 198.581,138.940 198.613,140.502 198.214 C 142.275 197.762,141.888 197.291,140.066 197.685 M119.610 198.410 C 119.822 198.622,120.139 198.622,120.519 198.410 C 121.011 198.134,120.960 198.083,120.192 198.083 C 119.600 198.083,119.397 198.197,119.610 198.410 M116.500 198.631 C 115.700 198.752,115.325 198.936,115.563 199.091 C 116.080 199.426,118.709 199.005,118.474 198.625 C 118.375 198.465,118.190 198.355,118.064 198.381 C 117.937 198.407,117.233 198.519,116.500 198.631 M129.066 199.608 C 129.131 199.851,129.313 200.026,129.471 199.997 C 129.629 199.967,129.866 200.117,129.997 200.329 C 130.152 200.580,130.662 200.635,131.451 200.487 C 133.212 200.157,132.944 199.665,131.083 199.812 C 130.130 199.887,129.391 199.783,129.225 199.552 C 129.029 199.279,128.983 199.295,129.066 199.608 M120.066 201.275 C 120.131 201.518,120.297 201.700,120.437 201.680 C 120.576 201.659,120.899 201.851,121.153 202.105 C 121.567 202.519,122.060 202.566,124.083 202.386 C 124.404 202.357,124.667 202.186,124.667 202.006 C 124.667 201.811,124.066 201.762,123.171 201.884 C 122.186 202.019,121.504 201.947,121.171 201.671 C 120.894 201.440,120.664 201.383,120.662 201.543 C 120.659 201.702,120.497 201.608,120.303 201.333 C 120.069 201.002,119.989 200.982,120.066 201.275 M125.933 201.733 C 126.244 202.044,126.422 202.044,126.733 201.733 C 127.044 201.422,126.956 201.333,126.333 201.333 C 125.711 201.333,125.622 201.422,125.933 201.733 M328.479 221.083 L 327.500 222.167 328.583 221.188 C 329.179 220.649,329.667 220.162,329.667 220.104 C 329.667 219.847,329.392 220.074,328.479 221.083 M72.369 252.457 C 71.614 253.367,72.031 273.833,72.806 273.833 C 73.157 273.833,73.519 273.608,73.610 273.333 C 73.745 272.924,73.684 272.908,73.274 273.247 C 72.387 273.978,72.333 273.390,72.333 262.980 C 72.333 253.948,72.396 252.714,72.861 252.536 C 74.953 251.733,82.773 252.542,84.288 253.718 C 84.606 253.965,84.521 253.836,84.099 253.432 C 82.626 252.021,73.370 251.251,72.369 252.457 M74.500 253.543 C 76.809 253.782,81.908 253.814,81.553 253.588 C 81.340 253.454,79.442 253.365,77.333 253.392 C 75.225 253.418,73.950 253.486,74.500 253.543 M104.315 259.144 C 104.540 259.416,104.627 259.794,104.509 259.985 C 104.391 260.177,104.453 260.333,104.647 260.333 C 105.216 260.333,105.052 259.091,104.453 258.861 C 104.002 258.688,103.978 258.738,104.315 259.144 M97.667 266.510 C 97.667 273.885,97.868 274.932,99.058 273.742 C 99.298 273.502,99.214 273.412,98.786 273.448 C 98.200 273.497,98.167 273.114,98.167 266.416 C 98.167 262.521,98.054 259.333,97.917 259.333 C 97.779 259.333,97.667 262.563,97.667 266.510 M321.134 260.131 C 321.026 260.414,321.014 260.837,321.109 261.072 C 321.203 261.308,321.293 261.162,321.307 260.750 C 321.334 259.994,322.133 259.708,322.447 260.342 C 322.540 260.530,322.578 260.492,322.531 260.258 C 322.404 259.631,321.363 259.536,321.134 260.131 M271.807 266.667 C 271.807 270.425,271.856 271.962,271.915 270.083 C 271.975 268.204,271.975 265.129,271.915 263.250 C 271.856 261.371,271.807 262.908,271.807 266.667 M285.751 261.500 C 285.754 262.233,285.823 262.494,285.902 262.079 C 285.982 261.665,285.979 261.065,285.896 260.746 C 285.812 260.427,285.747 260.767,285.751 261.500 M84.363 262.797 C 84.151 263.053,83.528 263.448,82.978 263.676 C 82.428 263.903,82.044 264.156,82.125 264.236 C 82.339 264.451,84.144 263.463,84.648 262.855 C 84.887 262.568,85.007 262.333,84.915 262.333 C 84.823 262.333,84.575 262.542,84.363 262.797 M77.667 263.000 L 73.833 263.200 77.500 263.262 C 79.517 263.296,81.392 263.178,81.667 263.000 C 81.942 262.822,82.017 262.704,81.833 262.738 C 81.650 262.772,79.775 262.890,77.667 263.000 M99.541 263.180 C 99.427 263.477,99.346 263.971,99.362 264.277 C 99.378 264.583,99.523 264.391,99.684 263.850 C 99.999 262.798,99.887 262.277,99.541 263.180 M239.128 268.000 C 239.128 270.292,239.182 271.229,239.247 270.083 C 239.312 268.938,239.312 267.063,239.247 265.917 C 239.182 264.771,239.128 265.708,239.128 268.000 M285.795 268.000 C 285.795 270.292,285.848 271.229,285.913 270.083 C 285.979 268.938,285.979 267.063,285.913 265.917 C 285.848 264.771,285.795 265.708,285.795 268.000 M76.096 264.580 C 77.156 264.646,78.806 264.646,79.762 264.579 C 80.718 264.512,79.850 264.457,77.833 264.458 C 75.817 264.459,75.035 264.514,76.096 264.580 M152.100 267.000 C 152.100 268.008,152.162 268.421,152.239 267.917 C 152.315 267.412,152.315 266.587,152.239 266.083 C 152.162 265.579,152.100 265.992,152.100 267.000 M321.077 266.667 C 321.077 267.308,321.146 267.571,321.230 267.250 C 321.314 266.929,321.314 266.404,321.230 266.083 C 321.146 265.762,321.077 266.025,321.077 266.667 M152.122 272.500 C 152.123 274.333,152.179 275.041,152.246 274.072 C 152.314 273.104,152.313 271.604,152.245 270.739 C 152.176 269.874,152.121 270.667,152.122 272.500 M120.589 274.242 C 121.188 274.316,122.088 274.314,122.589 274.238 C 123.090 274.162,122.600 274.101,121.500 274.103 C 120.400 274.105,119.990 274.167,120.589 274.242 M314.921 279.569 C 315.335 279.649,315.935 279.646,316.254 279.562 C 316.573 279.479,316.233 279.414,315.500 279.417 C 314.767 279.421,314.506 279.489,314.921 279.569 M144.755 280.906 C 145.261 280.982,146.011 280.980,146.421 280.901 C 146.831 280.822,146.417 280.760,145.500 280.762 C 144.583 280.765,144.248 280.829,144.755 280.906 M314.923 280.908 C 315.522 280.982,316.422 280.981,316.923 280.905 C 317.424 280.829,316.933 280.768,315.833 280.770 C 314.733 280.772,314.324 280.834,314.923 280.908 M165.921 283.236 C 166.335 283.315,166.935 283.312,167.254 283.229 C 167.573 283.146,167.233 283.080,166.500 283.084 C 165.767 283.088,165.506 283.156,165.921 283.236 M223.815 295.000 C 223.815 300.592,223.860 302.879,223.916 300.083 C 223.972 297.287,223.972 292.712,223.916 289.917 C 223.860 287.121,223.815 289.408,223.815 295.000 M158.773 294.333 C 158.773 295.525,158.834 296.012,158.908 295.417 C 158.982 294.821,158.982 293.846,158.908 293.250 C 158.834 292.654,158.773 293.142,158.773 294.333 M165.256 305.575 C 165.855 305.649,166.755 305.648,167.256 305.572 C 167.757 305.495,167.267 305.435,166.167 305.437 C 165.067 305.438,164.657 305.501,165.256 305.575 " stroke="none" fill="#82736b" fill-rule="evenodd"></path><path id="path5" d="M173.109 105.500 C 173.111 106.783,173.171 107.267,173.243 106.576 C 173.315 105.884,173.314 104.834,173.241 104.243 C 173.167 103.651,173.108 104.217,173.109 105.500 M167.433 108.333 C 167.433 109.342,167.496 109.754,167.572 109.250 C 167.648 108.746,167.648 107.921,167.572 107.417 C 167.496 106.912,167.433 107.325,167.433 108.333 M172.026 112.957 C 172.004 113.624,172.079 113.683,172.500 113.333 C 173.046 112.880,173.184 112.513,172.695 112.816 C 172.527 112.919,172.314 112.816,172.221 112.585 C 172.129 112.355,172.041 112.523,172.026 112.957 M181.859 121.450 C 180.975 122.197,180.681 122.636,180.951 122.803 C 181.170 122.938,181.309 122.898,181.258 122.713 C 181.208 122.527,181.692 121.922,182.333 121.368 C 182.975 120.814,183.425 120.357,183.333 120.352 C 183.242 120.347,182.578 120.841,181.859 121.450 M135.417 127.167 C 135.421 127.900,135.489 128.161,135.569 127.746 C 135.649 127.331,135.646 126.731,135.562 126.413 C 135.479 126.094,135.414 126.433,135.417 127.167 M320.757 273.000 C 320.757 273.825,320.822 274.162,320.902 273.750 C 320.981 273.337,320.981 272.662,320.902 272.250 C 320.822 271.837,320.757 272.175,320.757 273.000 " stroke="none" fill="#d3c6a0" fill-rule="evenodd"></path><path id="path6" d="M113.424 103.000 C 113.424 103.825,113.489 104.162,113.569 103.750 C 113.648 103.337,113.648 102.662,113.569 102.250 C 113.489 101.837,113.424 102.175,113.424 103.000 M171.705 113.064 C 171.649 113.891,172.190 114.079,172.712 113.413 C 173.118 112.895,173.108 112.879,172.611 113.268 C 172.140 113.636,172.032 113.610,171.900 113.101 C 171.764 112.578,171.739 112.574,171.705 113.064 M121.083 130.896 C 121.404 130.980,121.929 130.980,122.250 130.896 C 122.571 130.813,122.308 130.744,121.667 130.744 C 121.025 130.744,120.763 130.813,121.083 130.896 M179.333 134.667 C 178.942 135.217,178.696 135.667,178.788 135.667 C 178.880 135.667,179.275 135.217,179.667 134.667 C 180.058 134.117,180.304 133.667,180.212 133.667 C 180.120 133.667,179.725 134.117,179.333 134.667 M176.581 137.305 C 175.211 138.183,175.021 138.492,176.229 137.878 C 176.813 137.581,177.384 137.187,177.499 137.002 C 177.766 136.570,177.686 136.596,176.581 137.305 M113.410 151.320 C 112.993 151.668,112.768 152.010,112.910 152.081 C 113.051 152.152,113.499 151.862,113.905 151.438 C 114.791 150.512,114.470 150.436,113.410 151.320 M115.960 152.073 C 116.114 152.999,116.161 153.045,116.266 152.378 C 116.334 151.945,116.252 151.452,116.084 151.284 C 115.899 151.099,115.851 151.410,115.960 152.073 M151.000 153.771 C 151.000 153.828,151.487 154.316,152.083 154.854 L 153.167 155.833 152.188 154.750 C 151.275 153.740,151.000 153.513,151.000 153.771 M161.358 165.626 C 160.913 165.750,160.512 166.039,160.466 166.268 C 160.421 166.496,160.460 166.530,160.553 166.342 C 160.646 166.154,161.001 166.000,161.341 166.000 C 161.682 166.000,162.053 165.850,162.167 165.667 C 162.280 165.483,162.326 165.348,162.270 165.367 C 162.213 165.385,161.803 165.501,161.358 165.626 M73.796 258.833 C 73.797 261.217,73.850 262.148,73.914 260.903 C 73.978 259.658,73.978 257.708,73.913 256.569 C 73.848 255.431,73.796 256.450,73.796 258.833 M166.130 269.167 C 166.130 271.550,166.183 272.481,166.247 271.236 C 166.312 269.991,166.311 268.041,166.246 266.903 C 166.182 265.765,166.129 266.783,166.130 269.167 M240.795 269.333 C 240.795 271.625,240.848 272.563,240.913 271.417 C 240.979 270.271,240.979 268.396,240.913 267.250 C 240.848 266.104,240.795 267.042,240.795 269.333 M180.744 266.667 C 180.744 267.308,180.813 267.571,180.896 267.250 C 180.980 266.929,180.980 266.404,180.896 266.083 C 180.813 265.762,180.744 266.025,180.744 266.667 M208.122 268.833 C 208.123 270.667,208.179 271.374,208.246 270.405 C 208.314 269.437,208.313 267.937,208.245 267.072 C 208.176 266.207,208.121 267.000,208.122 268.833 M287.459 269.333 C 287.459 271.442,287.514 272.304,287.580 271.250 C 287.646 270.196,287.646 268.471,287.580 267.417 C 287.514 266.362,287.459 267.225,287.459 269.333 M73.785 268.833 C 73.784 270.483,73.840 271.200,73.910 270.427 C 73.980 269.653,73.981 268.303,73.912 267.427 C 73.843 266.550,73.786 267.183,73.785 268.833 M187.083 272.896 C 187.404 272.980,187.929 272.980,188.250 272.896 C 188.571 272.813,188.308 272.744,187.667 272.744 C 187.025 272.744,186.762 272.813,187.083 272.896 M225.462 288.667 C 225.462 290.958,225.515 291.896,225.580 290.750 C 225.645 289.604,225.645 287.729,225.580 286.583 C 225.515 285.438,225.462 286.375,225.462 288.667 M201.132 295.500 C 201.132 298.067,201.184 299.073,201.248 297.735 C 201.311 296.398,201.311 294.298,201.247 293.069 C 201.183 291.839,201.131 292.933,201.132 295.500 " stroke="none" fill="#c0b192" fill-rule="evenodd"></path><path id="path7" d="M146.167 89.667 C 146.533 89.824,147.058 89.953,147.333 89.953 C 147.648 89.953,147.587 89.847,147.167 89.667 C 146.800 89.509,146.275 89.380,146.000 89.380 C 145.685 89.380,145.746 89.486,146.167 89.667 M160.333 91.277 C 160.608 91.447,161.208 91.686,161.667 91.809 C 162.246 91.964,162.347 91.938,162.000 91.723 C 161.725 91.553,161.125 91.314,160.667 91.191 C 160.088 91.036,159.986 91.062,160.333 91.277 M188.721 100.966 C 188.471 101.121,189.046 101.387,190.180 101.640 C 192.406 102.139,193.032 101.880,190.950 101.321 C 190.153 101.108,189.418 100.883,189.317 100.822 C 189.217 100.761,188.949 100.826,188.721 100.966 M195.370 113.417 C 194.757 115.054,194.635 115.667,194.921 115.667 C 195.086 115.667,195.375 114.992,195.564 114.167 C 195.931 112.565,195.831 112.182,195.370 113.417 M193.037 120.037 C 192.832 120.626,192.722 121.166,192.793 121.238 C 192.865 121.309,193.091 120.885,193.296 120.296 C 193.502 119.707,193.611 119.167,193.540 119.096 C 193.469 119.024,193.242 119.448,193.037 120.037 M197.812 154.083 L 196.833 155.167 197.917 154.188 C 198.512 153.649,199.000 153.162,199.000 153.104 C 199.000 152.847,198.725 153.074,197.812 154.083 M199.146 156.417 L 198.167 157.500 199.250 156.521 C 199.846 155.983,200.333 155.495,200.333 155.438 C 200.333 155.180,200.058 155.407,199.146 156.417 M193.479 158.417 L 192.500 159.500 193.583 158.521 C 194.179 157.983,194.667 157.495,194.667 157.438 C 194.667 157.180,194.392 157.407,193.479 158.417 M184.315 172.583 L 183.167 173.833 184.417 172.685 C 185.104 172.053,185.667 171.490,185.667 171.435 C 185.667 171.180,185.385 171.420,184.315 172.583 M365.000 197.500 C 365.622 198.142,366.206 198.667,366.297 198.667 C 366.389 198.667,365.955 198.142,365.333 197.500 C 364.711 196.858,364.128 196.333,364.036 196.333 C 363.944 196.333,364.378 196.858,365.000 197.500 M210.833 206.667 C 211.549 207.400,212.210 208.000,212.302 208.000 C 212.394 208.000,211.883 207.400,211.167 206.667 C 210.451 205.933,209.790 205.333,209.698 205.333 C 209.606 205.333,210.117 205.933,210.833 206.667 M340.921 215.236 C 341.335 215.315,341.935 215.312,342.254 215.229 C 342.573 215.146,342.233 215.080,341.500 215.084 C 340.767 215.088,340.506 215.156,340.921 215.236 M362.812 232.750 L 361.833 233.833 362.917 232.854 C 363.926 231.942,364.153 231.667,363.896 231.667 C 363.838 231.667,363.351 232.154,362.812 232.750 M298.127 268.167 C 298.128 270.367,298.182 271.223,298.247 270.070 C 298.312 268.917,298.312 267.117,298.246 266.070 C 298.180 265.023,298.127 265.967,298.127 268.167 M211.803 298.167 C 211.803 301.283,211.853 302.603,211.914 301.100 C 211.976 299.596,211.976 297.046,211.915 295.433 C 211.854 293.820,211.803 295.050,211.803 298.167 " stroke="none" fill="#cac6ca" fill-rule="evenodd"></path><path id="path8" d="M94.017 175.018 C 94.463 175.300,96.952 175.484,96.639 175.213 C 96.563 175.146,95.833 175.006,95.017 174.902 C 94.058 174.779,93.705 174.820,94.017 175.018 M101.083 178.563 C 101.404 178.647,101.929 178.647,102.250 178.563 C 102.571 178.479,102.308 178.411,101.667 178.411 C 101.025 178.411,100.763 178.479,101.083 178.563 M106.667 181.662 C 106.942 181.842,107.529 181.992,107.972 181.995 C 109.042 182.002,108.771 181.812,107.333 181.548 C 106.513 181.398,106.315 181.431,106.667 181.662 M130.694 188.791 C 131.037 189.098,133.000 190.000,133.000 189.850 C 133.000 189.658,131.152 188.667,130.794 188.667 C 130.663 188.667,130.618 188.723,130.694 188.791 M84.411 189.830 C 84.546 189.979,84.396 190.298,84.078 190.540 C 83.760 190.781,83.669 190.984,83.876 190.989 C 84.538 191.008,85.097 190.097,84.600 189.810 C 84.361 189.672,84.277 189.682,84.411 189.830 M69.667 192.257 C 69.667 192.443,69.904 192.686,70.194 192.798 C 71.023 193.116,72.667 193.034,72.667 192.675 C 72.667 192.492,72.231 192.437,71.667 192.550 C 71.074 192.668,70.465 192.581,70.167 192.334 C 69.879 192.095,69.667 192.062,69.667 192.257 " stroke="none" fill="#747c8c" fill-rule="evenodd"></path></g></svg>