<svg id="svg" version="1.1" xmlns="http://www.w3.org/2000/svg" xmlns:xlink="http://www.w3.org/1999/xlink" width="400" height="400" viewBox="0, 0, 400,400"><g id="svgg"><path id="path0" d="M189.000 0.361 C 63.377 7.704,-24.527 127.171,6.174 248.833 C 37.275 372.081,174.221 435.459,288.167 379.339 C 398.921 324.790,434.224 184.916,362.733 83.898 C 323.526 28.498,256.770 -3.601,189.000 0.361 M208.333 15.345 C 342.532 22.340,425.436 168.555,361.827 286.058 C 293.177 412.873,113.985 415.914,41.169 291.500 C -32.476 165.670,63.102 7.775,208.333 15.345 M116.472 79.807 C 114.888 80.497,113.985 82.895,108.489 101.000 C 107.459 104.392,105.813 109.792,104.830 113.000 C 103.847 116.208,102.421 120.933,101.660 123.500 C 100.899 126.067,99.446 130.942,98.431 134.333 C 96.726 140.028,94.572 147.290,92.647 153.833 C 92.215 155.300,91.835 156.546,91.801 156.602 C 91.768 156.658,90.183 156.985,88.279 157.328 C 86.375 157.672,84.146 158.107,83.325 158.297 C 82.505 158.486,78.608 159.256,74.667 160.008 C 67.421 161.391,57.725 163.261,52.833 164.220 C 48.776 165.015,39.020 166.907,34.167 167.839 C 31.783 168.297,28.108 169.021,26.000 169.448 L 22.167 170.224 22.273 171.196 C 22.651 174.635,24.973 178.122,28.738 180.901 C 32.073 183.361,46.113 193.173,57.500 200.999 C 91.195 224.157,87.427 222.277,95.861 220.134 C 99.146 219.300,102.958 218.341,104.333 218.004 C 105.708 217.668,109.158 216.789,112.000 216.052 C 117.147 214.716,123.565 213.067,137.500 209.498 C 141.533 208.464,149.211 206.516,154.561 205.167 C 165.210 202.482,165.044 202.540,166.544 200.944 C 167.911 199.489,168.467 197.693,168.192 195.620 C 167.978 194.006,167.987 193.984,168.794 194.186 C 170.363 194.580,172.896 187.968,181.821 160.167 C 183.411 155.217,185.016 150.286,185.388 149.210 C 186.402 146.281,192.325 124.818,192.299 124.167 C 192.266 123.317,184.565 145.526,180.336 158.667 C 175.143 174.803,171.628 185.154,169.604 190.274 C 168.963 191.897,168.829 192.032,168.035 191.856 C 165.860 191.377,94.319 155.238,94.486 154.704 C 94.579 154.408,95.403 151.617,96.318 148.500 C 97.233 145.383,98.811 140.058,99.823 136.667 C 100.836 133.275,102.272 128.400,103.015 125.833 C 103.757 123.267,104.804 119.817,105.341 118.167 C 105.879 116.517,106.976 112.917,107.781 110.167 C 112.287 94.766,116.176 82.726,116.903 81.923 C 117.742 80.996,119.556 81.201,124.742 82.808 C 129.186 84.185,132.943 85.301,145.000 88.829 C 147.658 89.607,151.348 90.721,153.198 91.305 C 158.760 93.059,179.259 98.400,179.789 98.232 C 179.948 98.182,176.873 97.059,172.956 95.738 C 160.739 91.616,154.922 89.801,137.500 84.679 C 134.567 83.816,130.967 82.716,129.500 82.233 C 121.368 79.559,118.337 78.995,116.472 79.807 M238.321 132.314 C 220.524 136.070,199.457 149.928,187.732 165.593 C 181.181 174.345,181.445 176.109,188.117 168.167 C 193.224 162.087,203.354 151.910,203.828 152.383 C 204.192 152.747,193.145 192.607,192.471 193.360 C 192.212 193.649,192.000 194.404,192.000 195.038 C 192.000 197.534,184.264 221.996,180.304 232.020 C 177.551 238.989,177.472 239.705,179.517 239.192 C 181.551 238.682,187.524 222.600,193.517 201.500 C 194.990 196.316,194.590 196.812,196.728 197.513 C 207.609 201.081,215.632 209.365,224.157 225.833 C 228.783 234.771,231.277 237.667,234.350 237.667 C 236.904 237.667,236.904 236.217,234.349 234.644 C 231.872 233.121,230.814 231.678,227.500 225.305 C 218.357 207.723,210.146 198.927,199.305 195.098 C 197.855 194.586,196.671 194.092,196.674 194.000 C 196.689 193.588,202.882 189.259,210.869 184.077 C 233.495 169.398,244.785 159.136,250.010 148.500 C 255.999 136.310,251.157 129.605,238.321 132.314 M246.000 134.362 C 254.837 136.397,248.495 151.127,233.142 164.225 C 225.627 170.637,220.797 174.104,208.390 181.992 C 204.846 184.245,200.833 186.887,199.473 187.863 C 198.113 188.839,197.000 189.541,197.000 189.422 C 197.000 189.304,198.343 184.173,199.984 178.020 C 203.514 164.789,205.758 155.759,206.349 152.409 C 206.835 149.653,206.876 149.611,212.833 145.961 C 225.828 137.998,240.106 133.004,246.000 134.362 M343.825 155.437 C 333.708 158.793,328.605 166.591,332.127 173.315 C 333.568 176.068,336.237 178.630,342.833 183.592 C 363.629 199.238,367.815 203.538,369.836 211.333 C 374.973 231.150,344.932 252.136,330.057 239.122 C 325.151 234.831,325.541 228.748,331.104 222.791 C 334.534 219.118,337.787 217.774,344.750 217.152 C 347.556 216.902,347.929 216.616,346.250 216.002 C 334.186 211.592,319.289 226.235,324.670 237.215 C 335.184 258.670,376.653 238.639,373.336 213.709 C 371.943 203.245,367.510 198.237,344.268 180.873 C 331.452 171.298,330.477 165.851,340.500 159.842 C 349.295 154.569,360.450 158.216,359.212 165.959 C 358.905 167.876,359.683 168.794,360.525 167.508 C 365.228 160.331,353.855 152.111,343.825 155.437 M118.467 170.433 C 132.602 177.455,148.552 185.368,153.913 188.017 C 159.273 190.666,163.611 192.981,163.553 193.162 C 163.495 193.343,162.225 193.766,160.732 194.102 L 158.016 194.713 153.258 192.230 C 150.641 190.864,145.875 188.398,142.667 186.751 C 139.458 185.103,134.358 182.477,131.333 180.915 C 120.154 175.142,103.293 166.467,96.333 162.907 C 87.625 158.453,87.856 158.616,89.534 158.110 C 92.114 157.331,91.958 157.265,118.467 170.433 M254.746 158.417 C 250.619 163.536,244.193 186.349,237.312 220.310 C 235.771 227.917,235.894 226.846,236.494 227.447 C 237.958 228.911,238.591 227.725,240.128 220.628 C 241.498 214.304,245.600 195.235,246.083 192.944 C 246.403 191.425,246.437 191.392,247.488 191.563 C 248.197 191.678,250.725 191.158,254.866 190.047 C 263.824 187.643,272.000 185.717,272.000 186.012 C 272.000 186.150,271.261 189.466,270.357 193.381 C 267.608 205.297,265.906 215.051,264.841 225.000 C 264.557 227.658,264.254 230.249,264.169 230.757 C 264.019 231.651,264.897 233.000,265.630 233.000 C 266.880 233.000,267.285 231.829,267.821 226.667 C 269.186 213.524,271.069 203.613,276.623 180.333 C 280.426 164.396,280.892 161.619,279.833 161.213 C 278.968 160.881,278.351 161.360,278.025 162.618 C 277.851 163.286,276.704 167.808,275.476 172.667 C 272.809 183.217,274.007 181.958,264.335 184.373 C 256.484 186.334,249.840 188.309,248.200 189.171 C 247.669 189.450,247.165 189.609,247.080 189.524 C 246.853 189.297,249.679 178.200,252.190 169.456 C 254.320 162.040,255.374 158.000,255.178 158.000 C 255.125 158.000,254.930 158.188,254.746 158.417 M293.206 162.395 C 292.935 163.370,291.136 169.792,289.208 176.667 C 281.214 205.173,277.448 223.400,279.190 225.143 C 280.582 226.534,281.286 225.415,282.015 220.654 C 283.357 211.881,286.117 199.004,289.036 187.897 C 289.492 186.161,290.380 185.817,302.500 182.682 C 308.000 181.260,312.764 179.983,313.087 179.844 C 313.507 179.664,313.629 179.722,313.515 180.046 C 310.917 187.464,305.080 212.630,303.861 221.667 C 302.537 231.492,302.586 233.333,304.171 233.333 C 305.494 233.333,305.880 232.195,306.489 226.500 C 307.413 217.853,309.498 207.166,312.671 194.809 C 320.574 164.035,321.047 161.667,319.304 161.667 C 318.615 161.667,318.367 162.378,315.871 171.500 C 314.922 174.969,314.270 176.800,314.005 176.738 C 313.023 176.510,293.278 181.839,291.250 182.880 C 290.746 183.139,290.333 183.271,290.333 183.173 C 290.333 183.075,291.071 180.109,291.972 176.581 C 294.998 164.739,295.543 160.973,294.266 160.731 C 293.833 160.649,293.580 161.046,293.206 162.395 M81.056 162.695 C 83.092 163.723,83.780 163.779,86.167 163.111 C 86.604 162.989,86.718 163.037,86.500 163.251 C 85.289 164.433,83.174 164.342,80.643 162.999 C 77.730 161.453,78.083 161.194,81.056 162.695 M77.809 164.964 C 78.485 164.778,79.292 164.682,79.602 164.753 C 79.913 164.823,79.316 165.065,78.275 165.292 C 76.223 165.738,74.360 165.126,72.330 163.339 C 71.805 162.876,72.432 163.102,74.040 163.955 C 76.356 165.184,76.689 165.273,77.809 164.964 M71.761 166.184 L 73.500 166.014 71.853 166.545 C 70.218 167.071,70.194 167.068,68.438 166.121 C 65.582 164.580,64.949 163.858,67.595 165.159 C 69.706 166.197,70.250 166.331,71.761 166.184 M90.861 166.694 C 92.615 166.253,93.882 166.221,92.833 166.645 C 90.439 167.614,84.667 166.403,84.667 164.931 C 84.667 164.781,85.738 165.198,87.047 165.857 C 89.266 166.975,89.524 167.031,90.861 166.694 M65.576 167.862 C 67.100 167.713,67.292 167.742,66.500 167.998 C 64.580 168.620,63.545 168.480,61.421 167.311 C 60.277 166.682,59.339 166.047,59.337 165.900 C 59.335 165.754,60.305 166.178,61.493 166.842 C 63.475 167.950,63.811 168.034,65.576 167.862 M84.441 168.212 L 86.500 168.031 84.554 168.523 L 82.607 169.015 80.304 167.771 C 79.037 167.086,78.000 166.395,78.000 166.234 C 78.000 166.074,78.986 166.494,80.191 167.168 C 82.229 168.308,82.525 168.381,84.441 168.212 M74.040 168.687 C 75.808 169.579,76.297 169.684,77.947 169.522 L 79.833 169.337 78.042 169.890 L 76.251 170.442 74.209 169.340 C 70.779 167.488,70.646 166.973,74.040 168.687 M93.422 169.138 C 95.405 170.172,95.736 170.247,97.024 169.958 C 97.804 169.782,98.680 169.693,98.971 169.759 C 99.262 169.826,98.651 170.065,97.614 170.291 C 95.701 170.707,91.940 169.585,91.192 168.375 C 90.855 167.829,91.016 167.884,93.422 169.138 M71.408 171.163 C 73.886 170.881,73.855 171.188,71.358 171.662 C 69.620 171.992,65.333 170.324,65.333 169.319 C 65.333 169.159,66.229 169.562,67.325 170.215 C 69.226 171.347,69.410 171.390,71.408 171.163 M86.588 170.537 C 88.739 171.740,89.881 171.870,91.804 171.132 C 92.095 171.020,92.333 171.075,92.333 171.254 C 92.333 172.862,87.189 171.954,84.500 169.871 C 83.329 168.964,84.367 169.295,86.588 170.537 M80.040 172.020 C 81.799 172.908,82.305 173.017,83.947 172.864 L 85.833 172.687 84.500 173.151 C 83.767 173.406,82.909 173.627,82.595 173.641 C 82.059 173.665,77.667 171.432,77.667 171.136 C 77.667 170.872,78.040 171.011,80.040 172.020 M99.739 172.370 C 101.822 173.421,102.668 173.485,105.333 172.793 C 105.874 172.652,106.050 172.689,105.833 172.899 C 104.420 174.267,97.333 173.098,97.333 171.496 C 97.333 171.202,97.662 171.322,99.739 172.370 M73.433 173.796 C 75.147 174.779,75.524 174.874,76.766 174.633 C 78.389 174.319,79.518 174.260,79.276 174.501 C 78.028 175.749,71.000 174.309,71.000 172.805 C 71.000 172.498,71.590 172.739,73.433 173.796 M93.315 174.126 C 95.046 175.033,95.213 175.058,96.924 174.675 C 98.524 174.317,99.814 174.414,98.631 174.804 C 95.643 175.787,92.809 175.186,90.667 173.116 C 90.029 172.500,90.692 172.753,93.315 174.126 M86.054 175.361 C 87.862 176.273,88.318 176.368,90.128 176.210 L 92.167 176.032 90.136 176.562 L 88.105 177.092 85.886 175.850 C 83.871 174.724,83.345 174.333,83.843 174.333 C 83.940 174.333,84.935 174.796,86.054 175.361 M110.052 176.350 C 112.050 175.957,113.289 176.104,111.456 176.516 C 110.930 176.635,110.018 176.853,109.428 177.002 C 108.272 177.294,103.667 175.425,103.667 174.663 C 103.667 174.464,104.650 174.851,105.853 175.523 C 108.034 176.743,108.044 176.745,110.052 176.350 M83.012 177.998 C 85.111 177.600,85.669 177.591,85.000 177.969 C 83.044 179.071,77.018 177.754,77.003 176.221 C 77.001 176.068,77.960 176.479,79.133 177.136 C 81.172 178.276,81.344 178.314,83.012 177.998 M99.032 177.207 C 101.205 178.349,101.409 178.393,102.812 178.040 C 104.617 177.586,105.099 177.571,104.848 177.977 C 104.103 179.182,100.530 178.760,98.000 177.168 C 95.607 175.663,96.131 175.682,99.032 177.207 M92.197 178.813 C 94.065 179.840,94.410 179.925,95.494 179.626 C 96.159 179.442,97.033 179.346,97.435 179.412 C 97.898 179.488,97.447 179.702,96.209 179.995 L 94.251 180.458 92.102 179.312 C 90.084 178.237,89.311 177.667,89.869 177.667 C 90.002 177.667,91.050 178.183,92.197 178.813 M112.342 178.838 C 114.521 179.935,114.761 179.986,116.133 179.640 C 116.939 179.437,117.876 179.328,118.216 179.398 C 118.556 179.468,117.901 179.726,116.761 179.972 C 114.517 180.457,112.359 179.906,110.333 178.330 C 109.092 177.364,109.741 177.528,112.342 178.838 M88.434 181.502 C 89.204 181.382,90.133 181.202,90.500 181.101 C 90.874 180.998,91.047 181.045,90.894 181.209 C 89.521 182.674,85.106 181.849,83.000 179.735 C 82.725 179.459,83.521 179.792,84.768 180.476 C 86.732 181.553,87.223 181.690,88.434 181.502 M105.302 180.530 L 107.518 181.726 109.425 181.228 C 111.113 180.787,112.144 180.951,110.837 181.452 C 108.548 182.331,102.667 180.914,102.667 179.484 C 102.667 179.175,103.144 179.364,105.302 180.530 M98.249 182.175 C 100.178 183.235,100.506 183.317,101.610 183.010 C 103.198 182.569,104.877 182.557,103.794 182.994 C 101.573 183.891,100.131 183.772,97.864 182.505 C 95.814 181.358,95.344 181.000,95.889 181.000 C 96.011 181.000,97.073 181.529,98.249 182.175 M118.747 182.156 L 120.851 183.312 122.675 182.827 C 124.806 182.260,125.802 182.180,125.000 182.641 C 123.028 183.773,120.776 183.730,118.361 182.514 C 117.062 181.860,116.000 181.252,116.000 181.162 C 116.000 180.789,116.762 181.065,118.747 182.156 M79.150 185.844 C 82.734 188.160,85.667 190.186,85.667 190.348 C 85.667 190.727,83.838 191.193,80.500 191.664 C 79.033 191.871,76.287 192.331,74.397 192.687 C 71.573 193.219,70.827 193.260,70.210 192.917 C 68.971 192.229,61.575 187.072,60.500 186.146 C 58.949 184.811,60.086 185.496,65.420 189.109 C 71.149 192.990,70.140 192.819,78.667 191.362 C 85.331 190.223,85.152 190.309,83.281 189.153 C 82.485 188.661,81.083 187.768,80.167 187.169 C 78.020 185.765,72.941 182.511,72.472 182.239 C 72.273 182.123,70.027 182.322,67.482 182.681 C 63.063 183.304,60.678 183.477,61.590 183.110 C 62.290 182.829,71.802 181.414,72.233 181.528 C 72.453 181.586,75.566 183.528,79.150 185.844 M111.584 183.868 L 113.732 185.069 115.729 184.509 C 117.725 183.949,118.828 184.035,117.266 184.629 C 114.515 185.675,112.126 185.237,109.500 183.204 C 108.329 182.297,109.368 182.628,111.584 183.868 M90.925 184.023 C 92.584 184.959,92.924 185.030,94.952 184.866 L 97.167 184.686 95.049 185.173 L 92.931 185.661 90.799 184.468 C 89.626 183.813,88.667 183.214,88.667 183.138 C 88.667 182.838,89.187 183.042,90.925 184.023 M129.144 186.029 C 132.142 185.434,132.316 185.799,129.356 186.472 L 126.998 187.008 125.062 186.031 C 123.998 185.494,122.911 184.790,122.647 184.467 C 122.365 184.123,123.151 184.416,124.545 185.175 L 126.923 186.471 129.144 186.029 M104.185 185.473 C 106.083 186.516,106.379 186.585,107.690 186.291 C 110.037 185.764,110.695 186.129,108.448 186.711 L 106.396 187.243 104.213 186.026 C 103.013 185.357,101.924 184.702,101.793 184.571 C 101.254 184.031,102.236 184.402,104.185 185.473 M117.717 187.170 L 119.713 188.340 121.655 187.836 C 123.908 187.252,124.606 187.198,124.150 187.641 C 122.528 189.218,118.842 188.708,115.509 186.446 C 114.111 185.497,115.817 186.056,117.717 187.170 M96.667 187.361 C 98.353 188.295,98.688 188.362,100.833 188.202 L 103.167 188.027 100.920 188.531 L 98.672 189.036 96.503 187.823 C 95.310 187.155,94.333 186.547,94.333 186.471 C 94.333 186.169,94.914 186.390,96.667 187.361 M131.615 188.773 C 133.493 189.820,133.673 189.821,137.250 188.802 C 137.662 188.685,138.000 188.736,138.000 188.915 C 138.000 189.094,136.987 189.462,135.750 189.733 L 133.500 190.226 131.275 189.121 C 130.051 188.514,128.956 187.865,128.841 187.679 C 128.554 187.215,129.461 187.573,131.615 188.773 M110.192 188.835 C 112.197 189.957,112.350 189.989,113.967 189.643 C 116.517 189.096,117.151 189.466,114.667 190.051 L 112.500 190.562 110.333 189.403 C 109.142 188.766,108.024 188.114,107.850 187.955 C 107.168 187.333,108.200 187.721,110.192 188.835 M127.833 191.122 C 128.750 190.879,129.800 190.679,130.167 190.678 C 131.395 190.676,130.009 191.256,127.785 191.676 L 125.691 192.071 123.527 190.861 C 120.435 189.132,120.452 188.719,123.551 190.263 C 126.141 191.552,126.183 191.561,127.833 191.122 M102.598 190.794 C 104.477 191.857,104.694 191.904,106.322 191.608 C 107.272 191.435,108.301 191.350,108.608 191.418 C 108.915 191.487,108.101 191.741,106.799 191.983 L 104.431 192.423 102.299 191.177 C 99.888 189.769,99.749 189.667,100.246 189.667 C 100.442 189.667,101.501 190.174,102.598 190.794 M137.575 191.838 L 139.705 193.008 141.651 192.504 C 143.894 191.923,144.447 191.879,144.185 192.303 C 143.208 193.885,138.134 193.242,135.500 191.204 C 134.346 190.311,135.361 190.621,137.575 191.838 M116.181 192.162 C 118.196 193.289,118.316 193.314,120.150 192.975 C 123.019 192.444,123.497 192.790,120.765 193.420 L 118.364 193.975 116.158 192.686 C 112.659 190.641,112.678 190.203,116.181 192.162 M133.833 194.439 C 134.750 194.197,135.875 194.040,136.333 194.091 C 136.851 194.149,136.203 194.421,134.624 194.810 L 132.081 195.436 129.889 194.210 C 128.683 193.536,127.589 192.811,127.458 192.599 C 127.328 192.388,128.333 192.814,129.694 193.547 C 132.156 194.873,132.174 194.877,133.833 194.439 M108.348 194.175 C 110.356 195.310,110.489 195.338,112.275 195.008 C 115.842 194.349,116.064 194.717,112.544 195.455 L 110.293 195.927 108.409 194.792 C 105.092 192.795,105.044 192.308,108.348 194.175 M143.925 195.123 L 146.167 196.245 148.333 195.634 C 150.872 194.919,151.259 194.874,150.777 195.356 C 150.581 195.552,149.422 195.941,148.202 196.219 L 145.982 196.725 143.908 195.659 C 141.873 194.612,140.962 194.000,141.442 194.000 C 141.575 194.000,142.692 194.505,143.925 195.123 M122.564 195.744 C 124.235 196.675,124.362 196.695,126.284 196.316 C 129.211 195.741,129.580 196.129,126.721 196.775 L 124.274 197.328 121.971 195.959 C 118.625 193.972,119.083 193.805,122.564 195.744 M137.038 197.447 C 138.275 198.184,138.504 198.217,139.777 197.842 C 141.916 197.212,143.385 196.979,143.186 197.302 C 143.087 197.462,141.958 197.850,140.676 198.164 L 138.347 198.735 136.090 197.504 C 134.849 196.826,133.683 196.122,133.500 195.939 C 133.026 195.464,135.434 196.490,137.038 197.447 M114.353 197.704 C 116.266 198.724,116.336 198.735,118.522 198.354 C 120.613 197.990,122.003 198.090,120.289 198.481 C 116.260 199.402,116.506 199.416,114.177 198.135 C 112.168 197.031,111.678 196.667,112.203 196.667 C 112.315 196.667,113.282 197.133,114.353 197.704 M128.630 199.117 C 130.365 200.026,130.496 200.045,132.527 199.662 C 135.581 199.085,135.848 199.424,132.889 200.121 L 130.367 200.716 128.017 199.343 C 124.538 197.312,124.917 197.172,128.630 199.117 M120.035 201.046 C 122.071 202.131,122.233 202.143,126.000 201.491 C 127.982 201.148,126.369 201.861,124.120 202.322 L 122.074 202.742 119.954 201.504 C 116.717 199.613,116.771 199.306,120.035 201.046 " stroke="none" fill="#18283d" fill-rule="evenodd"></path><path id="path1" d="M0.046 94.583 C 0.072 147.086,0.215 187.610,0.367 185.667 C 8.146 86.379,85.146 8.807,184.167 0.500 C 188.324 0.152,173.228 0.074,94.583 0.040 L 0.000 0.000 0.046 94.583 M214.333 0.368 C 313.261 7.409,392.064 86.143,399.627 185.500 C 399.786 187.591,399.926 148.516,399.953 94.583 L 400.000 0.000 305.250 0.048 C 252.711 0.074,212.208 0.217,214.333 0.368 M189.500 15.528 C 188.767 15.598,186.067 15.816,183.500 16.014 C 111.615 21.539,48.106 71.586,25.317 140.667 C -12.508 255.327,69.149 375.715,189.454 382.656 C 281.636 387.975,363.249 323.878,380.185 232.859 C 399.107 131.163,329.019 33.111,226.130 17.341 C 216.607 15.881,196.341 14.878,189.500 15.528 M124.431 80.310 C 126.669 81.030,130.900 82.327,133.833 83.191 C 136.767 84.055,141.642 85.502,144.667 86.408 C 147.692 87.313,152.342 88.697,155.000 89.483 C 157.658 90.269,163.208 92.065,167.333 93.475 C 177.250 96.865,185.997 99.773,189.588 100.874 C 193.975 102.220,192.288 102.222,187.421 100.877 C 185.081 100.230,181.142 99.178,178.667 98.539 C 164.601 94.905,158.073 93.135,151.500 91.173 C 147.467 89.969,141.392 88.164,138.000 87.161 C 134.608 86.158,129.358 84.578,126.333 83.650 C 119.943 81.690,118.021 81.360,117.284 82.097 C 116.505 82.876,114.182 89.893,109.315 106.167 C 108.437 109.100,106.883 114.275,105.861 117.667 C 101.418 132.412,99.886 137.544,98.152 143.500 C 97.137 146.983,95.938 150.938,95.487 152.288 C 95.036 153.638,94.667 154.803,94.667 154.876 C 94.667 154.950,95.829 155.589,97.250 156.297 C 98.671 157.005,112.358 163.884,127.667 171.585 C 158.152 186.919,168.312 191.837,168.673 191.432 C 169.417 190.597,175.262 173.469,182.357 151.333 C 183.679 147.208,185.878 140.683,187.243 136.833 C 188.608 132.983,191.055 125.953,192.680 121.210 C 194.306 116.467,195.736 112.492,195.859 112.376 C 195.982 112.261,195.997 112.467,195.892 112.833 C 195.786 113.200,194.933 116.350,193.996 119.833 C 193.059 123.317,191.711 128.267,191.001 130.833 C 190.292 133.400,189.389 136.700,188.995 138.167 C 187.938 142.109,185.217 151.016,182.988 157.833 C 172.227 190.743,170.757 194.667,169.188 194.667 C 168.365 194.667,168.333 194.741,168.333 196.680 C 168.333 201.364,166.895 202.425,157.274 204.841 C 150.337 206.583,137.196 209.928,128.500 212.165 C 126.117 212.778,120.267 214.279,115.500 215.500 C 110.733 216.722,104.508 218.319,101.667 219.050 C 90.115 222.020,89.479 222.110,87.124 221.128 C 85.996 220.658,80.391 217.197,79.000 216.112 C 78.725 215.898,76.325 214.256,73.667 212.464 C 71.008 210.671,66.808 207.807,64.333 206.098 C 61.858 204.389,59.458 202.735,59.000 202.422 C 58.542 202.109,55.334 199.899,51.871 197.510 C 48.409 195.121,44.584 192.486,43.371 191.654 C 32.457 184.165,26.589 179.916,25.274 178.550 C 24.340 177.579,22.025 172.747,21.785 171.266 C 21.533 169.716,20.025 170.133,38.370 166.679 C 41.232 166.141,44.232 165.539,45.037 165.341 C 45.841 165.144,48.525 164.620,51.000 164.177 C 53.475 163.734,57.075 163.056,59.000 162.672 C 60.925 162.288,63.700 161.734,65.167 161.442 C 68.808 160.715,76.894 159.172,82.333 158.166 C 86.086 157.472,91.309 156.351,91.569 156.185 C 91.606 156.160,92.405 153.521,93.343 150.320 C 96.518 139.484,98.980 131.192,101.010 124.500 C 102.122 120.833,103.627 115.820,104.354 113.360 C 105.081 110.900,106.195 107.225,106.830 105.193 C 107.464 103.162,108.601 99.475,109.357 97.000 C 115.495 76.893,115.117 77.312,124.431 80.310 M115.003 101.333 C 115.631 101.333,116.333 102.443,116.333 103.433 L 116.333 104.485 117.358 103.243 C 119.038 101.204,120.229 101.707,119.649 104.210 C 119.225 106.034,119.256 106.173,119.943 105.552 C 121.189 104.424,121.769 104.821,121.590 106.683 L 121.428 108.365 122.348 108.163 C 123.028 108.014,123.386 108.126,123.718 108.593 C 123.965 108.941,124.595 109.332,125.119 109.461 C 125.642 109.591,126.139 109.961,126.224 110.284 C 126.308 110.606,126.830 111.041,127.383 111.250 C 128.285 111.591,128.378 111.756,128.278 112.845 C 128.165 114.078,128.998 114.858,131.083 115.474 C 131.762 115.674,131.902 117.482,131.269 117.873 C 131.033 118.019,131.473 118.264,132.352 118.476 C 133.781 118.821,133.830 118.874,133.746 120.000 C 133.510 123.139,133.641 123.808,134.669 124.691 C 135.511 125.414,135.667 125.790,135.667 127.096 C 135.667 127.948,135.917 129.168,136.222 129.809 C 136.733 130.881,136.736 131.082,136.249 132.320 C 135.665 133.807,136.159 134.140,137.712 133.309 C 138.080 133.112,139.212 132.735,140.228 132.470 C 141.244 132.205,142.443 131.700,142.892 131.347 C 143.495 130.872,144.207 130.712,145.623 130.732 C 147.199 130.754,148.048 130.520,150.426 129.406 C 153.508 127.961,153.390 128.089,156.630 122.718 C 157.818 120.749,160.224 119.825,159.804 121.500 C 159.679 121.995,159.737 122.333,159.947 122.333 C 160.694 122.333,162.024 120.003,162.535 117.801 C 162.828 116.535,163.340 114.600,163.673 113.500 C 164.005 112.400,164.451 110.525,164.664 109.333 C 165.209 106.275,165.506 105.667,166.457 105.667 C 167.806 105.667,168.077 108.207,167.184 112.476 C 166.718 114.699,166.744 115.333,167.298 115.333 C 167.930 115.333,169.375 111.530,170.018 108.177 C 171.045 102.820,171.734 101.534,172.933 102.733 C 173.632 103.432,173.380 108.764,172.479 112.333 C 172.154 113.619,173.382 111.789,175.030 108.530 C 176.888 104.857,177.589 103.942,178.453 104.065 C 179.813 104.259,179.549 105.917,177.541 109.798 C 175.497 113.749,175.508 114.097,177.602 111.667 C 179.932 108.961,181.721 110.023,179.662 112.889 C 178.571 114.409,178.571 115.434,179.662 114.088 C 180.343 113.247,181.648 112.667,182.855 112.667 C 183.938 112.667,183.928 113.639,182.833 114.667 C 181.765 115.670,181.785 115.860,183.000 116.283 C 184.162 116.689,184.168 116.709,183.469 118.061 C 183.041 118.889,183.021 119.140,183.370 119.356 C 183.994 119.742,183.250 121.011,181.966 121.748 C 180.973 122.318,180.911 123.000,181.853 123.000 C 182.426 123.000,182.474 123.392,181.964 123.902 C 181.694 124.172,181.790 124.376,182.319 124.659 C 182.868 124.953,183.003 125.262,182.876 125.940 C 182.785 126.431,182.617 127.536,182.504 128.394 C 182.320 129.794,182.196 129.977,181.293 130.175 C 180.325 130.388,180.309 130.421,180.865 131.035 C 181.973 132.259,178.520 137.367,176.058 138.148 C 175.207 138.418,175.143 138.760,175.833 139.333 C 177.076 140.365,173.963 145.045,171.080 146.478 C 170.028 147.001,168.460 147.788,167.597 148.226 C 166.031 149.021,166.020 149.022,163.707 148.464 C 161.445 147.918,161.356 147.921,160.060 148.596 C 159.330 148.977,158.649 149.204,158.546 149.101 C 158.443 148.999,157.678 149.086,156.847 149.295 C 155.606 149.608,155.113 149.584,154.103 149.161 C 152.998 148.700,152.842 148.699,152.586 149.157 C 152.113 150.002,151.298 149.740,149.989 148.322 L 148.748 146.977 148.057 148.374 C 147.237 150.031,147.398 150.481,149.381 152.067 C 150.137 152.672,151.127 153.513,151.580 153.937 C 152.033 154.360,153.625 155.627,155.118 156.752 C 160.087 160.496,160.989 161.354,161.885 163.184 C 162.800 165.051,162.755 166.000,161.753 166.000 C 161.407 166.000,160.883 166.499,160.519 167.175 C 159.753 168.597,158.802 168.889,156.597 168.380 C 155.691 168.171,154.529 168.000,154.015 168.000 C 153.502 168.000,152.893 167.773,152.663 167.496 C 152.362 167.132,152.127 167.090,151.821 167.344 C 151.588 167.537,151.024 167.602,150.568 167.487 C 150.106 167.371,149.641 167.439,149.517 167.640 C 149.150 168.234,148.681 168.057,147.659 166.938 C 146.740 165.932,146.657 165.906,146.068 166.438 C 145.203 167.222,144.920 167.159,143.333 165.833 C 142.565 165.192,141.684 164.667,141.376 164.667 C 140.513 164.667,139.333 163.702,139.333 162.996 C 139.333 162.392,138.854 162.216,136.333 161.891 C 136.058 161.856,135.405 161.030,134.882 160.055 C 133.888 158.204,133.319 158.237,132.954 160.167 C 132.776 161.107,131.470 161.172,128.674 160.380 L 126.333 159.718 126.136 160.502 C 125.893 161.471,125.247 161.744,124.167 161.333 C 123.217 160.972,122.466 161.174,122.203 161.859 C 122.073 162.197,121.467 162.328,120.094 162.314 C 118.472 162.297,118.265 162.231,118.790 161.897 C 121.158 160.387,121.150 159.900,118.750 159.539 C 117.403 159.336,117.333 159.366,117.333 160.163 C 117.333 161.145,117.274 161.159,115.983 160.491 C 113.194 159.049,117.326 155.789,120.438 156.976 C 122.368 157.711,125.000 157.444,125.000 156.511 C 125.000 156.009,125.584 155.031,126.500 154.000 C 128.577 151.661,127.924 150.494,125.299 151.851 C 124.391 152.320,123.666 152.386,121.263 152.215 C 118.530 152.021,118.333 152.050,118.333 152.643 C 118.333 154.871,114.776 155.778,113.138 153.968 C 112.431 153.187,112.700 152.816,113.616 153.306 C 115.181 154.144,116.920 152.454,115.725 151.258 C 115.252 150.786,113.667 151.234,113.667 151.840 C 113.667 152.111,113.540 152.333,113.385 152.333 C 112.845 152.333,111.942 151.045,112.060 150.441 C 112.146 150.004,111.816 149.669,110.887 149.250 C 109.266 148.519,109.333 148.508,109.333 149.500 C 109.333 150.587,108.552 150.578,108.054 149.484 C 107.382 148.011,107.565 147.379,108.750 147.068 C 109.939 146.755,110.372 146.832,114.964 148.175 L 118.096 149.090 118.707 148.295 C 119.043 147.858,119.322 147.336,119.326 147.135 C 119.340 146.463,120.704 145.520,122.403 145.008 C 125.605 144.042,125.538 142.028,122.230 139.832 C 120.165 138.460,118.854 138.647,117.074 140.568 L 116.244 141.464 115.456 140.547 C 114.500 139.436,114.476 138.620,115.339 136.718 C 115.738 135.837,115.916 134.949,115.792 134.454 C 115.403 132.903,118.749 130.682,121.500 130.665 C 123.593 130.652,123.877 130.333,123.332 128.610 C 123.081 127.816,122.867 125.967,122.855 124.500 C 122.825 120.810,121.722 118.551,118.893 116.385 C 114.498 113.021,113.338 111.453,114.822 110.884 C 115.229 110.728,115.174 110.399,114.489 108.902 C 113.126 105.925,112.927 100.645,114.197 101.132 C 114.485 101.243,114.848 101.333,115.003 101.333 M248.586 132.555 C 255.316 135.741,253.807 145.537,244.871 156.667 C 238.124 165.071,228.112 173.206,210.833 184.322 C 202.995 189.365,196.896 193.708,197.240 194.002 C 197.383 194.124,198.250 194.490,199.167 194.817 C 209.888 198.639,218.509 207.687,227.034 224.066 C 231.431 232.513,231.665 232.821,235.417 235.120 C 237.932 236.662,235.322 238.873,232.630 237.481 C 229.633 235.931,228.151 233.909,223.574 225.126 C 216.015 210.621,209.582 203.531,199.838 198.964 C 196.516 197.408,194.667 196.973,194.667 197.749 C 194.667 199.680,186.418 225.365,183.466 232.624 C 181.510 237.436,180.649 238.904,179.542 239.316 C 177.493 240.077,177.441 238.910,179.314 234.215 C 183.926 222.654,192.190 196.630,191.764 195.004 C 191.659 194.602,191.816 194.054,192.138 193.698 C 192.632 193.152,193.571 190.110,196.160 180.667 C 196.587 179.108,198.359 172.658,200.097 166.333 C 201.835 160.008,203.367 154.316,203.503 153.685 L 203.748 152.536 201.975 154.018 C 198.724 156.734,193.543 162.106,188.570 167.917 C 185.863 171.079,183.512 173.667,183.344 173.667 C 181.056 173.667,188.127 163.813,196.144 155.828 C 211.748 140.287,239.191 128.109,248.586 132.555 M237.167 135.305 C 229.142 137.365,218.719 142.209,210.422 147.736 C 208.134 149.259,206.962 150.253,206.861 150.754 C 205.596 157.080,200.889 175.814,197.893 186.453 L 197.129 189.167 203.224 185.167 C 206.576 182.967,211.963 179.442,215.195 177.333 C 233.683 165.271,245.404 153.714,248.891 144.105 C 251.914 135.777,247.687 132.604,237.167 135.305 M352.400 154.708 C 359.091 156.128,363.223 162.185,360.853 167.099 C 359.837 169.206,359.198 168.654,359.000 165.497 C 358.452 156.734,347.572 154.513,338.553 161.323 C 330.730 167.229,332.243 171.646,345.500 181.607 C 354.333 188.244,362.484 194.841,365.211 197.561 C 379.740 212.053,374.971 232.591,354.667 242.964 C 332.481 254.300,312.234 234.824,330.146 219.378 C 334.773 215.388,342.641 213.913,347.073 216.204 C 348.371 216.875,348.371 216.875,344.500 217.330 C 336.576 218.262,333.759 219.616,329.999 224.302 C 325.181 230.305,325.856 236.196,331.833 240.316 C 344.958 249.363,370.379 233.592,370.328 216.434 C 370.298 206.673,364.502 199.682,344.077 184.775 C 333.644 177.161,330.862 173.767,330.873 168.667 C 330.890 160.471,342.890 152.690,352.400 154.708 M90.577 158.221 L 88.988 158.690 91.411 159.965 C 92.743 160.667,96.983 162.856,100.833 164.830 C 104.683 166.805,109.933 169.505,112.500 170.832 C 122.436 175.967,127.722 178.693,133.500 181.664 C 136.800 183.360,141.450 185.765,143.833 187.007 C 146.217 188.249,150.405 190.413,153.141 191.815 L 158.115 194.366 160.557 193.766 C 161.900 193.436,162.994 193.092,162.988 193.000 C 162.982 192.908,158.070 190.413,152.072 187.454 C 142.200 182.585,97.301 160.330,93.667 158.506 C 92.258 157.799,92.069 157.781,90.577 158.221 M255.215 158.937 C 255.104 159.635,254.043 163.573,252.859 167.687 C 251.675 171.801,249.937 178.167,248.998 181.833 C 248.059 185.500,247.211 188.775,247.114 189.112 C 246.950 189.677,246.996 189.686,247.719 189.224 C 249.001 188.405,256.705 186.082,264.000 184.315 C 267.758 183.404,271.320 182.413,271.915 182.111 C 273.162 181.480,272.859 182.370,275.864 170.500 C 278.118 161.591,278.334 161.000,279.333 161.000 C 281.306 161.000,280.970 163.124,275.182 187.241 C 271.342 203.239,269.073 215.763,267.892 227.471 C 267.395 232.399,267.133 233.000,265.477 233.000 C 263.962 233.000,263.871 232.413,264.480 226.581 C 265.694 214.970,268.010 201.971,271.118 189.333 C 271.546 187.592,271.868 186.128,271.834 186.080 C 271.735 185.943,261.081 188.541,254.308 190.355 C 250.902 191.266,247.764 191.972,247.334 191.923 C 246.442 191.821,246.243 192.602,241.648 214.333 C 238.853 227.552,238.247 229.116,236.484 227.653 C 235.760 227.052,235.835 226.479,237.980 216.263 C 244.470 185.363,248.687 169.940,253.024 161.243 C 254.968 157.346,255.571 156.711,255.215 158.937 M294.999 161.163 C 295.438 162.319,294.672 166.542,292.359 175.718 C 290.622 182.604,290.516 183.229,291.150 182.814 C 292.581 181.876,311.565 176.667,313.550 176.667 C 314.143 176.667,314.382 176.394,314.649 175.417 C 318.590 160.977,318.737 160.594,319.901 161.758 C 320.762 162.619,320.115 166.259,316.781 179.333 C 309.197 209.065,307.730 215.962,306.499 227.662 C 305.919 233.170,305.486 234.089,303.757 233.469 L 302.833 233.138 302.923 229.819 C 303.095 223.457,305.200 211.245,308.207 199.167 C 309.427 194.263,312.930 181.237,313.258 180.383 C 313.404 180.002,313.298 179.944,312.808 180.140 C 312.455 180.280,308.042 181.438,303.000 182.713 C 297.958 183.988,292.847 185.412,291.641 185.879 L 289.448 186.727 288.864 189.114 C 285.330 203.557,283.585 211.748,282.318 219.833 C 281.373 225.860,280.397 227.267,278.825 224.867 C 277.252 222.467,284.721 189.771,293.167 162.083 C 293.752 160.165,294.480 159.800,294.999 161.163 M0.047 305.417 L 0.000 400.000 94.583 399.940 C 146.604 399.907,188.417 399.832,187.500 399.773 C 87.567 393.337,7.909 314.470,0.370 214.500 C 0.215 212.435,0.073 252.156,0.047 305.417 M399.666 212.750 C 399.660 221.242,396.393 240.745,392.866 253.333 C 369.892 335.348,299.899 392.760,214.500 399.638 C 212.667 399.786,253.654 399.928,305.583 399.953 L 400.000 400.000 400.000 305.500 C 400.000 253.525,399.925 211.000,399.833 211.000 C 399.742 211.000,399.666 211.787,399.666 212.750 M83.890 253.054 C 87.666 255.555,87.361 261.776,83.360 263.892 C 82.066 264.576,81.435 264.667,77.957 264.667 L 74.019 264.667 73.926 269.250 L 73.833 273.833 72.917 273.939 L 72.000 274.044 72.000 263.244 C 72.000 257.304,72.110 252.334,72.245 252.200 C 72.985 251.460,82.542 252.160,83.890 253.054 M273.945 253.150 C 274.142 254.880,272.414 255.609,271.484 254.189 C 270.696 252.986,271.339 251.925,272.772 252.064 C 273.671 252.151,273.850 252.317,273.945 253.150 M74.000 258.333 L 74.000 263.000 77.417 262.999 C 82.513 262.999,84.500 261.690,84.500 258.333 C 84.500 254.977,82.513 253.668,77.417 253.667 L 74.000 253.667 74.000 258.333 M105.169 259.003 C 105.737 259.923,104.971 260.651,103.502 260.587 C 101.991 260.521,101.036 261.076,100.219 262.496 C 99.994 262.888,99.764 265.382,99.667 268.500 L 99.500 273.833 98.577 273.939 L 97.654 274.046 97.744 266.606 C 97.830 259.431,97.857 259.167,98.497 259.167 C 98.971 259.167,99.213 259.452,99.344 260.167 C 99.525 261.155,99.533 261.158,99.939 260.423 C 100.726 258.999,104.528 257.967,105.169 259.003 M123.363 259.038 C 131.632 260.811,130.014 274.333,121.532 274.333 C 112.170 274.333,111.886 259.498,121.234 258.701 C 121.454 258.682,122.412 258.834,123.363 259.038 M171.835 259.003 C 172.404 259.923,171.637 260.651,170.169 260.587 C 168.657 260.521,167.703 261.076,166.886 262.496 C 166.660 262.888,166.431 265.382,166.333 268.500 L 166.167 273.833 165.250 273.939 L 164.333 274.044 164.333 266.724 C 164.333 260.341,164.401 259.379,164.863 259.201 C 165.633 258.906,166.000 259.250,166.002 260.270 L 166.003 261.167 166.752 260.286 C 168.019 258.794,171.208 257.989,171.835 259.003 M190.667 259.667 C 191.366 260.023,192.015 260.507,192.110 260.741 C 192.204 260.975,192.293 260.848,192.307 260.457 C 192.340 259.578,193.156 258.860,193.829 259.119 C 194.258 259.284,194.333 260.408,194.333 266.656 L 194.333 274.000 193.500 274.000 C 192.790 274.000,192.667 273.847,192.667 272.965 L 192.667 271.931 191.507 272.949 C 188.499 275.590,183.449 274.516,181.678 270.857 C 178.202 263.676,184.110 256.321,190.667 259.667 M215.190 259.546 C 215.636 259.838,216.005 260.172,216.011 260.288 C 216.070 261.471,217.007 261.709,217.817 260.747 C 220.198 257.917,224.956 258.292,226.443 261.428 C 226.896 262.381,227.000 263.667,227.000 268.300 L 227.000 274.000 226.167 274.000 C 225.596 274.000,225.333 273.816,225.331 273.417 C 225.304 266.891,225.038 263.041,224.549 262.094 C 223.615 260.288,221.038 259.973,219.386 261.463 C 217.991 262.721,217.838 263.362,217.667 268.667 L 217.500 273.833 216.667 273.833 L 215.833 273.833 215.667 268.333 C 215.465 261.679,215.045 260.640,212.527 260.568 C 209.349 260.478,208.548 262.026,208.333 268.667 L 208.167 273.833 207.244 273.939 L 206.320 274.046 206.410 266.606 C 206.499 259.211,206.504 259.166,207.238 259.062 C 207.798 258.982,208.029 259.167,208.195 259.827 C 208.392 260.614,208.466 260.650,208.967 260.197 C 210.649 258.674,213.417 258.385,215.190 259.546 M247.223 259.312 C 247.987 259.659,248.795 260.294,249.018 260.722 C 249.241 261.150,249.472 261.556,249.531 261.625 C 249.591 261.694,250.020 261.298,250.485 260.745 C 252.848 257.937,257.427 258.250,258.997 261.327 C 259.590 262.490,259.667 263.289,259.667 268.320 L 259.667 274.000 258.833 274.000 C 258.375 274.000,257.987 273.887,257.972 273.750 C 257.957 273.612,257.900 271.165,257.845 268.311 C 257.730 262.249,257.412 261.237,255.454 260.697 C 251.939 259.726,250.552 261.885,250.333 268.667 L 250.167 273.833 249.250 273.939 L 248.333 274.044 248.333 268.845 C 248.333 262.073,247.195 259.646,244.435 260.534 C 241.577 261.453,241.204 262.335,241.000 268.667 L 240.833 273.833 239.910 273.939 L 238.987 274.046 239.077 266.606 C 239.166 259.211,239.171 259.166,239.905 259.062 C 240.460 258.983,240.696 259.166,240.855 259.803 L 241.068 260.649 242.117 259.858 C 243.862 258.544,245.212 258.399,247.223 259.312 M294.367 259.046 C 297.361 260.049,298.081 261.620,298.268 267.563 C 298.443 273.152,298.302 274.000,297.195 274.000 L 296.403 274.000 296.273 268.750 C 296.101 261.791,295.505 260.611,292.167 260.611 C 288.763 260.611,287.887 262.211,287.667 268.833 L 287.500 273.833 286.583 273.939 L 285.667 274.044 285.667 266.724 C 285.667 260.272,285.731 259.380,286.209 259.197 C 286.890 258.935,287.667 259.555,287.667 260.358 C 287.667 260.903,287.758 260.883,288.517 260.180 C 289.917 258.882,292.426 258.396,294.367 259.046 M147.167 259.368 C 147.900 259.568,148.987 260.100,149.583 260.550 L 150.667 261.367 150.667 260.545 C 150.667 259.703,151.175 259.312,151.917 259.585 C 152.649 259.854,152.497 276.176,151.749 277.643 C 149.316 282.416,140.360 282.040,139.123 277.113 C 138.590 274.988,140.217 274.929,141.268 277.035 C 142.728 279.959,147.930 280.105,149.658 277.270 C 150.302 276.213,150.716 271.233,150.078 272.208 C 149.070 273.750,145.113 274.529,142.772 273.646 C 139.132 272.274,137.599 266.770,139.668 262.498 C 140.945 259.859,144.118 258.535,147.167 259.368 M317.500 259.368 C 318.233 259.568,319.321 260.100,319.917 260.550 L 321.000 261.367 321.000 260.517 C 321.000 259.832,321.162 259.667,321.833 259.667 L 322.667 259.667 322.667 268.061 C 322.667 275.871,322.619 276.556,321.976 277.882 C 319.764 282.452,310.656 281.892,309.457 277.113 C 308.983 275.224,310.952 274.861,311.517 276.733 C 312.464 279.868,318.187 280.230,319.991 277.270 C 320.636 276.213,321.049 271.233,320.412 272.208 C 319.404 273.750,315.447 274.529,313.105 273.646 C 309.465 272.274,307.933 266.770,310.001 262.498 C 311.278 259.859,314.451 258.535,317.500 259.368 M273.590 266.750 L 273.500 274.167 272.667 274.167 L 271.833 274.167 271.744 266.750 L 271.654 259.333 272.667 259.333 L 273.679 259.333 273.590 266.750 M119.833 260.834 C 114.439 262.743,115.450 272.123,121.101 272.592 C 127.635 273.134,129.230 262.312,122.853 260.706 C 121.113 260.268,121.477 260.253,119.833 260.834 M186.214 260.673 C 181.132 262.214,181.613 271.996,186.800 272.581 C 189.844 272.924,191.677 271.561,192.377 268.436 C 193.468 263.562,190.212 259.460,186.214 260.673 M144.390 261.011 C 139.986 262.000,139.274 270.313,143.445 272.045 C 147.230 273.617,150.445 271.170,150.482 266.691 C 150.516 262.560,147.987 260.203,144.390 261.011 M314.833 260.989 C 308.817 262.362,309.926 272.410,316.093 272.410 C 319.082 272.410,320.785 270.347,320.815 266.691 C 320.849 262.616,318.310 260.196,314.833 260.989 M169.503 283.622 C 171.920 284.720,174.463 288.670,173.423 289.710 C 172.821 290.313,171.729 289.708,171.495 288.644 C 170.775 285.364,166.616 283.721,163.088 285.322 C 157.650 287.791,157.708 300.691,163.169 303.334 C 166.566 304.979,170.329 303.524,171.495 300.115 C 171.969 298.729,173.163 298.170,173.542 299.156 C 174.188 300.838,171.485 304.549,169.092 305.266 C 162.129 307.353,157.259 302.945,157.195 294.500 C 157.127 285.672,162.861 280.604,169.503 283.622 M187.255 294.393 C 187.340 305.040,187.327 305.290,186.674 305.498 C 185.371 305.911,185.333 305.595,185.333 294.292 L 185.333 283.289 186.250 283.395 L 187.167 283.500 187.255 294.393 M225.667 288.000 C 225.760 290.517,225.953 292.314,226.106 292.079 C 227.723 289.579,233.379 289.830,235.579 292.499 C 241.116 299.216,233.197 309.944,226.723 304.496 L 225.748 303.676 225.544 304.695 C 225.380 305.518,225.195 305.693,224.587 305.607 L 223.833 305.500 223.745 294.394 L 223.658 283.288 224.579 283.394 L 225.500 283.500 225.667 288.000 M200.806 290.536 C 201.256 290.708,201.334 291.506,201.335 295.952 C 201.336 302.686,202.008 304.003,205.438 303.999 C 208.630 303.995,209.758 301.839,209.940 295.392 C 210.082 290.387,210.451 289.343,211.548 290.843 C 212.018 291.485,212.235 303.665,211.798 304.806 C 211.388 305.875,210.001 305.448,209.990 304.250 C 209.981 303.350,209.922 303.266,209.639 303.752 C 207.941 306.668,201.775 306.179,200.092 302.996 C 199.191 301.292,198.905 290.895,199.750 290.554 C 199.979 290.462,200.192 290.374,200.223 290.360 C 200.254 290.345,200.516 290.424,200.806 290.536 M227.379 293.210 C 223.602 296.990,225.679 304.111,230.559 304.111 C 234.122 304.111,236.437 299.522,235.028 295.252 C 233.939 291.951,229.753 290.834,227.379 293.210 " stroke="none" fill="#fbfbfb" fill-rule="evenodd"></path><path id="path2" d="M113.728 104.083 C 113.837 106.150,114.099 107.326,114.781 108.814 C 115.568 110.533,115.621 110.832,115.178 111.081 C 113.877 111.809,114.686 112.873,118.918 116.000 C 121.940 118.233,123.333 121.119,123.261 125.000 C 123.239 126.192,123.421 127.879,123.666 128.750 C 124.210 130.679,124.208 130.681,121.683 130.910 C 118.433 131.204,116.197 132.701,116.070 134.668 C 116.017 135.492,115.754 136.639,115.487 137.217 C 114.839 138.616,114.873 139.436,115.618 140.357 L 116.237 141.120 116.868 140.367 C 118.455 138.475,120.396 138.218,122.440 139.628 C 126.030 142.104,126.066 144.034,122.547 145.327 C 120.549 146.060,120.174 146.335,119.584 147.500 C 118.545 149.550,118.283 149.561,112.883 147.784 C 110.014 146.840,108.279 146.964,108.054 148.131 C 107.882 149.025,108.622 149.653,109.020 148.948 C 109.557 147.996,112.536 149.307,112.397 150.436 C 112.261 151.540,112.883 151.876,113.698 151.139 C 114.213 150.672,114.548 150.613,115.260 150.863 C 116.875 151.428,116.499 154.000,114.802 154.000 C 114.326 154.000,114.050 154.145,114.167 154.333 C 114.911 155.537,118.000 154.138,118.000 152.597 L 118.000 151.604 119.641 151.830 C 122.289 152.194,124.188 152.092,125.280 151.528 C 128.283 149.975,129.141 151.891,126.541 154.342 C 126.031 154.823,125.576 155.702,125.451 156.451 L 125.237 157.736 122.715 157.500 C 121.327 157.370,119.854 157.135,119.441 156.978 C 118.992 156.807,118.611 156.821,118.492 157.013 C 118.383 157.189,117.939 157.333,117.505 157.333 C 116.088 157.333,114.686 159.753,115.917 160.075 C 116.882 160.327,117.161 160.198,117.051 159.551 C 116.965 159.038,117.104 158.968,117.890 159.129 C 118.409 159.235,119.354 159.407,119.990 159.512 C 121.560 159.770,121.592 159.860,120.506 160.994 C 119.245 162.310,120.170 162.826,121.727 161.675 C 122.535 161.077,123.002 160.968,124.041 161.135 C 125.205 161.321,125.384 161.254,125.725 160.505 C 126.171 159.526,126.356 159.504,128.530 160.163 C 131.412 161.037,132.255 160.876,132.872 159.333 C 133.581 157.561,133.983 157.651,135.124 159.834 C 135.864 161.251,136.257 161.667,136.852 161.667 C 138.160 161.667,139.331 162.283,139.658 163.144 C 139.873 163.709,140.375 164.075,141.266 164.315 C 141.978 164.507,142.845 164.978,143.193 165.363 C 144.282 166.566,144.860 166.716,145.965 166.082 L 146.979 165.500 147.980 166.667 C 148.772 167.590,149.045 167.737,149.290 167.369 C 149.477 167.087,149.890 166.981,150.338 167.098 C 150.744 167.204,151.351 167.120,151.686 166.910 C 152.165 166.612,152.426 166.642,152.898 167.053 C 153.229 167.341,154.175 167.672,155.000 167.787 C 155.825 167.903,156.998 168.084,157.606 168.189 C 158.946 168.421,160.237 167.682,160.392 166.595 C 160.456 166.152,160.776 165.791,161.167 165.721 C 162.349 165.510,162.402 165.114,161.491 163.315 C 160.490 161.340,160.567 161.415,155.500 157.497 C 147.340 151.189,146.696 150.476,147.472 148.619 C 148.462 146.248,148.905 146.243,150.550 148.583 C 151.173 149.470,151.575 149.520,152.364 148.805 C 152.897 148.323,153.052 148.327,154.148 148.847 C 155.189 149.341,155.546 149.360,156.850 148.995 C 157.676 148.764,158.448 148.671,158.566 148.788 C 158.683 148.905,159.016 148.797,159.306 148.546 C 160.173 147.798,161.843 147.662,163.827 148.179 C 165.644 148.652,165.743 148.642,167.263 147.833 C 168.124 147.375,169.028 147.000,169.271 147.000 C 171.319 147.000,176.567 140.984,175.712 139.616 C 175.066 138.581,175.282 138.093,176.776 137.218 C 179.002 135.913,181.402 132.082,180.475 131.313 C 179.804 130.756,179.885 130.000,180.615 130.000 C 181.526 130.000,182.326 128.934,182.254 127.816 C 182.219 127.276,182.298 126.431,182.429 125.939 C 182.624 125.210,182.540 125.005,181.972 124.825 C 181.434 124.654,181.322 124.422,181.478 123.802 C 181.625 123.219,181.541 123.000,181.173 123.000 C 180.350 123.000,180.595 122.062,181.583 121.429 C 183.102 120.456,183.295 120.183,182.927 119.524 C 182.699 119.118,182.711 118.668,182.963 118.115 C 183.485 116.970,183.453 116.882,182.333 116.387 C 181.783 116.143,181.333 115.764,181.333 115.544 C 181.333 115.324,181.783 114.878,182.333 114.553 C 183.391 113.929,183.683 113.000,182.823 113.000 C 182.206 113.000,180.419 113.794,179.498 114.477 C 178.220 115.425,177.886 114.569,178.990 113.179 C 181.011 110.636,180.096 109.672,177.884 112.014 C 175.113 114.951,174.599 114.171,176.796 110.363 C 178.566 107.294,179.285 105.152,178.731 104.597 C 178.120 103.986,177.195 105.080,175.612 108.286 C 172.782 114.015,171.068 115.604,172.174 111.473 C 172.465 110.388,172.790 108.147,172.896 106.494 C 173.214 101.540,171.459 101.557,170.779 106.516 C 170.666 107.342,170.445 108.098,170.287 108.195 C 170.129 108.293,169.999 108.851,169.998 109.436 C 169.994 111.788,168.225 115.667,167.157 115.667 C 166.454 115.667,166.319 114.195,166.839 112.198 C 167.347 110.250,167.490 107.463,167.131 106.527 C 166.623 105.205,165.333 106.442,165.333 108.252 C 165.333 108.781,165.125 109.879,164.871 110.691 C 164.415 112.147,163.897 114.096,162.837 118.333 C 162.490 119.719,161.943 120.890,161.319 121.583 C 160.116 122.918,159.226 123.042,159.530 121.833 C 160.138 119.411,157.883 121.309,155.569 125.167 C 153.312 128.932,149.479 131.178,145.505 131.066 C 144.659 131.043,143.689 131.313,142.838 131.810 C 142.102 132.239,140.640 132.767,139.589 132.984 C 138.538 133.201,137.592 133.518,137.486 133.689 C 137.275 134.031,135.893 134.115,135.582 133.804 C 135.475 133.697,135.627 132.962,135.920 132.170 C 136.413 130.841,136.411 130.668,135.893 129.878 C 135.568 129.382,135.333 128.362,135.333 127.444 C 135.333 126.140,135.159 125.685,134.329 124.829 C 133.175 123.638,132.768 120.889,133.663 120.335 C 134.455 119.846,133.130 118.667,131.790 118.667 C 130.740 118.667,130.700 118.623,131.008 117.812 C 131.594 116.271,131.392 115.866,129.659 115.105 C 128.068 114.406,128.000 114.322,128.000 113.044 C 128.000 112.032,127.849 111.664,127.372 111.512 C 127.027 111.403,126.281 110.871,125.715 110.330 C 125.150 109.789,124.477 109.427,124.220 109.525 C 123.934 109.636,123.681 109.425,123.564 108.978 C 123.398 108.343,123.223 108.280,122.173 108.477 L 120.972 108.702 121.196 107.018 C 121.447 105.120,120.850 104.686,119.910 106.083 C 119.165 107.193,118.954 106.669,119.335 104.657 C 119.890 101.733,118.554 101.444,117.175 104.190 L 116.517 105.500 116.175 103.963 C 115.320 100.118,113.524 100.206,113.728 104.083 M271.686 252.476 C 270.794 253.551,272.092 255.196,273.250 254.458 C 273.709 254.166,273.920 252.763,273.551 252.458 C 273.086 252.074,272.012 252.084,271.686 252.476 M72.750 252.554 C 72.253 252.755,72.135 273.171,72.629 273.477 C 73.324 273.906,73.596 272.595,73.581 268.884 C 73.562 264.128,73.346 264.345,78.097 264.338 C 82.831 264.332,84.805 263.420,85.683 260.833 C 85.932 260.100,86.242 259.371,86.371 259.213 C 86.501 259.056,86.488 258.531,86.342 258.047 C 86.197 257.563,85.896 256.560,85.675 255.819 C 85.236 254.351,83.900 253.212,81.968 252.658 C 80.820 252.328,73.513 252.246,72.750 252.554 M82.296 253.981 C 85.875 255.807,85.761 260.929,82.100 262.791 C 80.747 263.479,74.191 263.578,73.780 262.917 C 73.503 262.470,73.333 254.445,73.586 253.750 C 73.856 253.010,80.750 253.192,82.296 253.981 M102.833 258.992 C 101.344 259.328,100.404 259.918,100.167 260.666 C 99.856 261.647,99.346 261.479,99.114 260.320 C 99.003 259.763,98.744 259.363,98.539 259.431 C 97.902 259.644,98.028 273.500,98.667 273.500 C 99.082 273.500,99.197 272.625,99.344 268.333 C 99.468 264.723,99.669 262.889,100.011 262.244 C 100.561 261.208,102.969 259.881,103.753 260.182 C 104.452 260.450,104.854 259.702,104.289 259.185 C 104.002 258.921,103.463 258.850,102.833 258.992 M120.167 259.210 C 115.607 260.308,112.998 266.395,115.469 270.167 C 115.761 270.612,116.000 271.125,116.000 271.306 C 116.000 273.247,122.241 274.905,124.528 273.572 C 125.738 272.866,127.000 271.750,127.000 271.385 C 127.000 271.192,127.198 270.913,127.440 270.767 C 128.142 270.341,128.857 265.850,128.387 264.818 C 128.174 264.351,127.998 263.713,127.995 263.401 C 127.989 262.836,126.892 261.485,125.324 260.113 C 124.490 259.383,121.570 258.872,120.167 259.210 M167.123 260.190 L 166.000 261.381 166.000 260.513 C 166.000 259.577,165.095 258.974,164.684 259.638 C 164.395 260.106,164.254 272.217,164.527 273.083 C 164.629 273.404,165.001 273.667,165.356 273.667 C 165.960 273.667,166.000 273.392,166.002 269.250 C 166.005 262.651,166.770 260.808,169.667 260.429 C 172.193 260.099,172.272 259.000,169.770 259.000 C 168.454 259.000,168.092 259.163,167.123 260.190 M185.500 259.283 C 180.169 261.017,179.296 270.323,184.180 273.342 C 186.581 274.826,190.852 274.121,192.161 272.025 C 192.422 271.607,192.523 271.736,192.661 272.663 C 192.899 274.270,193.902 274.459,194.119 272.937 C 194.625 269.395,194.168 259.500,193.500 259.500 C 193.021 259.500,192.804 259.757,192.728 260.417 C 192.601 261.519,192.515 261.534,191.569 260.627 C 190.095 259.214,187.489 258.637,185.500 259.283 M210.667 259.374 C 210.208 259.556,209.421 260.099,208.917 260.581 L 208.000 261.458 208.000 260.373 C 208.000 259.437,207.896 259.302,207.250 259.393 C 206.387 259.516,205.952 273.194,206.793 273.745 C 207.888 274.463,208.000 274.040,208.000 269.176 C 208.000 262.749,209.134 260.333,212.151 260.333 C 215.076 260.333,215.752 261.775,215.901 268.326 C 215.966 271.164,216.165 273.631,216.343 273.809 C 217.065 274.531,217.338 273.271,217.427 268.816 C 217.562 262.085,218.911 259.853,222.492 260.434 C 224.869 260.820,225.333 262.170,225.333 268.697 C 225.333 273.714,225.522 274.478,226.552 273.624 C 227.327 272.980,227.059 262.997,226.224 261.420 C 224.675 258.491,220.340 258.219,217.984 260.903 C 216.887 262.152,216.872 262.150,215.962 260.555 C 215.234 259.279,212.461 258.660,210.667 259.374 M243.333 259.354 C 242.875 259.547,242.088 260.099,241.583 260.581 L 240.667 261.458 240.667 260.373 C 240.667 259.437,240.563 259.302,239.917 259.393 L 239.167 259.500 239.253 266.475 C 239.344 273.839,239.347 273.861,240.152 273.552 C 240.579 273.388,240.667 272.622,240.667 269.055 C 240.667 262.423,242.126 259.893,245.627 260.453 C 247.965 260.828,248.720 262.809,248.665 268.433 C 248.609 274.190,248.587 274.000,249.309 274.000 C 249.910 274.000,249.959 273.678,250.064 269.083 C 250.221 262.209,251.233 260.310,254.717 260.344 C 257.357 260.371,258.000 261.966,258.000 268.496 C 258.000 272.008,258.121 273.702,258.384 273.865 C 260.841 275.383,259.882 261.363,257.418 259.749 C 255.656 258.594,250.732 259.343,250.677 260.774 C 250.648 261.543,249.600 262.131,249.279 261.558 C 248.078 259.412,245.484 258.450,243.333 259.354 M290.443 259.283 C 290.045 259.402,289.259 259.912,288.696 260.417 C 287.414 261.564,287.333 261.559,287.333 260.333 C 287.333 259.323,286.034 258.765,285.975 259.750 C 285.856 261.716,286.027 273.441,286.178 273.685 C 287.019 275.046,287.333 273.873,287.333 269.374 C 287.333 262.848,288.683 260.333,292.183 260.333 C 295.389 260.333,296.355 262.246,296.440 268.761 C 296.499 273.217,296.774 274.385,297.638 273.851 C 298.209 273.498,298.117 263.694,297.529 262.291 C 296.421 259.646,293.447 258.383,290.443 259.283 M142.833 259.967 C 136.438 262.937,138.409 274.000,145.333 274.000 C 146.619 274.000,148.937 273.063,149.810 272.190 L 150.500 271.500 150.599 273.570 C 150.782 277.396,149.092 279.333,145.573 279.333 C 143.025 279.333,141.680 278.642,140.990 276.977 C 140.232 275.147,138.910 275.850,139.620 277.706 C 140.420 279.798,142.694 280.784,146.287 280.595 L 149.123 280.446 150.524 278.899 L 151.925 277.352 151.983 273.593 C 152.014 271.525,152.094 267.813,152.159 265.343 C 152.271 261.114,152.060 259.667,151.331 259.667 C 151.159 259.667,150.901 260.124,150.756 260.682 C 150.499 261.675,150.477 261.685,149.810 261.099 C 147.732 259.276,145.205 258.866,142.833 259.967 M272.000 266.642 C 272.000 273.801,272.018 274.000,272.673 274.000 C 273.649 274.000,273.560 259.584,272.583 259.397 C 272.042 259.293,272.000 259.814,272.000 266.642 M313.667 259.704 C 312.304 260.108,310.000 262.209,310.000 263.048 C 310.000 263.367,309.850 263.720,309.667 263.833 C 309.019 264.234,309.279 268.762,310.040 270.338 C 311.923 274.234,317.175 275.206,320.169 272.212 C 320.949 271.432,321.350 271.836,321.173 273.224 C 320.779 276.300,320.592 277.175,320.307 277.278 C 320.138 277.339,320.000 277.569,320.000 277.789 C 320.000 278.603,317.930 279.441,315.846 279.471 C 313.485 279.505,311.995 278.617,311.281 276.750 C 310.864 275.662,310.502 275.464,309.774 275.927 C 309.486 276.109,309.576 276.552,310.107 277.573 C 312.600 282.367,320.389 281.778,322.106 276.667 C 322.629 275.109,322.935 261.754,322.475 260.555 C 322.181 259.788,321.333 259.856,321.333 260.647 C 321.333 261.636,320.781 261.762,320.020 260.945 C 319.642 260.539,319.333 260.334,319.333 260.489 C 319.333 260.643,319.035 260.500,318.670 260.170 C 317.876 259.451,315.323 259.213,313.667 259.704 M124.403 261.066 C 125.679 261.679,127.078 264.568,127.073 266.581 C 127.070 268.211,126.159 271.000,125.630 271.000 C 125.467 271.000,125.333 271.190,125.333 271.421 C 125.333 272.234,122.670 273.077,120.829 272.847 C 116.119 272.259,114.307 265.427,117.906 261.827 C 119.456 260.277,122.114 259.965,124.403 261.066 M189.978 260.989 C 194.106 263.095,193.498 271.237,189.105 272.687 C 185.440 273.897,182.569 271.246,182.569 266.655 C 182.569 261.570,185.989 258.954,189.978 260.989 M148.078 261.151 C 151.464 262.566,151.464 270.767,148.078 272.182 C 143.355 274.156,139.916 270.849,140.660 265.049 C 141.117 261.491,144.561 259.682,148.078 261.151 M317.833 261.000 C 317.947 261.183,318.266 261.333,318.543 261.333 C 319.930 261.333,321.608 265.383,321.142 267.605 C 321.001 268.281,320.872 268.908,320.857 269.000 C 320.722 269.790,319.502 271.742,319.058 271.878 C 318.751 271.972,318.240 272.188,317.921 272.358 C 313.345 274.801,308.615 267.735,311.606 262.924 C 312.773 261.048,317.047 259.727,317.833 261.000 M163.995 283.347 C 156.412 284.590,154.769 299.753,161.724 304.306 C 165.474 306.761,171.168 305.287,172.819 301.435 C 174.006 298.664,172.830 298.145,171.504 300.855 C 170.960 301.967,170.290 302.827,169.831 303.001 C 169.409 303.161,168.966 303.451,168.846 303.646 C 168.540 304.142,163.914 304.091,162.955 303.581 C 161.780 302.958,160.667 301.908,160.667 301.426 C 160.667 301.192,160.534 301.000,160.372 301.000 C 159.100 301.000,158.357 291.858,159.451 289.665 C 159.753 289.060,160.000 288.394,160.000 288.185 C 160.000 287.976,160.663 287.155,161.473 286.360 C 164.428 283.460,169.542 284.099,171.207 287.577 C 172.419 290.107,173.691 290.387,173.168 288.008 C 172.472 284.839,168.185 282.661,163.995 283.347 M185.536 283.861 C 185.048 285.132,185.317 305.015,185.825 305.210 C 187.171 305.726,187.268 304.919,187.123 294.476 C 187.047 288.989,186.903 284.237,186.803 283.917 C 186.577 283.190,185.806 283.156,185.536 283.861 M224.000 294.309 C 224.000 305.111,224.013 305.333,224.667 305.333 C 225.213 305.333,225.333 305.111,225.333 304.104 L 225.333 302.874 226.052 303.645 C 228.252 306.007,233.161 306.153,235.000 303.911 C 235.275 303.576,235.762 302.986,236.083 302.600 C 236.404 302.214,236.667 301.568,236.667 301.165 C 236.667 300.762,236.830 299.965,237.029 299.393 C 237.920 296.836,235.965 292.373,233.352 291.002 C 231.553 290.057,227.540 290.712,226.352 292.145 C 225.502 293.169,225.351 292.608,225.259 288.087 C 225.177 284.034,225.100 283.495,224.583 283.396 C 224.037 283.292,224.000 283.989,224.000 294.309 M199.567 290.877 C 198.403 292.042,199.620 302.725,201.073 304.097 C 203.009 305.925,207.390 305.856,209.024 303.973 C 209.715 303.175,209.997 303.237,210.139 304.219 C 210.187 304.557,210.548 304.881,210.939 304.939 C 211.839 305.072,212.044 291.728,211.153 290.989 C 210.205 290.202,210.000 291.031,210.000 295.644 C 210.000 300.425,209.497 302.286,207.832 303.668 C 207.223 304.173,203.233 304.200,203.067 303.700 C 202.999 303.498,202.747 303.333,202.505 303.333 C 201.674 303.333,201.238 301.158,201.036 296.004 C 200.835 290.887,200.551 289.894,199.567 290.877 M232.882 292.504 C 237.153 294.632,236.395 302.610,231.771 304.207 C 226.404 306.060,222.701 296.607,227.315 292.833 C 228.936 291.508,230.677 291.405,232.882 292.504 " stroke="none" fill="#b6993f" fill-rule="evenodd"></path><path id="path3" d="M195.812 156.083 L 194.833 157.167 195.917 156.188 C 196.512 155.649,197.000 155.162,197.000 155.104 C 197.000 154.847,196.725 155.074,195.812 156.083 M71.833 181.904 C 72.200 181.993,72.642 182.200,72.817 182.366 C 72.991 182.531,73.282 182.667,73.464 182.667 C 73.645 182.667,73.503 182.446,73.147 182.177 C 72.791 181.908,72.200 181.700,71.833 181.716 L 71.167 181.744 71.833 181.904 M74.669 183.227 C 74.670 183.377,75.120 183.756,75.669 184.068 C 76.953 184.799,76.952 184.582,75.667 183.667 C 75.117 183.275,74.668 183.077,74.669 183.227 M99.462 269.000 C 99.462 271.292,99.515 272.229,99.580 271.083 C 99.645 269.938,99.645 268.063,99.580 266.917 C 99.515 265.771,99.462 266.708,99.462 269.000 M217.457 268.667 C 217.457 270.592,217.512 271.379,217.579 270.417 C 217.646 269.454,217.646 267.879,217.579 266.917 C 217.512 265.954,217.457 266.742,217.457 268.667 M250.077 267.000 C 250.077 267.642,250.146 267.904,250.230 267.583 C 250.314 267.262,250.314 266.737,250.230 266.417 C 250.146 266.096,250.077 266.358,250.077 267.000 M250.091 270.667 C 250.091 271.492,250.156 271.829,250.235 271.417 C 250.315 271.004,250.315 270.329,250.235 269.917 C 250.156 269.504,250.091 269.842,250.091 270.667 " stroke="none" fill="#9c9da0" fill-rule="evenodd"></path><path id="path4" d="M66.479 71.750 L 65.500 72.833 66.583 71.854 C 67.593 70.942,67.820 70.667,67.562 70.667 C 67.505 70.667,67.017 71.154,66.479 71.750 M193.056 121.316 C 192.861 121.876,192.772 122.333,192.859 122.333 C 193.084 122.333,193.713 120.602,193.548 120.437 C 193.472 120.361,193.251 120.757,193.056 121.316 M348.750 154.563 C 349.071 154.647,349.596 154.647,349.917 154.563 C 350.238 154.479,349.975 154.411,349.333 154.411 C 348.692 154.411,348.429 154.479,348.750 154.563 M79.000 162.167 C 79.458 162.429,80.058 162.643,80.333 162.643 C 80.622 162.643,80.482 162.442,80.000 162.167 C 79.542 161.905,78.942 161.690,78.667 161.690 C 78.378 161.690,78.518 161.891,79.000 162.167 M71.911 163.051 C 72.469 163.735,75.667 165.452,75.667 165.067 C 75.667 164.898,74.729 164.262,73.583 163.654 C 72.438 163.045,71.685 162.774,71.911 163.051 M81.002 162.908 C 81.003 163.050,81.457 163.425,82.011 163.740 C 83.014 164.310,85.000 164.240,85.000 163.633 C 85.000 163.477,84.571 163.436,84.046 163.541 C 83.471 163.656,82.678 163.517,82.046 163.191 C 81.471 162.893,81.001 162.766,81.002 162.908 M65.918 164.566 C 68.363 166.521,70.114 167.104,71.853 166.545 L 73.500 166.014 71.761 166.184 C 70.250 166.331,69.706 166.197,67.595 165.159 C 66.259 164.503,65.505 164.236,65.918 164.566 M77.833 164.904 C 76.605 165.200,76.466 165.690,77.677 165.456 C 79.475 165.109,80.394 164.704,79.333 164.726 C 78.875 164.736,78.200 164.816,77.833 164.904 M84.667 164.944 C 84.667 165.090,85.192 165.460,85.833 165.766 C 86.475 166.072,87.000 166.203,87.000 166.056 C 87.000 165.910,86.475 165.540,85.833 165.234 C 85.192 164.928,84.667 164.797,84.667 164.944 M59.333 165.938 C 59.333 166.276,61.014 167.097,61.241 166.870 C 61.326 166.785,60.931 166.476,60.364 166.183 C 59.797 165.889,59.333 165.779,59.333 165.938 M78.000 166.234 C 78.000 166.387,78.900 167.008,80.000 167.612 C 81.100 168.217,82.000 168.586,82.000 168.433 C 82.000 168.279,81.100 167.659,80.000 167.054 C 78.900 166.450,78.000 166.080,78.000 166.234 M88.669 167.083 C 88.666 167.431,90.398 167.387,90.971 167.025 C 91.287 166.825,90.984 166.744,90.056 166.780 C 89.294 166.809,88.670 166.946,88.669 167.083 M62.333 167.632 C 62.333 168.402,65.435 168.663,66.167 167.955 C 66.382 167.747,66.014 167.710,65.128 167.852 C 64.308 167.983,63.469 167.918,63.044 167.690 C 62.626 167.467,62.333 167.443,62.333 167.632 M84.167 168.333 C 83.930 168.717,84.470 168.717,85.667 168.333 C 86.462 168.078,86.452 168.065,85.436 168.033 C 84.851 168.015,84.280 168.150,84.167 168.333 M91.168 168.336 C 91.460 168.808,93.333 169.741,93.333 169.414 C 93.333 169.144,91.591 168.000,91.179 168.000 C 91.059 168.000,91.054 168.151,91.168 168.336 M73.333 168.584 C 73.333 169.618,76.275 170.434,78.042 169.889 L 79.833 169.337 77.944 169.523 C 76.434 169.671,75.781 169.568,74.694 169.014 C 73.946 168.632,73.333 168.438,73.333 168.584 M82.333 168.667 C 82.333 168.850,82.549 169.000,82.814 169.000 C 83.078 169.000,83.387 168.850,83.500 168.667 C 83.613 168.483,83.397 168.333,83.020 168.333 C 82.642 168.333,82.333 168.483,82.333 168.667 M65.333 169.337 C 65.333 169.715,66.591 170.415,67.011 170.272 C 67.180 170.214,66.872 169.911,66.326 169.599 C 65.780 169.287,65.333 169.169,65.333 169.337 M84.500 169.870 C 85.571 170.698,87.667 171.706,87.667 171.393 C 87.667 171.090,84.615 169.326,84.122 169.344 C 83.963 169.350,84.133 169.587,84.500 169.870 M68.000 170.935 C 68.000 171.627,69.670 171.982,71.389 171.656 C 73.842 171.191,73.879 170.882,71.449 171.158 C 70.131 171.308,69.148 171.258,68.699 171.017 C 68.315 170.812,68.000 170.774,68.000 170.935 M91.083 171.235 C 90.671 171.315,90.333 171.535,90.333 171.726 C 90.333 171.916,90.571 171.980,90.861 171.869 C 91.151 171.758,91.601 171.667,91.861 171.667 C 92.121 171.667,92.333 171.517,92.333 171.333 C 92.333 171.150,92.221 171.020,92.083 171.045 C 91.946 171.070,91.496 171.156,91.083 171.235 M88.466 171.943 C 88.844 172.320,89.098 172.369,89.354 172.112 C 89.611 171.856,89.460 171.705,88.826 171.584 C 88.015 171.429,87.984 171.460,88.466 171.943 M97.333 171.491 C 97.333 171.578,97.783 171.882,98.333 172.167 C 98.883 172.451,99.333 172.554,99.333 172.395 C 99.333 172.237,98.951 171.933,98.484 171.720 C 97.554 171.296,97.333 171.253,97.333 171.491 M79.333 171.917 C 79.333 172.849,82.250 173.753,83.945 173.346 C 86.191 172.808,86.147 172.530,83.860 172.816 C 82.387 173.000,81.804 172.913,80.694 172.347 C 79.946 171.965,79.333 171.772,79.333 171.917 M71.476 173.174 C 71.829 173.441,72.200 173.578,72.299 173.478 C 72.509 173.269,71.662 172.674,71.167 172.682 C 70.983 172.685,71.122 172.907,71.476 173.174 M90.667 173.097 C 91.380 173.759,94.333 175.405,94.333 175.140 C 94.333 175.018,94.558 175.105,94.833 175.333 C 95.108 175.562,95.333 175.611,95.333 175.444 C 95.333 175.174,92.657 173.667,90.833 172.909 C 90.251 172.667,90.230 172.691,90.667 173.097 M101.667 173.667 C 101.667 173.850,101.892 174.000,102.167 174.000 C 102.442 174.000,102.667 173.850,102.667 173.667 C 102.667 173.483,102.442 173.333,102.167 173.333 C 101.892 173.333,101.667 173.483,101.667 173.667 M73.667 174.284 C 73.667 175.227,78.372 175.406,79.280 174.498 C 79.511 174.267,78.407 174.326,76.833 174.628 C 75.923 174.802,75.209 174.740,74.583 174.433 C 74.079 174.185,73.667 174.119,73.667 174.284 M97.083 174.569 C 96.671 174.648,96.333 174.849,96.333 175.015 C 96.333 175.367,98.351 175.048,98.817 174.623 C 99.143 174.324,98.462 174.303,97.083 174.569 M103.667 174.650 C 103.667 174.833,104.117 175.216,104.667 175.500 C 105.217 175.784,105.667 175.867,105.667 175.684 C 105.667 175.500,105.217 175.118,104.667 174.833 C 104.117 174.549,103.667 174.466,103.667 174.650 M85.333 175.280 C 85.333 176.342,88.210 177.102,90.190 176.562 L 92.167 176.023 90.125 176.206 C 88.463 176.355,87.827 176.259,86.708 175.688 C 85.952 175.302,85.333 175.119,85.333 175.280 M77.000 176.287 C 77.000 176.437,77.375 176.731,77.833 176.939 C 78.292 177.148,78.667 177.196,78.667 177.046 C 78.667 176.896,78.292 176.603,77.833 176.394 C 77.375 176.185,77.000 176.137,77.000 176.287 M96.842 176.448 C 98.632 177.668,100.667 178.691,100.667 178.370 C 100.667 178.172,99.771 177.557,98.676 177.005 C 96.586 175.950,95.730 175.690,96.842 176.448 M111.000 176.333 C 111.000 176.751,111.354 176.751,112.000 176.333 C 112.404 176.072,112.356 176.009,111.750 176.005 C 111.337 176.002,111.000 176.150,111.000 176.333 M80.147 178.139 C 80.871 178.729,82.242 178.823,83.000 178.334 C 83.362 178.101,83.133 178.028,82.167 178.070 C 81.433 178.101,80.533 178.011,80.167 177.870 C 79.510 177.616,79.509 177.620,80.147 178.139 M83.833 178.000 C 83.571 178.424,84.343 178.424,85.000 178.000 C 85.406 177.737,85.363 177.676,84.770 177.672 C 84.368 177.669,83.947 177.817,83.833 178.000 M103.083 177.902 C 102.671 177.981,102.333 178.182,102.333 178.348 C 102.333 178.700,104.351 178.382,104.817 177.956 C 105.143 177.658,104.462 177.636,103.083 177.902 M110.167 178.203 C 111.307 179.084,112.621 179.677,112.798 179.391 C 112.891 179.240,112.296 178.791,111.475 178.392 C 109.736 177.547,109.222 177.473,110.167 178.203 M92.000 178.978 C 92.000 179.932,94.230 180.464,96.238 179.988 C 97.465 179.698,97.900 179.488,97.435 179.412 C 97.033 179.346,96.143 179.447,95.458 179.636 C 94.402 179.927,94.044 179.876,93.106 179.296 C 92.496 178.919,92.000 178.776,92.000 178.978 M103.142 179.840 C 103.496 180.108,103.866 180.245,103.966 180.145 C 104.175 179.936,103.329 179.341,102.833 179.349 C 102.650 179.352,102.789 179.573,103.142 179.840 M116.806 179.622 C 116.972 179.890,118.667 179.744,118.667 179.461 C 118.667 179.391,118.208 179.333,117.647 179.333 C 117.086 179.333,116.708 179.463,116.806 179.622 M104.333 180.316 C 104.333 180.500,104.783 180.882,105.333 181.167 C 105.883 181.451,106.333 181.534,106.333 181.350 C 106.333 181.167,105.883 180.784,105.333 180.500 C 104.783 180.216,104.333 180.133,104.333 180.316 M109.750 181.111 C 108.971 181.285,108.333 181.573,108.333 181.750 C 108.333 181.927,108.571 181.980,108.861 181.869 C 109.151 181.758,109.638 181.664,109.944 181.662 C 110.558 181.656,111.572 181.107,111.324 180.915 C 111.237 180.848,110.529 180.936,109.750 181.111 M85.333 181.122 C 85.333 181.535,87.212 182.185,88.083 182.073 C 89.436 181.900,89.197 181.467,87.750 181.470 C 87.063 181.471,86.237 181.349,85.917 181.200 C 85.596 181.051,85.333 181.016,85.333 181.122 M116.000 181.160 C 116.000 181.248,116.600 181.626,117.333 182.000 C 118.861 182.779,119.157 182.433,117.699 181.572 C 116.760 181.017,116.000 180.833,116.000 181.160 M98.000 182.298 C 98.000 183.501,101.498 183.922,103.794 182.994 C 104.891 182.551,103.188 182.572,101.570 183.021 C 100.484 183.323,100.146 183.272,99.154 182.659 C 98.519 182.267,98.000 182.104,98.000 182.298 M124.000 182.667 C 124.000 183.084,124.354 183.084,125.000 182.667 C 125.404 182.405,125.356 182.343,124.750 182.338 C 124.337 182.336,124.000 182.483,124.000 182.667 M62.000 183.000 C 61.292 183.227,61.380 183.272,62.583 183.300 C 63.362 183.318,64.000 183.183,64.000 183.000 C 64.000 182.616,63.200 182.616,62.000 183.000 M110.005 183.243 C 110.002 183.469,110.600 183.959,111.333 184.333 C 112.067 184.707,112.667 184.893,112.667 184.745 C 112.667 184.392,110.668 183.215,110.662 183.564 C 110.659 183.712,110.511 183.608,110.333 183.333 C 110.125 183.011,110.008 182.979,110.005 183.243 M91.005 184.241 C 90.996 184.954,92.815 185.655,94.123 185.442 C 95.920 185.151,95.589 184.833,93.488 184.833 C 92.210 184.833,91.545 184.680,91.326 184.333 C 91.125 184.016,91.008 183.982,91.005 184.241 M115.917 184.401 C 115.229 184.583,114.667 184.852,114.667 184.998 C 114.667 185.330,117.388 184.740,117.817 184.314 C 118.209 183.925,117.606 183.952,115.917 184.401 M123.107 184.822 C 123.625 185.292,124.175 185.598,124.329 185.503 C 124.483 185.407,124.686 185.518,124.779 185.748 C 124.908 186.070,124.953 186.072,124.974 185.757 C 124.988 185.531,124.362 185.036,123.583 184.657 L 122.167 183.967 123.107 184.822 M60.667 186.285 C 61.308 186.852,62.054 187.319,62.324 187.324 C 62.848 187.334,62.383 186.957,60.500 185.845 C 59.561 185.292,59.572 185.319,60.667 186.285 M104.000 185.632 C 104.000 186.472,106.355 187.236,107.874 186.888 C 108.676 186.705,109.333 186.430,109.333 186.277 C 109.333 185.935,109.166 185.939,107.509 186.323 C 106.411 186.578,106.000 186.515,105.093 185.954 C 104.492 185.583,104.000 185.438,104.000 185.632 M130.000 186.000 C 130.000 186.391,130.256 186.391,131.167 186.000 C 131.757 185.746,131.729 185.711,130.917 185.690 C 130.412 185.677,130.000 185.817,130.000 186.000 M115.831 186.662 C 116.380 187.024,117.280 187.502,117.831 187.724 C 118.382 187.947,118.944 188.287,119.078 188.481 C 119.239 188.713,119.325 188.689,119.328 188.411 C 119.331 188.179,118.771 187.729,118.083 187.411 C 117.396 187.093,116.783 186.720,116.722 186.581 C 116.660 186.443,116.473 186.414,116.305 186.518 C 116.137 186.621,116.000 186.547,116.000 186.353 C 116.000 186.159,115.737 186.001,115.417 186.002 C 115.000 186.004,115.118 186.192,115.831 186.662 M96.667 187.620 C 96.667 188.338,98.593 189.020,99.993 188.796 C 101.803 188.506,101.707 188.040,99.880 188.246 C 98.845 188.362,98.173 188.244,97.546 187.833 C 97.042 187.503,96.667 187.412,96.667 187.620 M121.750 187.754 C 120.607 188.029,119.746 188.667,120.519 188.667 C 121.097 188.667,123.882 187.865,124.150 187.621 C 124.552 187.256,123.603 187.308,121.750 187.754 M128.838 187.674 C 129.123 188.135,132.334 189.742,132.331 189.422 C 132.329 189.144,130.625 188.104,129.398 187.631 C 128.891 187.436,128.700 187.451,128.838 187.674 M110.000 189.003 C 110.000 189.841,112.361 190.545,114.026 190.205 C 114.928 190.020,115.667 189.748,115.667 189.601 C 115.667 189.265,115.502 189.272,113.712 189.685 C 112.471 189.971,112.090 189.923,111.128 189.355 C 110.508 188.989,110.000 188.831,110.000 189.003 M136.583 188.896 C 136.262 188.980,136.000 189.204,136.000 189.393 C 136.000 189.583,136.237 189.647,136.527 189.536 C 136.817 189.424,137.267 189.333,137.527 189.333 C 137.787 189.333,138.000 189.183,138.000 189.000 C 138.000 188.658,137.607 188.629,136.583 188.896 M84.427 190.114 C 84.467 190.326,84.301 190.459,84.059 190.408 C 83.816 190.358,83.712 190.471,83.828 190.658 C 84.070 191.050,85.020 191.127,84.961 190.750 C 84.855 190.082,85.046 189.884,85.364 190.333 C 85.640 190.724,85.690 190.731,85.591 190.362 C 85.439 189.798,84.322 189.560,84.427 190.114 M123.477 190.826 C 124.198 191.269,124.911 191.555,125.061 191.463 C 125.211 191.370,125.333 191.462,125.333 191.667 C 125.333 191.872,125.506 191.933,125.717 191.802 C 125.952 191.657,125.530 191.267,124.634 190.798 C 122.689 189.781,121.811 189.802,123.477 190.826 M127.724 191.118 C 126.931 191.330,126.378 191.600,126.495 191.717 C 126.723 191.945,130.224 191.220,130.571 190.874 C 130.890 190.555,129.329 190.689,127.724 191.118 M80.333 191.333 C 80.608 191.511,81.058 191.656,81.333 191.656 C 81.778 191.656,81.778 191.621,81.333 191.333 C 81.058 191.156,80.608 191.010,80.333 191.010 C 79.889 191.010,79.889 191.046,80.333 191.333 M103.000 191.283 C 103.000 192.169,105.360 192.656,106.333 191.971 C 106.713 191.704,106.553 191.654,105.668 191.764 C 104.974 191.850,104.200 191.709,103.752 191.416 C 103.295 191.117,103.000 191.065,103.000 191.283 M136.000 191.320 C 136.000 191.503,136.600 191.959,137.333 192.333 C 138.067 192.707,138.667 192.864,138.667 192.680 C 138.667 192.497,138.067 192.041,137.333 191.667 C 136.600 191.293,136.000 191.136,136.000 191.320 M116.000 192.312 C 116.000 193.724,121.667 194.111,122.988 192.789 C 123.176 192.602,119.760 192.951,118.905 193.207 C 118.578 193.305,117.790 193.079,117.155 192.704 C 116.520 192.329,116.000 192.153,116.000 192.312 M142.417 192.235 C 142.004 192.315,141.667 192.531,141.667 192.716 C 141.667 193.101,143.652 192.767,144.150 192.298 C 144.477 191.990,143.813 191.966,142.417 192.235 M70.163 192.673 C 70.049 192.857,70.208 192.899,70.537 192.773 C 70.925 192.624,71.032 192.679,70.868 192.943 C 70.722 193.180,70.840 193.333,71.167 193.333 C 71.463 193.333,71.607 193.174,71.487 192.979 C 71.338 192.737,71.677 192.698,72.551 192.856 C 73.256 192.984,73.726 192.974,73.595 192.833 C 73.230 192.444,70.386 192.311,70.163 192.673 M128.667 193.260 C 128.667 193.425,129.417 193.969,130.333 194.468 C 131.250 194.967,132.000 195.239,132.000 195.074 C 132.000 194.908,131.250 194.364,130.333 193.866 C 129.417 193.367,128.667 193.094,128.667 193.260 M133.750 194.421 C 132.971 194.608,132.333 194.902,132.333 195.074 C 132.333 195.406,133.593 195.196,135.826 194.490 C 137.572 193.938,135.978 193.885,133.750 194.421 M108.672 194.545 C 108.659 195.487,110.122 195.925,112.090 195.568 C 113.140 195.378,114.000 195.087,114.000 194.922 C 114.000 194.757,113.737 194.694,113.417 194.782 C 111.661 195.263,110.244 195.341,109.808 194.979 C 109.547 194.762,109.331 194.716,109.328 194.876 C 109.325 195.036,109.178 194.942,109.000 194.667 C 108.822 194.392,108.675 194.337,108.672 194.545 M142.336 194.589 C 142.341 195.067,144.987 196.290,145.216 195.920 C 145.346 195.709,145.279 195.661,145.052 195.802 C 144.840 195.932,144.667 195.908,144.667 195.748 C 144.667 195.588,144.142 195.206,143.500 194.900 C 142.858 194.594,142.335 194.454,142.336 194.589 M148.917 195.434 C 148.229 195.627,147.667 195.924,147.667 196.094 C 147.667 196.265,147.904 196.314,148.194 196.202 C 148.484 196.091,148.980 196.000,149.297 196.000 C 149.614 196.000,150.164 195.780,150.520 195.511 C 151.290 194.928,150.808 194.905,148.917 195.434 M122.871 196.495 C 124.229 197.309,128.000 197.139,128.000 196.265 C 128.000 195.931,128.025 195.930,126.042 196.355 C 124.686 196.646,124.203 196.616,123.376 196.189 C 121.761 195.353,121.366 195.593,122.871 196.495 M135.005 196.578 C 135.002 196.804,135.750 197.369,136.667 197.833 C 137.583 198.298,138.333 198.559,138.333 198.415 C 138.333 198.113,135.965 196.776,135.730 196.945 C 135.644 197.007,135.448 196.857,135.292 196.612 C 135.087 196.287,135.009 196.278,135.005 196.578 M139.917 197.734 C 139.229 197.917,138.667 198.217,138.667 198.402 C 138.667 198.587,138.881 198.656,139.143 198.555 C 139.405 198.455,140.155 198.272,140.810 198.149 C 141.464 198.026,142.000 197.792,142.000 197.630 C 142.000 197.274,141.570 197.295,139.917 197.734 M115.000 198.281 C 115.000 198.910,116.194 199.314,117.453 199.110 C 118.121 199.001,118.667 198.781,118.667 198.619 C 118.667 198.458,118.067 198.421,117.335 198.538 C 116.471 198.677,115.827 198.605,115.502 198.335 C 115.174 198.062,115.000 198.044,115.000 198.281 M119.500 198.333 C 119.238 198.758,120.010 198.758,120.667 198.333 C 121.073 198.071,121.030 198.009,120.436 198.005 C 120.035 198.002,119.613 198.150,119.500 198.333 M128.605 199.662 C 130.369 200.700,134.000 200.652,134.000 199.591 C 134.000 199.425,133.737 199.366,133.417 199.460 C 131.610 199.991,130.350 200.026,129.457 199.572 C 127.519 198.585,126.889 198.652,128.605 199.662 M120.667 201.614 C 120.667 202.281,122.015 202.723,123.357 202.496 C 125.295 202.169,125.290 201.664,123.350 201.893 C 122.233 202.026,121.511 201.952,121.173 201.672 C 120.843 201.398,120.667 201.378,120.667 201.614 M125.667 201.667 C 125.667 202.084,126.020 202.084,126.667 201.667 C 127.071 201.405,127.023 201.343,126.417 201.338 C 126.004 201.336,125.667 201.483,125.667 201.667 M328.649 220.917 L 327.500 222.167 328.750 221.018 C 329.913 219.949,330.153 219.667,329.899 219.667 C 329.843 219.667,329.281 220.229,328.649 220.917 M72.369 252.457 C 71.614 253.367,72.031 273.833,72.806 273.833 C 73.157 273.833,73.519 273.608,73.610 273.333 C 73.745 272.924,73.684 272.908,73.274 273.247 C 72.387 273.978,72.333 273.390,72.333 262.980 C 72.333 253.948,72.396 252.714,72.861 252.536 C 74.953 251.733,82.773 252.542,84.288 253.718 C 84.606 253.965,84.521 253.836,84.099 253.432 C 82.626 252.021,73.370 251.251,72.369 252.457 M74.500 253.543 C 76.809 253.782,81.908 253.814,81.553 253.588 C 81.340 253.454,79.442 253.365,77.333 253.392 C 75.225 253.418,73.950 253.486,74.500 253.543 M104.315 259.144 C 104.540 259.416,104.627 259.794,104.509 259.985 C 104.391 260.177,104.453 260.333,104.647 260.333 C 105.216 260.333,105.052 259.091,104.453 258.861 C 104.002 258.688,103.978 258.738,104.315 259.144 M97.743 266.583 C 97.833 273.817,97.835 273.834,98.583 273.940 C 98.996 273.998,99.333 273.903,99.333 273.727 C 99.333 273.551,99.071 273.428,98.750 273.454 C 98.211 273.496,98.167 272.958,98.167 266.416 C 98.167 262.521,98.051 259.333,97.910 259.333 C 97.769 259.333,97.694 262.596,97.743 266.583 M321.125 260.156 C 321.022 260.425,321.014 260.837,321.109 261.072 C 321.203 261.308,321.293 261.162,321.307 260.750 C 321.335 259.955,322.162 259.713,322.446 260.417 C 322.546 260.666,322.625 260.598,322.640 260.250 C 322.673 259.528,321.396 259.448,321.125 260.156 M271.808 266.833 C 271.808 270.683,271.857 272.213,271.916 270.232 C 271.975 268.251,271.974 265.101,271.915 263.232 C 271.856 261.363,271.807 262.983,271.808 266.833 M285.751 261.500 C 285.754 262.233,285.823 262.494,285.902 262.079 C 285.982 261.665,285.979 261.065,285.896 260.746 C 285.812 260.427,285.747 260.767,285.751 261.500 M84.363 262.797 C 84.151 263.053,83.528 263.448,82.978 263.676 C 82.428 263.903,82.044 264.156,82.125 264.236 C 82.339 264.451,84.144 263.463,84.648 262.855 C 84.887 262.568,85.007 262.333,84.915 262.333 C 84.823 262.333,84.575 262.542,84.363 262.797 M77.667 263.000 L 73.833 263.200 77.500 263.262 C 79.517 263.296,81.392 263.178,81.667 263.000 C 81.942 262.822,82.017 262.704,81.833 262.738 C 81.650 262.772,79.775 262.890,77.667 263.000 M99.541 263.180 C 99.427 263.477,99.349 264.046,99.367 264.444 C 99.389 264.901,99.502 264.738,99.675 264.002 C 99.966 262.763,99.887 262.278,99.541 263.180 M239.128 268.000 C 239.128 270.292,239.182 271.229,239.247 270.083 C 239.312 268.938,239.312 267.063,239.247 265.917 C 239.182 264.771,239.128 265.708,239.128 268.000 M285.795 268.000 C 285.795 270.292,285.848 271.229,285.913 270.083 C 285.979 268.938,285.979 267.063,285.913 265.917 C 285.848 264.771,285.795 265.708,285.795 268.000 M76.083 264.580 C 77.137 264.646,78.862 264.646,79.917 264.580 C 80.971 264.514,80.108 264.459,78.000 264.459 C 75.892 264.459,75.029 264.514,76.083 264.580 M215.793 268.333 C 215.793 270.442,215.847 271.304,215.913 270.250 C 215.979 269.196,215.979 267.471,215.913 266.417 C 215.847 265.362,215.793 266.225,215.793 268.333 M152.100 267.000 C 152.100 268.008,152.162 268.421,152.239 267.917 C 152.315 267.412,152.315 266.587,152.239 266.083 C 152.162 265.579,152.100 265.992,152.100 267.000 M248.457 268.667 C 248.457 270.592,248.512 271.379,248.579 270.417 C 248.646 269.454,248.646 267.879,248.579 266.917 C 248.512 265.954,248.457 266.742,248.457 268.667 M321.077 266.667 C 321.077 267.308,321.146 267.571,321.230 267.250 C 321.314 266.929,321.314 266.404,321.230 266.083 C 321.146 265.762,321.077 266.025,321.077 266.667 M152.123 272.667 C 152.123 274.592,152.178 275.379,152.246 274.417 C 152.313 273.454,152.313 271.879,152.246 270.917 C 152.178 269.954,152.123 270.742,152.123 272.667 M120.589 274.242 C 121.188 274.316,122.088 274.314,122.589 274.238 C 123.090 274.162,122.600 274.101,121.500 274.103 C 120.400 274.105,119.990 274.167,120.589 274.242 M314.921 279.569 C 315.335 279.649,315.935 279.646,316.254 279.562 C 316.573 279.479,316.233 279.414,315.500 279.417 C 314.767 279.421,314.506 279.489,314.921 279.569 M144.750 280.905 C 145.254 280.982,146.079 280.982,146.583 280.905 C 147.087 280.829,146.675 280.767,145.667 280.767 C 144.658 280.767,144.246 280.829,144.750 280.905 M314.923 280.908 C 315.522 280.982,316.422 280.981,316.923 280.905 C 317.424 280.829,316.933 280.768,315.833 280.770 C 314.733 280.772,314.324 280.834,314.923 280.908 M165.921 283.236 C 166.335 283.315,166.935 283.312,167.254 283.229 C 167.573 283.146,167.233 283.080,166.500 283.084 C 165.767 283.088,165.506 283.156,165.921 283.236 M223.816 294.667 C 223.816 300.625,223.861 303.063,223.916 300.083 C 223.971 297.104,223.971 292.229,223.916 289.250 C 223.861 286.271,223.816 288.708,223.816 294.667 M158.773 294.333 C 158.773 295.525,158.834 296.012,158.908 295.417 C 158.982 294.821,158.982 293.846,158.908 293.250 C 158.834 292.654,158.773 293.142,158.773 294.333 M165.256 305.575 C 165.855 305.649,166.755 305.648,167.256 305.572 C 167.757 305.495,167.267 305.435,166.167 305.437 C 165.067 305.438,164.657 305.501,165.256 305.575 " stroke="none" fill="#82736b" fill-rule="evenodd"></path><path id="path5" d="M173.107 105.333 C 173.107 106.525,173.167 107.013,173.241 106.417 C 173.315 105.821,173.315 104.846,173.241 104.250 C 173.167 103.654,173.107 104.142,173.107 105.333 M119.703 105.686 C 119.264 106.051,118.976 106.421,119.063 106.507 C 119.149 106.593,119.571 106.290,120.001 105.832 C 120.937 104.836,120.802 104.771,119.703 105.686 M167.433 108.333 C 167.433 109.342,167.496 109.754,167.572 109.250 C 167.648 108.746,167.648 107.921,167.572 107.417 C 167.496 106.912,167.433 107.325,167.433 108.333 M172.026 112.957 C 172.004 113.624,172.079 113.683,172.500 113.333 C 173.046 112.880,173.184 112.513,172.695 112.816 C 172.527 112.919,172.314 112.816,172.221 112.585 C 172.129 112.355,172.041 112.523,172.026 112.957 M181.859 121.450 C 180.975 122.197,180.681 122.636,180.951 122.803 C 181.170 122.938,181.309 122.898,181.258 122.713 C 181.208 122.527,181.692 121.922,182.333 121.368 C 182.975 120.814,183.425 120.357,183.333 120.352 C 183.242 120.347,182.578 120.841,181.859 121.450 M135.417 127.167 C 135.421 127.900,135.489 128.161,135.569 127.746 C 135.649 127.331,135.646 126.731,135.562 126.413 C 135.479 126.094,135.414 126.433,135.417 127.167 M126.649 153.917 L 125.500 155.167 126.750 154.018 C 127.438 153.386,128.000 152.824,128.000 152.768 C 128.000 152.513,127.718 152.753,126.649 153.917 M320.757 273.000 C 320.757 273.825,320.822 274.162,320.902 273.750 C 320.981 273.337,320.981 272.662,320.902 272.250 C 320.822 271.837,320.757 272.175,320.757 273.000 " stroke="none" fill="#d3c6a0" fill-rule="evenodd"></path><path id="path6" d="M113.424 103.000 C 113.424 103.825,113.489 104.162,113.569 103.750 C 113.648 103.337,113.648 102.662,113.569 102.250 C 113.489 101.837,113.424 102.175,113.424 103.000 M171.705 113.064 C 171.649 113.891,172.190 114.079,172.712 113.413 C 173.118 112.895,173.108 112.879,172.611 113.268 C 172.140 113.636,172.032 113.610,171.900 113.101 C 171.764 112.578,171.739 112.574,171.705 113.064 M121.083 130.896 C 121.404 130.980,121.929 130.980,122.250 130.896 C 122.571 130.813,122.308 130.744,121.667 130.744 C 121.025 130.744,120.763 130.813,121.083 130.896 M179.333 134.667 C 178.942 135.217,178.696 135.667,178.788 135.667 C 178.880 135.667,179.275 135.217,179.667 134.667 C 180.058 134.117,180.304 133.667,180.212 133.667 C 180.120 133.667,179.725 134.117,179.333 134.667 M176.581 137.305 C 175.211 138.183,175.021 138.492,176.229 137.878 C 176.813 137.581,177.384 137.187,177.499 137.002 C 177.766 136.570,177.686 136.596,176.581 137.305 M113.410 151.320 C 112.993 151.668,112.768 152.010,112.910 152.081 C 113.051 152.152,113.499 151.862,113.905 151.438 C 114.791 150.512,114.470 150.436,113.410 151.320 M115.960 152.073 C 116.114 152.999,116.161 153.045,116.266 152.378 C 116.334 151.945,116.252 151.452,116.084 151.284 C 115.899 151.099,115.851 151.410,115.960 152.073 M151.000 153.771 C 151.000 153.828,151.487 154.316,152.083 154.854 L 153.167 155.833 152.188 154.750 C 151.275 153.740,151.000 153.513,151.000 153.771 M161.358 165.626 C 160.913 165.750,160.512 166.039,160.466 166.268 C 160.421 166.496,160.460 166.530,160.553 166.342 C 160.646 166.154,161.001 166.000,161.341 166.000 C 161.682 166.000,162.053 165.850,162.167 165.667 C 162.280 165.483,162.326 165.348,162.270 165.367 C 162.213 165.385,161.803 165.501,161.358 165.626 M73.799 258.333 C 73.799 260.992,73.851 262.079,73.914 260.750 C 73.977 259.421,73.977 257.246,73.914 255.917 C 73.851 254.588,73.799 255.675,73.799 258.333 M169.587 258.902 C 170.002 258.982,170.602 258.979,170.921 258.896 C 171.239 258.812,170.900 258.747,170.167 258.751 C 169.433 258.754,169.173 258.823,169.587 258.902 M273.333 266.099 L 273.499 272.833 273.590 266.357 C 273.640 262.796,273.566 259.765,273.424 259.623 C 273.282 259.481,273.241 262.396,273.333 266.099 M73.797 269.000 C 73.797 271.475,73.850 272.487,73.914 271.250 C 73.978 270.012,73.978 267.987,73.914 266.750 C 73.850 265.512,73.797 266.525,73.797 269.000 M166.131 269.000 C 166.131 271.475,166.183 272.487,166.247 271.250 C 166.311 270.012,166.311 267.987,166.247 266.750 C 166.183 265.512,166.131 266.525,166.131 269.000 M240.795 269.333 C 240.795 271.625,240.848 272.563,240.913 271.417 C 240.979 270.271,240.979 268.396,240.913 267.250 C 240.848 266.104,240.795 267.042,240.795 269.333 M287.461 269.167 C 287.461 271.367,287.515 272.223,287.580 271.070 C 287.646 269.917,287.645 268.117,287.579 267.070 C 287.513 266.023,287.460 266.967,287.461 269.167 M180.744 266.667 C 180.744 267.308,180.813 267.571,180.896 267.250 C 180.980 266.929,180.980 266.404,180.896 266.083 C 180.813 265.762,180.744 266.025,180.744 266.667 M208.122 268.833 C 208.123 270.667,208.179 271.374,208.246 270.405 C 208.314 269.437,208.313 267.937,208.245 267.072 C 208.176 266.207,208.121 267.000,208.122 268.833 M121.083 272.896 C 121.404 272.980,121.929 272.980,122.250 272.896 C 122.571 272.813,122.308 272.744,121.667 272.744 C 121.025 272.744,120.763 272.813,121.083 272.896 M187.083 272.896 C 187.404 272.980,187.929 272.980,188.250 272.896 C 188.571 272.813,188.308 272.744,187.667 272.744 C 187.025 272.744,186.762 272.813,187.083 272.896 M225.464 288.333 C 225.464 290.808,225.516 291.821,225.581 290.583 C 225.645 289.346,225.645 287.321,225.581 286.083 C 225.516 284.846,225.464 285.858,225.464 288.333 M187.140 292.167 C 187.140 295.833,187.188 297.379,187.248 295.601 C 187.308 293.823,187.308 290.823,187.249 288.934 C 187.189 287.045,187.140 288.500,187.140 292.167 M201.132 295.500 C 201.132 298.067,201.184 299.073,201.248 297.735 C 201.311 296.398,201.311 294.298,201.247 293.069 C 201.183 291.839,201.131 292.933,201.132 295.500 " stroke="none" fill="#c0b192" fill-rule="evenodd"></path><path id="path7" d="M189.083 15.563 C 189.404 15.647,189.929 15.647,190.250 15.563 C 190.571 15.479,190.308 15.411,189.667 15.411 C 189.025 15.411,188.762 15.479,189.083 15.563 M341.833 59.000 C 342.549 59.733,343.210 60.333,343.302 60.333 C 343.394 60.333,342.883 59.733,342.167 59.000 C 341.451 58.267,340.790 57.667,340.698 57.667 C 340.606 57.667,341.117 58.267,341.833 59.000 M328.333 68.833 C 329.514 70.025,330.556 71.000,330.647 71.000 C 330.739 71.000,329.848 70.025,328.667 68.833 C 327.486 67.642,326.444 66.667,326.353 66.667 C 326.261 66.667,327.152 67.642,328.333 68.833 M160.833 91.462 C 161.383 91.713,162.208 92.010,162.667 92.122 C 163.336 92.286,163.303 92.237,162.500 91.871 C 161.950 91.621,161.125 91.324,160.667 91.211 C 159.997 91.047,160.030 91.097,160.833 91.462 M188.711 100.973 C 188.486 101.111,189.046 101.383,190.018 101.608 C 191.889 102.040,192.543 102.099,192.255 101.811 C 191.842 101.398,189.080 100.745,188.711 100.973 M195.409 113.239 C 194.785 114.908,194.710 115.265,194.934 115.489 C 195.055 115.611,195.337 114.993,195.561 114.117 C 196.019 112.322,195.935 111.835,195.409 113.239 M197.812 154.083 L 196.833 155.167 197.917 154.188 C 198.512 153.649,199.000 153.162,199.000 153.104 C 199.000 152.847,198.725 153.074,197.812 154.083 M199.146 156.417 L 198.167 157.500 199.250 156.521 C 199.846 155.983,200.333 155.495,200.333 155.438 C 200.333 155.180,200.058 155.407,199.146 156.417 M193.479 158.417 L 192.500 159.500 193.583 158.521 C 194.179 157.983,194.667 157.495,194.667 157.438 C 194.667 157.180,194.392 157.407,193.479 158.417 M240.812 161.083 L 239.833 162.167 240.917 161.188 C 241.512 160.649,242.000 160.162,242.000 160.104 C 242.000 159.847,241.725 160.074,240.812 161.083 M184.315 172.583 L 183.167 173.833 184.417 172.685 C 185.104 172.053,185.667 171.490,185.667 171.435 C 185.667 171.180,185.385 171.420,184.315 172.583 M383.095 195.500 C 383.098 196.417,383.163 196.752,383.239 196.245 C 383.316 195.739,383.314 194.989,383.235 194.579 C 383.156 194.169,383.093 194.583,383.095 195.500 M383.095 203.833 C 383.098 204.750,383.163 205.085,383.239 204.579 C 383.316 204.072,383.314 203.322,383.235 202.912 C 383.156 202.502,383.093 202.917,383.095 203.833 M210.833 206.667 C 211.549 207.400,212.210 208.000,212.302 208.000 C 212.394 208.000,211.883 207.400,211.167 206.667 C 210.451 205.933,209.790 205.333,209.698 205.333 C 209.606 205.333,210.117 205.933,210.833 206.667 M16.077 207.333 C 16.077 207.975,16.146 208.237,16.230 207.917 C 16.314 207.596,16.314 207.071,16.230 206.750 C 16.146 206.429,16.077 206.692,16.077 207.333 M340.921 215.236 C 341.335 215.315,341.935 215.312,342.254 215.229 C 342.573 215.146,342.233 215.080,341.500 215.084 C 340.767 215.088,340.506 215.156,340.921 215.236 M362.812 232.750 L 361.833 233.833 362.917 232.854 C 363.926 231.942,364.153 231.667,363.896 231.667 C 363.838 231.667,363.351 232.154,362.812 232.750 M298.127 268.167 C 298.128 270.367,298.182 271.223,298.247 270.070 C 298.312 268.917,298.312 267.117,298.246 266.070 C 298.180 265.023,298.127 265.967,298.127 268.167 M257.757 268.000 C 257.757 268.825,257.822 269.162,257.902 268.750 C 257.981 268.337,257.981 267.662,257.902 267.250 C 257.822 266.837,257.757 267.175,257.757 268.000 M211.802 298.167 C 211.802 301.100,211.853 302.255,211.915 300.734 C 211.977 299.213,211.976 296.813,211.914 295.401 C 211.852 293.989,211.801 295.233,211.802 298.167 M65.333 324.167 C 65.955 324.808,66.539 325.333,66.631 325.333 C 66.722 325.333,66.289 324.808,65.667 324.167 C 65.045 323.525,64.461 323.000,64.369 323.000 C 64.278 323.000,64.711 323.525,65.333 324.167 M334.315 324.250 L 333.167 325.500 334.417 324.351 C 335.580 323.282,335.820 323.000,335.565 323.000 C 335.510 323.000,334.947 323.563,334.315 324.250 M75.333 334.167 C 75.955 334.808,76.539 335.333,76.631 335.333 C 76.722 335.333,76.289 334.808,75.667 334.167 C 75.045 333.525,74.461 333.000,74.369 333.000 C 74.278 333.000,74.711 333.525,75.333 334.167 M324.315 334.250 L 323.167 335.500 324.417 334.351 C 325.580 333.282,325.820 333.000,325.565 333.000 C 325.510 333.000,324.947 333.563,324.315 334.250 M341.493 341.417 L 338.500 344.500 341.583 341.507 C 343.279 339.861,344.667 338.473,344.667 338.424 C 344.667 338.182,344.273 338.553,341.493 341.417 M57.319 340.417 C 58.137 341.287,58.849 342.000,58.903 342.000 C 59.153 342.000,58.888 341.701,57.417 340.319 L 55.833 338.833 57.319 340.417 M190.917 382.902 C 191.329 382.981,192.004 382.981,192.417 382.902 C 192.829 382.822,192.492 382.757,191.667 382.757 C 190.842 382.757,190.504 382.822,190.917 382.902 M207.583 382.902 C 207.996 382.981,208.671 382.981,209.083 382.902 C 209.496 382.822,209.158 382.757,208.333 382.757 C 207.508 382.757,207.171 382.822,207.583 382.902 " stroke="none" fill="#cacacf" fill-rule="evenodd"></path><path id="path8" d="M195.750 15.243 C 196.438 15.315,197.563 15.315,198.250 15.243 C 198.938 15.171,198.375 15.112,197.000 15.112 C 195.625 15.112,195.063 15.171,195.750 15.243 M200.923 15.242 C 201.522 15.316,202.422 15.314,202.923 15.238 C 203.424 15.162,202.933 15.101,201.833 15.103 C 200.733 15.105,200.324 15.167,200.923 15.242 M70.667 67.500 C 69.857 68.325,69.270 69.000,69.361 69.000 C 69.453 69.000,70.190 68.325,71.000 67.500 C 71.810 66.675,72.397 66.000,72.305 66.000 C 72.214 66.000,71.476 66.675,70.667 67.500 M82.500 190.869 L 80.833 191.325 82.290 191.189 C 83.092 191.114,83.909 190.891,84.107 190.693 C 84.305 190.495,84.399 190.351,84.317 190.373 C 84.234 190.395,83.417 190.618,82.500 190.869 M383.077 191.333 C 383.077 191.975,383.146 192.237,383.230 191.917 C 383.314 191.596,383.314 191.071,383.230 190.750 C 383.146 190.429,383.077 190.692,383.077 191.333 M15.795 198.333 C 15.795 200.625,15.848 201.563,15.913 200.417 C 15.979 199.271,15.979 197.396,15.913 196.250 C 15.848 195.104,15.795 196.042,15.795 198.333 M383.077 208.000 C 383.077 208.642,383.146 208.904,383.230 208.583 C 383.314 208.262,383.314 207.737,383.230 207.417 C 383.146 207.096,383.077 207.358,383.077 208.000 M68.000 327.104 C 68.000 327.162,68.487 327.649,69.083 328.188 L 70.167 329.167 69.188 328.083 C 68.275 327.074,68.000 326.847,68.000 327.104 M330.812 328.083 L 329.833 329.167 330.917 328.188 C 331.926 327.275,332.153 327.000,331.896 327.000 C 331.838 327.000,331.351 327.487,330.812 328.083 " stroke="none" fill="#748c9c" fill-rule="evenodd"></path></g></svg>